---
d: 56
---
<?xml version="1.0" encoding="UTF-8"?> <svg width="{{d}}pt" height="{{d}}pt" viewBox="0 0 496 496" xmlns="http://www.w3.org/2000/svg" fill="#607D8B"> <path d="m368 416c0-13.113-4.4883-25.594-12.23-34.559 2.7734-6.6562 4.2305-13.953 4.2305-21.441 0-14.594-5.5273-28.168-14.816-37.16 4.4336-7.8633 6.8164-17.145 6.8164-26.84 0-20.031-10.199-37.414-25.199-44.496 0.80078-3.7773 1.1992-7.6328 1.1992-11.504 0-26.473-17.945-48-40-48 20.031 0 36.672-17.77 39.559-40.855 18.449-4.2578 32.441-23.777 32.441-47.145 0-5.3281-0.76953-10.574-2.2891-15.688 11.289-8.7188 18.289-23.793 18.289-40.312 0-26.473-17.945-48-40-48s-40 21.527-40 48c0 5.3281 0.76953 10.574 2.2891 15.688-9.6406 7.4492-16.152 19.512-17.848 33.168-18.457 4.2578-32.441 23.777-32.441 47.145 0-23.367-13.984-42.887-32.441-47.145-1.6953-13.656-8.207-25.727-17.848-33.168 1.5195-5.1133 2.2891-10.359 2.2891-15.688 0-26.473-17.945-48-40-48s-40 21.527-40 48c0 16.52 7 31.594 18.289 40.312-1.5195 5.1133-2.2891 10.359-2.2891 15.688 0 23.367 13.992 42.887 32.441 47.145 2.8867 23.086 19.527 40.855 39.559 40.855-22.055 0-40 21.527-40 48 0 3.8711 0.39844 7.7266 1.1992 11.504-15 7.082-25.199 24.465-25.199 44.496 0 9.6953 2.3828 18.977 6.8164 26.84-9.2891 8.9922-14.816 22.566-14.816 37.16 0 7.4883 1.457 14.785 4.2305 21.441-7.7422 8.9648-12.23 21.445-12.23 34.559 0 1.0547 0.0625 2.0781 0.16016 3.1055-5.2812 8.3516-8.1602 18.488-8.1602 28.895 0 26.473 17.945 48 40 48s40-21.527 40-48c0-1.0547-0.0625-2.0781-0.16016-3.1055 5.2812-8.3516 8.1602-18.488 8.1602-28.895 0-7.4883-1.457-14.785-4.2305-21.441 7.7422-8.9648 12.23-21.445 12.23-34.559 0-9.6953-2.3828-18.977-6.8164-26.84 9.2891-8.9922 14.816-22.566 14.816-37.16 0-3.8711-0.39844-7.7266-1.1992-11.504 15-7.082 25.199-24.465 25.199-44.496 0 20.031 10.199 37.414 25.199 44.496-0.80078 3.7773-1.1992 7.6328-1.1992 11.504 0 14.594 5.5273 28.168 14.816 37.16-4.4336 7.8633-6.8164 17.145-6.8164 26.84 0 13.113 4.4883 25.594 12.23 34.559-2.7734 6.6562-4.2305 13.953-4.2305 21.441 0 10.406 2.8789 20.543 8.1602 28.895-0.097656 1.0273-0.16016 2.0508-0.16016 3.1055 0 26.473 17.945 48 40 48s40-21.527 40-48c0-10.406-2.8789-20.543-8.1602-28.895 0.097656-1.0273 0.16016-2.0508 0.16016-3.1055zm-80-304c4.4141 0 8-3.5742 8-8 0-13.145 6.2734-25.16 15.617-29.895 3.7734-1.9141 5.3984-6.4492 3.7109-10.328-2.207-5.0742-3.3281-10.387-3.3281-15.777 0-17.648 10.77-32 24-32s24 14.352 24 32c0 13.145-6.2734 25.16-15.617 29.895-3.7734 1.9141-5.3984 6.4492-3.7109 10.328 2.207 5.0742 3.3281 10.387 3.3281 15.777 0 17.078-10.113 30.945-22.754 31.832l-45.238-19.391c3.543-2.7539 7.6094-4.4414 11.992-4.4414zm-24 32c0-5.1211 0.99219-9.8867 2.6016-14.184l45.016 19.289c-1.8477 15.215-11.695 26.895-23.617 26.895-0.76172 0-1.5742-0.12109-2.4141-0.27344-3.707-12.277-11.441-22.23-21.305-27.535-0.17578-1.457-0.28125-2.8477-0.28125-4.1914zm-112-40c0-5.3906 1.1211-10.703 3.3281-15.777 1.6875-3.8789 0.0625-8.4141-3.7109-10.328-9.3438-4.7344-15.617-16.75-15.617-29.895 0-17.648 10.77-32 24-32s24 14.352 24 32c0 5.3906-1.1211 10.703-3.3281 15.777-1.6875 3.8789-0.0625 8.4141 3.7109 10.328 9.3438 4.7344 15.617 16.75 15.617 29.895 0 4.4258 3.5859 8 8 8 4.3828 0 8.4492 1.6875 11.992 4.4414l-45.238 19.391c-12.641-0.88672-22.754-14.754-22.754-31.832zm40.223 232.56c5.0156 6.1758 7.7773 14.496 7.7773 23.441 0 10.855-4.1602 20.902-11.121 26.887-2.9023 2.4961-3.6328 6.6875-1.75 10.016 3.1914 5.625 4.8711 12.234 4.8711 19.098 0 8.168-2.4492 16.031-6.8789 22.129-1.168 1.5977-1.6953 3.5742-1.4961 5.543l0.11719 1.0703c0.12109 1.082 0.25781 2.1445 0.25781 3.2578 0 17.648-10.77 32-24 32s-24-14.352-24-32c0-8.168 2.4492-16.031 6.8789-22.129 1.168-1.5977 1.6953-3.5742 1.4961-5.543l-0.11719-1.0703c-0.12109-1.082-0.25781-2.1445-0.25781-3.2578 0-10.848 4.1602-20.902 11.129-26.887 2.8945-2.4961 3.6328-6.6875 1.7422-10.016-3.1914-5.625-4.8711-12.234-4.8711-19.098 0-12.305 5.3125-23.32 13.863-28.77 1.9297-1.2227 3.2344-3.2148 3.6016-5.4688 0.35938-2.25-0.25-4.5547-1.6875-6.3281-4.5781-5.6328-7.168-13.098-7.6016-21.152l45.457 11.359c-2.3438 6.4375-6.3125 11.816-11.496 15.113-1.9297 1.2227-3.2344 3.2148-3.6016 5.4688-0.36719 2.2656 0.25 4.5703 1.6875 6.3359zm39.777-96.559c0 15.648-8.832 29.191-20.535 31.52-2.2969 0.45703-4.2734 1.8867-5.418 3.9297-1.1445 2.0391-1.3359 4.4805-0.52734 6.6719 1.375 3.75 2.0547 7.6484 2.2812 11.582l-45.344-11.336c3.3828-9.2891 10.008-16.289 18.078-17.895 2.2969-0.45703 4.2734-1.8867 5.418-3.9297 1.1445-2.0391 1.3359-4.4805 0.52734-6.6719-1.6484-4.4805-2.4805-9.1523-2.4805-13.871 0-17.648 10.77-32 24-32 0.76953 0 1.5742 0.12109 2.4141 0.26562 3.707 12.277 11.441 22.238 21.312 27.535 0.16797 1.4727 0.27344 2.8555 0.27344 4.1992zm32 0c0-2.5039 0.29688-5.1289 0.92969-8.2383 0.57422-2.8398-0.43359-5.7852-2.6406-7.6719-1.4805-1.2578-3.3281-1.9219-5.1992-1.9219-0.9375 0-1.8828 0.16797-2.793 0.49609-2.4414 0.91016-4.4492 1.3359-6.2969 1.3359-13.23 0-24-14.352-24-32 0-2.5039 0.29688-5.1289 0.92969-8.2383 0.57422-2.8398-0.43359-5.7852-2.6406-7.6719-2.2188-1.8828-5.2734-2.4336-7.9922-1.4258-2.4414 0.91016-4.4492 1.3359-6.2969 1.3359-11.922 0-21.77-11.68-23.617-26.895l45.016-19.289c1.6094 4.2969 2.6016 9.0625 2.6016 14.184 0 2.5039-0.29688 5.1289-0.92969 8.2383-0.57422 2.8398 0.43359 5.7852 2.6406 7.6719 2.2109 1.8828 5.2734 2.4336 7.9922 1.4258 2.4414-0.91016 4.4492-1.3359 6.2969-1.3359 13.23 0 24 14.352 24 32 0 2.5039-0.29688 5.1289-0.92969 8.2383-0.57422 2.8398 0.43359 5.7852 2.6406 7.6719 2.2188 1.8906 5.2656 2.4414 7.9922 1.4258 2.4414-0.91016 4.4492-1.3359 6.2969-1.3359 13.23 0 24 14.352 24 32 0 4.7188-0.83203 9.3906-2.4883 13.871-0.80859 2.1914-0.61719 4.6328 0.52734 6.6719 1.1445 2.043 3.1289 3.4805 5.418 3.9297 8.0703 1.6055 14.695 8.6055 18.078 17.895l-45.344 11.336c0.23438-3.9336 0.90625-7.832 2.2812-11.582 0.80859-2.1914 0.61719-4.6328-0.52734-6.6719-1.1445-2.043-3.1289-3.4805-5.418-3.9297-11.695-2.3281-20.527-15.871-20.527-31.52zm72 240c-13.23 0-24-14.352-24-32 0-1.1133 0.13672-2.1758 0.25781-3.2578l0.11719-1.0703c0.21094-1.9688-0.32812-3.9453-1.4961-5.543-4.4297-6.0977-6.8789-13.961-6.8789-22.129 0-6.8633 1.6797-13.473 4.8711-19.098 1.8828-3.3281 1.1523-7.5195-1.75-10.016-6.9609-5.9844-11.121-16.031-11.121-26.887 0-8.9453 2.7617-17.266 7.7773-23.441 1.4375-1.7734 2.0469-4.0781 1.6875-6.3281-0.36719-2.2461-1.6719-4.2383-3.6016-5.4688-5.1836-3.3047-9.1523-8.6719-11.496-15.113l45.457-11.359c-0.43359 8.0547-3.0234 15.512-7.6016 21.152-1.4375 1.7734-2.0469 4.0781-1.6875 6.3281 0.36719 2.2461 1.6719 4.2383 3.6016 5.4688 8.5508 5.4414 13.863 16.457 13.863 28.762 0 6.8633-1.6797 13.473-4.8711 19.098-1.8828 3.3281-1.1523 7.5195 1.75 10.016 6.9609 5.9844 11.121 16.031 11.121 26.887 0 1.1133-0.13672 2.1758-0.25781 3.2578l-0.11719 1.0703c-0.21094 1.9688 0.32812 3.9453 1.4961 5.543 4.4297 6.0977 6.8789 13.961 6.8789 22.129 0 17.648-10.77 32-24 32z"/> <path d="m40 243.08c0-9.3008 1.3516-18.391 3.8945-27.078h40.219c2.5352 8.6875 3.8867 17.777 3.8867 27.078v12.922h16v-12.922c0-28.055-10.352-54.445-29.07-75.078 18.719-20.625 29.07-47.023 29.07-75.078v-12.922h-16v12.922c0 9.3008-1.3516 18.391-3.8945 27.078h-40.211c-2.543-8.6875-3.8945-17.777-3.8945-27.078v-12.922h-16v12.922c0 28.055 10.352 54.453 29.07 75.078-18.719 20.625-29.07 47.023-29.07 75.078v12.922h16zm10.246-43.078c3.6562-7.2578 8.2734-14.047 13.754-20.266 5.4805 6.2188 10.098 13.008 13.754 20.266zm27.508-64c-3.6562 7.2578-8.2734 14.047-13.754 20.266-5.4805-6.2188-10.098-13.008-13.754-20.266z"/> <path d="m456 252.92c0 9.3008-1.3516 18.391-3.8945 27.078h-40.219c-2.5352-8.6875-3.8867-17.777-3.8867-27.078v-12.922h-16v12.922c0 28.055 10.352 54.445 29.07 75.078-18.719 20.625-29.07 47.023-29.07 75.078v12.922h16v-12.922c0-9.3008 1.3516-18.391 3.8945-27.078h40.219c2.5352 8.6875 3.8867 17.777 3.8867 27.078v12.922h16v-12.922c0-28.055-10.352-54.445-29.07-75.078 18.719-20.625 29.07-47.023 29.07-75.078v-12.922h-16zm-10.246 43.078c-3.6562 7.2578-8.2656 14.047-13.754 20.266-5.4805-6.2188-10.098-13.008-13.754-20.266zm-27.508 64c3.6562-7.2578 8.2656-14.047 13.754-20.266 5.4805 6.2188 10.098 13.008 13.754 20.266z"/> <path d="m88 352c-3.6406 0-7.0898 0.74219-10.352 1.8633l-19.16-31.934c3.4727-5.1211 5.5117-11.289 5.5117-17.93 0-17.648-14.352-32-32-32s-32 14.352-32 32 14.352 32 32 32c5.1211 0 9.8945-1.3203 14.191-3.4648l18.105 30.168c-5.1055 5.6719-8.2969 13.09-8.2969 21.297 0 8.1289 3.1445 15.48 8.1523 21.129l-21.602 28.801c-3.3203-1.168-6.832-1.9297-10.551-1.9297-17.648 0-32 14.352-32 32s14.352 32 32 32 32-14.352 32-32c0-8.1289-3.1445-15.48-8.1523-21.129l21.602-28.801c3.3203 1.168 6.832 1.9297 10.551 1.9297 17.648 0 32-14.352 32-32s-14.352-32-32-32zm-72-48c0-8.8242 7.1758-16 16-16s16 7.1758 16 16-7.1758 16-16 16-16-7.1758-16-16zm16 176c-8.8242 0-16-7.1758-16-16s7.1758-16 16-16 16 7.1758 16 16-7.1758 16-16 16zm56-80c-8.8242 0-16-7.1758-16-16s7.1758-16 16-16 16 7.1758 16 16-7.1758 16-16 16z"/> <path d="m464 160c-3.7188 0-7.2305 0.76172-10.551 1.9297l-21.602-28.801c5.0078-5.6484 8.1523-13 8.1523-21.129 0-8.207-3.1914-15.625-8.2969-21.297l18.105-30.168c4.2969 2.1445 9.0703 3.4648 14.191 3.4648 17.648 0 32-14.352 32-32s-14.352-32-32-32-32 14.352-32 32c0 6.6406 2.0391 12.809 5.5117 17.93l-19.16 31.934c-3.2617-1.1211-6.7109-1.8633-10.352-1.8633-17.648 0-32 14.352-32 32s14.352 32 32 32c3.7188 0 7.2305-0.76172 10.551-1.9297l21.602 28.801c-5.0078 5.6484-8.1523 13-8.1523 21.129 0 17.648 14.352 32 32 32s32-14.352 32-32-14.352-32-32-32zm0-144c8.8242 0 16 7.1758 16 16s-7.1758 16-16 16-16-7.1758-16-16 7.1758-16 16-16zm-72 96c0-8.8242 7.1758-16 16-16s16 7.1758 16 16-7.1758 16-16 16-16-7.1758-16-16zm72 96c-8.8242 0-16-7.1758-16-16s7.1758-16 16-16 16 7.1758 16 16-7.1758 16-16 16z"/> </svg>
