---
d: 56
---
<?xml version="1.0" encoding="UTF-8"?><svg xmlns="http://www.w3.org/2000/svg" height="{{d}}" width="{{d}}" viewBox="0 0 496.944 496" width="512px"><path d="m496.945312 248.472656-8.945312-17.886718v-100.226563l8.945312-17.886719-8.945312-17.886718v-94.113282h-64v94.113282l-8.945312 17.886718 8.945312 17.886719v5.039063c-4.703125-8.390626-10.113281-16.328126-16.222656-23.734376-1.128906-23.25-11.746094-44.902343-29.730469-59.894531-14.925781-12.449219-33.855469-19.296875-53.285156-19.296875h-28.761719v12.757813c0 24.777343 10.921875 48.089843 29.953125 63.953125 14.925781 12.441406 33.855469 19.289062 53.285156 19.289062h21.417969c10.71875 14.671875 18.757812 31.296875 23.335938 49.160156v52.953126l-8.9375 17.886718 8.945312 17.886719v100.214844l-8.945312 17.898437 8.945312 17.886719v94.113281h64v-94.113281l8.945312-17.886719-8.945312-17.886718v-100.226563zm-160.753906-151.585937c-14.535156-12.117188-23.214844-29.613281-24.113281-48.414063h12.683594c15.695312 0 30.992187 5.535156 43.046875 15.582032 8.695312 7.25 15.238281 16.449218 19.335937 26.671874-7.71875-6.480468-16.015625-12.335937-24.921875-17.285156l-14.335937-7.960937-7.765625 13.984375 14.328125 7.960937c12.144531 6.742188 23.0625 15.269531 32.65625 25.046875h-7.859375c-15.703125 0-30.988282-5.535156-43.054688-15.585937zm138.863282 279.585937h-38.109376l3.054688-6.113281v-107.773437l-3.054688-6.113282h38.109376l-3.054688 6.113282v107.78125zm-38.109376-256h38.109376l-3.054688 6.113282v107.773437l3.054688 6.113281h-38.109376l3.054688-6.113281v-107.773437zm3.054688-104h32v81.886719l3.054688 6.113281h-38.109376l3.054688-6.113281zm32 464h-32v-81.886718l-3.054688-6.113282h38.109376l-3.054688 6.113282zm0 0" fill="#607d8b"/><path d="m400.945312 264.472656-8.945312-17.886718v-78.113282h-28l-28 37.335938v40.785156l-8.945312 17.878906 8.945312 17.886719v84.214844l-8.945312 17.898437 8.945312 17.886719v94.113281h56v-94.113281l8.945312-17.886719-8.945312-17.886718v-84.226563zm-21.890624 112h-30.109376l3.054688-6.113281v-91.773437l-3.054688-6.113282h30.109376l-3.054688 6.113282v91.78125zm-27.054688-165.335937 20-26.664063h4v65.886719l3.054688 6.113281h-30.109376l3.054688-6.113281zm24 269.335937h-24v-81.886718l-3.054688-6.113282h30.109376l-3.054688 6.113282zm0 0" fill="#607d8b"/><path d="m237.953125 211.769531c-19.03125 15.863281-29.953125 39.167969-29.953125 63.941407v2.625l-6.34375 4.9375-9.65625 19.3125v-36.21875l8.945312-17.894532-8.945312-17.886718v-100.226563l8.945312-17.886719-8.945312-17.886718v-94.113282h-64v94.113282l-8.945312 17.886718 8.945312 17.886719v20.226563l-9.65625-19.3125-6.34375-4.9375v-5.863282h-.175781c-.914063-23.550781-11.578125-45.542968-29.777344-60.703125-14.925781-12.449219-33.855469-19.296875-53.285156-19.296875h-28.761719v12.757813c0 24.777343 10.921875 48.089843 29.953125 63.953125 5.4375 4.535156 11.421875 8.304687 17.757813 11.296875-6.335938 2.992187-12.320313 6.757812-17.757813 11.296875-19.03125 15.855468-29.953125 39.160156-29.953125 63.933594v12.761718h28.761719c19.429687 0 38.359375-6.847656 53.285156-19.296875 14.496094-12.078125 24.242187-28.480469 28.089844-46.550781l17.863281 35.734375v44.226563l-8.945312 17.886718 8.945312 17.886719v100.214844l-8.945312 17.898437 8.945312 17.886719v5.03125c-4.703125-8.390625-10.113281-16.328125-16.222656-23.734375-1.128906-23.25-11.746094-44.902344-29.730469-59.894531-14.925781-12.441407-33.855469-19.289063-53.285156-19.289063h-28.761719v12.757813c0 24.785156 10.921875 48.089843 29.953125 63.953125 14.925781 12.441406 33.855469 19.289062 53.285156 19.289062h21.417969c10.71875 14.671875 18.769531 31.296875 23.335938 49.160156v46.839844h64v-94.113281l8.953124-17.886719-8.945312-17.886718v-28.21875l22.34375-44.6875 6.6875-5.207032h15.730469c3.773437 0 7.527343-.335937 11.238281-.847656v38.949219l-8.945312 17.898437 8.945312 17.886719v44.214844l-8.945312 17.898437 8.945312 17.886719v54.113281h56v-54.113281l8.945312-17.886719-8.945312-17.886718v-44.21875l8.945312-17.894532-8.945312-17.886718v-72.410157c10.265625-14.085937 16-31.113281 16-48.945312v-12.757813h-28.761719c-19.429687 0-38.359375 6.847656-53.285156 19.296875zm-221.875-155.296875h12.683594c15.695312 0 30.992187 5.535156 43.046875 15.582032 12.664062 10.554687 20.863281 25.183593 23.367187 41.203124l-50.265625-39.105468-9.820312 12.640625 43.015625 33.453125c-13.875-1.0625-27.175781-6.40625-37.914063-15.359375-14.535156-12.117188-23.214844-29.613281-24.113281-48.414063zm55.730469 128.414063c-12.066406 10.050781-27.351563 15.585937-43.046875 15.585937h-12.683594c.898437-18.800781 9.578125-36.296875 24.121094-48.417968 11.695312-9.742188 26.433593-15.199219 41.632812-15.519532l-30.953125 25.792969 10.242188 12.289063 33.414062-27.847657c-3.023437 14.789063-10.886718 28.253907-22.726562 38.117188zm-31.617188 184c-14.535156-12.117188-23.214844-29.613281-24.113281-48.414063h12.683594c15.695312 0 30.992187 5.527344 43.046875 15.582032 8.695312 7.25 15.238281 16.441406 19.335937 26.664062-7.71875-6.480469-16.007812-12.335938-24.921875-17.277344l-14.335937-7.960937-7.765625 13.984375 14.328125 7.960937c12.144531 6.742188 23.0625 15.269531 32.65625 25.046875h-7.859375c-15.703125 0-30.988282-5.527344-43.054688-15.585937zm100.753906-112.414063h38.109376l-3.054688 6.113282v107.78125l3.054688 6.105468h-38.109376l3.054688-6.113281v-107.773437zm0-136h38.109376l-3.054688 6.113282v107.773437l3.054688 6.113281h-38.109376l3.054688-6.113281v-107.773437zm3.054688-104h32v81.886719l3.054688 6.113281h-38.109376l3.054688-6.113281zm32 464h-32v-81.886718l-3.054688-6.113282h38.109376l-3.054688 6.113282zm112-209.730468v59.625l3.054688 6.105468h-30.109376l3.054688-6.113281v-46.527344c8.625-2.984375 16.734375-7.417969 24-13.089843zm3.054688 145.730468h-30.109376l3.054688-6.113281v-51.785156l-3.054688-6.101563h30.109376l-3.054688 6.113282v51.78125zm-3.054688 64h-24v-41.886718l-3.054688-6.113282h30.109376l-3.054688 6.113282zm-8.191406-223.585937c-10.738282 8.953125-24.039063 14.289062-37.914063 15.359375l43.015625-33.453125-9.820312-12.632813-50.265625 39.097656c2.503906-16.011718 10.710937-30.640624 23.367187-41.195312 12.066406-10.054688 27.351563-15.589844 43.046875-15.589844h12.683594c-.898437 18.800782-9.578125 36.296875-24.113281 48.414063zm0 0" fill="#607d8b"/></svg>
