---
d: 56
---
<?xml version="1.0" encoding="UTF-8"?><svg height="{{d}}" width="{{d}}" viewBox="0 0 496 496" width="496pt" xmlns="http://www.w3.org/2000/svg" fill="#607D8B"><path d="m496 248c0-28.945312-26.855469-54.769531-70.886719-73.449219 11.054688-27.246093 15.605469-51.765625 12.6875-71.261719 6.238281-5.839843 10.199219-14.089843 10.199219-23.289062 0-17.648438-14.351562-32-32-32-9.222656 0-17.480469 3.976562-23.320312 10.238281-19.558594-2.949219-44.0625 1.671875-71.207032 12.714844-18.679687-44.074219-44.511718-70.953125-73.472656-70.953125-28.289062 0-54.183594 25.105469-73.449219 70.863281-27.246093-11.0625-51.765625-15.617187-71.261719-12.664062-5.839843-6.238281-14.089843-10.199219-23.289062-10.199219-17.648438 0-32 14.351562-32 32 0 9.222656 3.976562 17.480469 10.238281 23.328125-2.925781 19.550781 1.707031 44.054687 12.738281 71.191406-44.089843 18.679688-70.976562 44.511719-70.976562 73.480469 0 29.089844 26.414062 55.03125 70.871094 73.753906-10.960938 27.023438-15.542969 51.429688-12.632813 70.917969-6.261719 5.847656-10.238281 14.105469-10.238281 23.328125 0 17.648438 14.351562 32 32 32 9.191406 0 17.433594-3.953125 23.273438-10.175781 3.894531.582031 7.917968.984375 12.214843.984375 16.925781 0 36.871094-4.570313 58.847657-13.480469 18.703124 44.335937 44.617187 70.671875 73.664062 70.671875 28.953125 0 54.785156-26.878906 73.472656-70.945312 21.847656 8.890624 42.0625 13.738281 59.3125 13.738281 4.183594 0 8.125-.394531 11.949219-.96875 5.832031 6.222656 14.074219 10.175781 23.265625 10.175781 17.648438 0 32-14.351562 32-32 0-9.175781-3.9375-17.40625-10.144531-23.246094 2.898437-19.355468-1.632813-43.914062-12.726563-71.304687 45.757813-19.265625 70.871094-45.160157 70.871094-73.449219zm-80-184c8.824219 0 16 7.175781 16 16s-7.175781 16-16 16-16-7.175781-16-16 7.175781-16 16-16zm-31.273438 9.304688c-.460937 2.160156-.726562 4.398437-.726562 6.695312 0 17.648438 14.351562 32 32 32 2.28125 0 4.488281-.257812 6.632812-.710938.960938 15.894532-3.394531 35.605469-12.359374 57.496094-19.554688-7.015625-41.792969-12.761718-66.121094-16.945312-4.175782-24.328125-9.929688-46.566406-16.945313-66.121094 21.808594-8.957031 41.535157-13.390625 57.519531-12.414062zm-32.949218 190.605468c.132812-5.261718.222656-10.550781.222656-15.910156 0-27.9375-1.871094-54.632812-5.289062-79.496094 21.21875 3.894532 40.328124 8.96875 57.03125 14.894532-12.207032 25.425781-29.910157 53.042968-51.964844 80.511718zm-15.777344-15.910156c0 62.679688-9.304688 116.023438-23.398438 155.726562-40.035156-19.277343-85.378906-52.046874-126.832031-93.496093-20.167969-20.175781-38.210937-41.269531-53.730469-62.230469 15.519532-20.960938 33.5625-42.054688 53.730469-62.222656 8.644531-8.640625 17.46875-16.867188 26.375-24.714844 11.574219-.6875 23.527344-1.0625 35.855469-1.0625 29.648438 0 57.199219 2.089844 82.222656 5.769531 3.6875 25.03125 5.777344 52.582031 5.777344 82.230469zm-190.503906 42.425781c.894531 12.757813 2.167968 25.101563 3.777344 37-20.9375-3.824219-40.152344-8.800781-57.066407-14.691406 7.855469-16.328125 17.992188-33.542969 30.023438-51.023437 7.25 9.59375 15.007812 19.183593 23.265625 28.714843zm17.800781 19.550781c3.671875 3.871094 7.34375 7.734376 11.167969 11.558594 3.808594 3.808594 7.65625 7.503906 11.519531 11.167969-6.839844-.734375-13.550781-1.589844-20.121094-2.558594-.976562-6.585937-1.832031-13.304687-2.566406-20.167969zm-41.058594-75.679687c-12.007812-17.441406-22.117187-34.601563-29.964843-50.898437 25.886718-9.191407 57.550781-16.351563 93.855468-20.207032-3.90625 3.703125-7.816406 7.417969-11.671875 11.273438-19.472656 19.472656-36.984375 39.671875-52.21875 59.832031zm168.175781-88.816406c-9.527343-8.273438-19.101562-16.023438-28.660156-23.265625 17.421875-11.992188 34.574219-22.09375 50.855469-29.933594 5.925781 16.695312 11 35.796875 14.886719 57.007812-11.960938-1.640624-24.335938-2.921874-37.082032-3.808593zm-26.503906-1.257813c-5.261718-.132812-10.550781-.222656-15.910156-.222656-5.320312 0-10.585938.089844-15.816406.222656 5.296875-4.238281 10.59375-8.300781 15.886718-12.222656 5.28125 3.902344 10.5625 7.984375 15.839844 12.222656zm-15.910156-128.222656c20.792969 0 42.289062 22.359375 58.839844 61.40625-18.886719 8.953125-38.710938 20.648438-58.777344 34.792969-20.160156-14.222657-40.015625-25.941407-58.878906-34.871094 16.390625-39.070313 37.625-61.328125 58.816406-61.328125zm-168 48c8.824219 0 16 7.175781 16 16s-7.175781 16-16 16-16-7.175781-16-16 7.175781-16 16-16zm-6.695312 47.273438c2.160156.460937 4.398437.726562 6.695312.726562 17.648438 0 32-14.351562 32-32 0-2.273438-.257812-4.488281-.710938-6.632812 30.734376-1.839844 75.839844 16.34375 123.054688 48.816406-9.601562 7.257812-19.214844 15.03125-28.75 23.296875-45.648438 3.175781-86.683594 11.390625-119.882812 23.3125-8.957032-21.808594-13.390626-41.535157-12.40625-57.519531zm-57.304688 136.726562c0-20.800781 22.367188-42.296875 61.433594-58.847656 8.949218 18.910156 20.671875 38.757812 34.832031 58.855468-14.210937 20.167969-25.960937 40.089844-34.929687 59.054688-38.128907-15.847656-61.335938-36.765625-61.335938-59.0625zm64 184c-8.824219 0-16-7.175781-16-16s7.175781-16 16-16 16 7.175781 16 16-7.175781 16-16 16zm31.289062-9.367188c.453126-2.144531.710938-4.359374.710938-6.632812 0-17.648438-14.351562-32-32-32-2.296875 0-4.535156.265625-6.695312.726562-.984376-15.925781 3.40625-35.566406 12.304687-57.277343 19.453125 6.917969 41.695313 12.589843 66.207031 16.742187 4.144532 24.503906 9.816406 46.738282 16.734375 66.191406-22.214843 9.042969-41.695312 13.210938-57.261719 12.25zm136.710938 57.367188c-34.105469 0-64.992188-54.289062-79.414062-133.273438 11.910156 1.617188 24.277343 2.890626 37.070312 3.785157 34.0625 29.511719 69.015625 52.824219 101.191406 68.0625-16.550781 39.058593-38.054687 61.425781-58.847656 61.425781zm168-48c-8.824219 0-16-7.175781-16-16s7.175781-16 16-16 16 7.175781 16 16-7.175781 16-16 16zm0-48c-17.648438 0-32 14.351562-32 32 0 2.304688.273438 4.535156.734375 6.703125-15.980469.984375-35.710937-3.445313-57.527344-12.414063 11.921875-33.199218 20.136719-74.234374 23.3125-119.875 8.3125-9.574218 16.097657-19.199218 23.359375-28.796874 32.609375 47.367187 50.480469 92.726562 48.730469 123.09375-2.136719-.453126-4.335937-.710938-6.609375-.710938zm2.703125-77.191406c-8.878906-18.800782-20.589844-38.640625-34.855469-58.832032 14.191406-20.128906 25.886719-39.953124 34.800782-58.792968 39.007812 16.542968 61.351562 38.03125 61.351562 58.816406 0 21.191406-22.246094 42.414062-61.296875 58.808594zm0 0"/><path d="m200 248c0 26.472656 21.527344 48 48 48s48-21.527344 48-48-21.527344-48-48-48-48 21.527344-48 48zm80 0c0 17.648438-14.351562 32-32 32s-32-14.351562-32-32 14.351562-32 32-32 32 14.351562 32 32zm0 0"/></svg>
