---
d: 56
---
<?xml version="1.0" encoding="UTF-8"?><svg height="{{d}}" width="{{d}}" viewBox="0 0 496 496" width="496pt" xmlns="http://www.w3.org/2000/svg" fill="#607D8B"><path d="m248 352c-57.34375 0-104-46.65625-104-104s46.65625-104 104-104c48.519531 0 88-39.480469 88-88v-56h-16v32h-144v-32h-16v56c0 34.449219 19.945312 64.246094 48.839844 78.695312-6.28125 2.175782-12.367188 4.753907-18.128906 7.898438-29.253907-19.355469-46.710938-51.304688-46.710938-86.59375v-56h-16v56c0 2.6875.089844 5.351562.265625 8h-33.738281c-3.3125-9.289062-12.113282-16-22.527344-16-13.230469 0-24 10.769531-24 24s10.769531 24 24 24c10.414062 0 19.214844-6.710938 22.527344-16h35.863281c5.777344 28.800781 21.914063 54.3125 45.800781 72.089844-29.191406 21.910156-48.191406 56.6875-48.191406 95.910156 0 14.039062 2.550781 27.464844 7 40h-72.136719c-3.574219-13.769531-16-24-30.863281-24-17.648438 0-32 14.351562-32 32s14.351562 32 32 32c14.863281 0 27.289062-10.230469 30.863281-24h79.082031c8.335938 15.71875 20.09375 29.296875 34.230469 39.910156-30.34375 22.59375-48.175781 57.675782-48.175781 96.089844v56h16v-56c0-35.289062 17.457031-67.238281 46.710938-86.585938 5.761718 3.144532 11.847656 5.722657 18.128906 7.898438-28.894532 14.441406-48.839844 44.238281-48.839844 78.6875v56h16v-32h144v32h16v-56c0-48.519531-39.480469-88-88-88zm-59.824219-256c-3.304687-4.929688-5.953125-10.3125-7.976562-16h135.601562c-2.015625 5.6875-4.664062 11.070312-7.976562 16zm131.824219-48v8c0 2.703125-.175781 5.367188-.472656 8h-143.054688c-.296875-2.632812-.472656-5.296875-.472656-8v-8zm-117.152344 64h90.304688c-12.359375 9.984375-28.0625 16-45.152344 16s-32.792969-6.015625-45.152344-16zm-130.847656-32c-4.40625 0-8-3.59375-8-8s3.59375-8 8-8 8 3.59375 8 8-3.59375 8-8 8zm-40 232c-8.824219 0-16-7.175781-16-16s7.175781-16 16-16 16 7.175781 16 16-7.175781 16-16 16zm275.824219 88c3.304687 4.929688 5.953125 10.3125 7.976562 16h-135.601562c2.015625-5.6875 4.664062-11.070312 7.976562-16zm-14.671875-16h-90.304688c12.359375-9.984375 28.0625-16 45.152344-16s32.792969 6.015625 45.152344 16zm-117.152344 64v-8c0-2.703125.175781-5.367188.472656-8h143.054688c.296875 2.632812.472656 5.296875.472656 8v8zm0 0"/><path d="m464 168c-14.863281 0-27.289062 10.238281-30.863281 24h-78.921875c-8.199219-15.566406-19.855469-29.265625-34.398438-40.089844 29.183594-21.910156 48.183594-56.6875 48.183594-95.910156v-56h-16v56c0 57.34375-46.65625 104-104 104-48.519531 0-88 39.480469-88 88s39.480469 88 88 88c57.34375 0 104 46.65625 104 104v56h16v-56c0-2.703125-.230469-5.34375-.40625-8h33.878906c3.3125 9.289062 12.113282 16 22.527344 16 13.230469 0 24-10.769531 24-24s-10.769531-24-24-24c-10.414062 0-19.214844 6.710938-22.527344 16h-35.898437c-5.964844-29.273438-22.695313-54.59375-45.765625-71.910156 30.359375-22.59375 48.191406-57.675782 48.191406-96.089844 0-13.921875-2.375-27.382812-6.800781-40h71.9375c3.574219 13.761719 16 24 30.863281 24 17.648438 0 32-14.351562 32-32s-14.351562-32-32-32zm-40 248c4.40625 0 8 3.585938 8 8s-3.59375 8-8 8-8-3.585938-8-8 3.59375-8 8-8zm-116.175781-128h-119.648438c-6.273437-9.351562-10.398437-20.257812-11.703125-32h143.054688c-1.304688 11.742188-5.421875 22.648438-11.703125 32zm-131.351563-48c1.304688-11.742188 5.421875-22.648438 11.703125-32h119.648438c6.273437 9.351562 10.398437 20.257812 11.703125 32zm26.375-48c12.359375-9.984375 28.0625-16 45.152344-16s32.792969 6.015625 45.152344 16zm0 112h90.3125c-12.359375 9.984375-28.0625 16-45.152344 16-17.085937 0-32.800781-6.015625-45.160156-16zm102.441406 30.585938c-5.761718-3.144532-11.847656-5.722657-18.128906-7.898438 28.894532-14.441406 48.839844-44.238281 48.839844-78.6875s-19.945312-64.246094-48.839844-78.695312c6.28125-2.175782 12.367188-4.753907 18.128906-7.898438 29.246094 19.355469 46.710938 51.304688 46.710938 86.59375s-17.457031 67.238281-46.710938 86.585938zm158.710938-118.585938c-8.824219 0-16-7.175781-16-16s7.175781-16 16-16 16 7.175781 16 16-7.175781 16-16 16zm0 0"/></svg>
