---
---
<?xml version="1.0" encoding="UTF-8"?><svg width="100%" height="100%" viewBox="0 0 512 512" xmlns="http://www.w3.org/2000/svg" fill="#607D8B"><path d="m480.4375 0h-448.875c-17.402344 0-31.5625 14.160156-31.5625 31.5625v320.625c0 17.402344 14.160156 31.5625 31.5625 31.5625h56.609375v120.734375c0 4.152344 3.363281 7.515625 7.515625 7.515625 4.148438 0 7.515625-3.363281 7.515625-7.515625v-216.921875h17.03125v216.921875c0 4.152344 3.363281 7.515625 7.515625 7.515625 4.148438 0 7.515625-3.363281 7.515625-7.515625v-120.734375h57.109375v83.585938l-35.355469 14.140624c-2.851562 1.140626-4.722656 3.902344-4.722656 6.976563v16.03125c0 4.148437 3.363281 7.515625 7.515625 7.515625h192.375c4.152344 0 7.515625-3.367188 7.515625-7.515625v-16.03125c0-3.074219-1.871094-5.835937-4.726563-6.976563l-35.351562-14.140624v-83.585938h160.8125c17.402344 0 31.5625-14.160156 31.5625-31.5625v-320.625c0-17.402344-14.160156-31.5625-31.5625-31.5625zm-448.875 15.03125h448.875c9.117188 0 16.53125 7.414062 16.53125 16.53125v24.546875h-481.9375v-24.546875c0-9.117188 7.414062-16.53125 16.53125-16.53125zm0 353.6875c-9.117188 0-16.53125-7.414062-16.53125-16.53125v-24.546875h73.140625v41.078125zm67.238281-96.1875-35.675781-35.675781v-37.464844h97.1875v37.464844l-35.675781 35.675781zm-19.144531-113.21875c4.148438 0 7.515625-3.367188 7.515625-7.515625v-16.53125h17.03125v16.53125c0 4.148437 3.363281 7.515625 7.515625 7.515625 4.148438 0 7.515625-3.367188 7.515625-7.515625v-16.53125h17.03125v16.53125c0 4.148437 3.363281 7.515625 7.515625 7.515625 4.148438 0 7.515625-3.367188 7.515625-7.515625v-16.53125h9.015625v49.09375h-97.1875v-49.09375h9.015625v16.53125c0 4.148437 3.363281 7.515625 7.515625 7.515625zm265.015625 337.65625h-177.34375v-3.425781l34.007813-13.605469h109.324218l34.011719 13.605469zm-40.078125-32.0625h-97.1875v-81.15625h97.1875zm175.84375-96.1875h-345.171875v-41.078125h277.539063c4.152343 0 7.515624-3.367187 7.515624-7.515625s-3.363281-7.515625-7.515624-7.515625h-277.539063v-29.449219l37.875-37.875c1.394531-1.398437 2.203125-3.339844 2.203125-5.316406v-112.21875c0-4.148438-3.367188-7.515625-7.515625-7.515625h-112.21875c-4.152344 0-7.515625 3.367187-7.515625 7.515625v112.21875c0 1.976562.804688 3.917969 2.203125 5.316406l37.875 37.875v29.449219h-73.140625v-241.46875h481.9375v241.46875h-48.09375c-4.148438 0-7.511719 3.367187-7.511719 7.515625s3.363281 7.515625 7.511719 7.515625h48.09375v24.546875c0 9.117188-7.414062 16.53125-16.53125 16.53125zm0 0"/><path d="m272.03125 344.671875h-32.0625c-4.148438 0-7.515625 3.367187-7.515625 7.515625 0 4.152344 3.367187 7.515625 7.515625 7.515625h32.0625c4.152344 0 7.515625-3.363281 7.515625-7.515625 0-4.148438-3.363281-7.515625-7.515625-7.515625zm0 0"/><path d="m247.984375 39.078125h16.03125c4.152344 0 7.515625-3.367187 7.515625-7.515625 0-4.152344-3.363281-7.515625-7.515625-7.515625h-16.03125c-4.148437 0-7.515625 3.363281-7.515625 7.515625 0 4.148438 3.367188 7.515625 7.515625 7.515625zm0 0"/><path d="m288.0625 39.078125h8.015625c4.152344 0 7.515625-3.367187 7.515625-7.515625 0-4.152344-3.363281-7.515625-7.515625-7.515625h-8.015625c-4.152344 0-7.515625 3.363281-7.515625 7.515625 0 4.148438 3.363281 7.515625 7.515625 7.515625zm0 0"/><path d="m215.921875 39.078125h8.015625c4.148438 0 7.515625-3.367187 7.515625-7.515625 0-4.152344-3.367187-7.515625-7.515625-7.515625h-8.015625c-4.148437 0-7.515625 3.363281-7.515625 7.515625 0 4.148438 3.367188 7.515625 7.515625 7.515625zm0 0"/><path d="m215.921875 168.328125c-4.148437 0-7.515625 3.363281-7.515625 7.515625 0 4.148438 3.367188 7.515625 7.515625 7.515625 4.695313 0 8.515625 3.820313 8.515625 8.515625 0 4.148438 3.367188 7.515625 7.515625 7.515625s7.515625-3.367187 7.515625-7.515625c0-12.984375-10.5625-23.546875-23.546875-23.546875zm0 0"/><path d="m215.921875 128.25c-4.148437 0-7.515625 3.363281-7.515625 7.515625 0 4.148437 3.367188 7.515625 7.515625 7.515625 26.796875 0 48.59375 21.796875 48.59375 48.59375 0 4.148438 3.363281 7.515625 7.515625 7.515625s7.515625-3.367187 7.515625-7.515625c0-35.082031-28.542969-63.625-63.625-63.625zm0 0"/><path d="m215.921875 88.171875c-4.148437 0-7.515625 3.363281-7.515625 7.515625 0 4.148438 3.367188 7.515625 7.515625 7.515625 48.894531 0 88.671875 39.777344 88.671875 88.671875 0 4.148438 3.363281 7.515625 7.515625 7.515625s7.515625-3.367187 7.515625-7.515625c0-57.183594-46.523438-103.703125-103.703125-103.703125zm0 0"/></svg>
