---
---
<?xml version="1.0" encoding="UTF-8"?><svg width="100%" height="100%" version="1.1" id="Capa_1" xmlns="http://www.w3.org/2000/svg" xmlns:xlink="http://www.w3.org/1999/xlink" x="0px" y="0px" 	 viewBox="0 0 496.8 496.8" style="enable-background:new 0 0 496.8 496.8;" xml:space="preserve"  fill="#607D8B"> <g> 	<g> 		<path d="M72,400.266c-17.6,0-32,14.4-32,32c0,17.6,14.4,32,32,32s32-14.4,32-32C104,414.666,89.6,400.266,72,400.266z M72,448.266 			c-8.8,0-16-7.2-16-16s7.2-16,16-16s16,7.2,16,16S80.8,448.266,72,448.266z"/> 	</g> </g> <g> 	<g> 		<path d="M152,416.266c-13.6,0-24,10.4-24,24c0,13.6,10.4,24,24,24c13.6,0,24-10.4,24-24C176,426.666,165.6,416.266,152,416.266z 			 M152,448.266c-4.8,0-8-3.2-8-8s3.2-8,8-8s8,3.2,8,8S156.8,448.266,152,448.266z"/> 	</g> </g> <g> 	<g> 		<path d="M200,368.266c-13.6,0-24,10.4-24,24c0,13.6,10.4,24,24,24c13.6,0,24-10.4,24-24C224,378.666,213.6,368.266,200,368.266z 			 M200,400.266c-4.8,0-8-3.2-8-8s3.2-8,8-8s8,3.2,8,8S204.8,400.266,200,400.266z"/> 	</g> </g> <g> 	<g> 		<rect x="80" y="368.266" width="16" height="16"/> 	</g> </g> <g> 	<g> 		<rect x="112" y="368.266" width="16" height="16"/> 	</g> </g> <g> 	<g> 		<rect x="240" y="448.266" width="16" height="16"/> 	</g> </g> <g> 	<g> 		<rect x="208" y="448.266" width="16" height="16"/> 	</g> </g> <g> 	<g> 		<path d="M457.6,384.266c-8-18.4-23.2-32.8-41.6-41.6v-54.4h16v-16h-96v16h16v54.4c-40.8,17.6-59.2,64.8-41.6,105.6 			c17.6,40.8,64.8,59.2,105.6,41.6C456.8,472.266,475.2,425.066,457.6,384.266z M368,288.266h32v16h-32V288.266z M362.4,356.266 			c3.2-0.8,5.6-4,5.6-7.2v-28.8h32v28c0,3.2,2.4,6.4,5.6,7.2c20,7.2,35.2,24,40.8,44c-6.4,0-12,2.4-16,7.2l-6.4,6.4 			c-1.6,1.6-3.2,2.4-5.6,2.4H416c-2.4,0-4-0.8-5.6-2.4l-6.4-6.4c-6.4-4-12-6.4-18.4-6.4h-2.4c-6.4,0-12.8,2.4-16.8,7.2l-6.4,6.4 			c-1.6,1.6-3.2,2.4-5.6,2.4H352c-2.4,0-4-0.8-5.6-2.4l-6.4-6.4c-4-4-10.4-6.4-16-7.2C327.2,379.466,342.4,363.466,362.4,356.266z 			 M384,480.266c-35.2,0-64-28.8-64-64h1.6c2.4,0,4,0.8,5.6,2.4l6.4,6.4c4.8,4.8,10.4,7.2,16.8,7.2h2.4c6.4,0,12.8-2.4,16.8-7.2 			l6.4-6.4c1.6-1.6,3.2-2.4,5.6-2.4h2.4c2.4,0,4,0.8,5.6,2.4l6.4,6.4c4.8,4.8,10.4,7.2,16.8,7.2h2.4c6.4,0,12.8-2.4,16.8-7.2 			l6.4-6.4c1.6-1.6,3.2-2.4,5.6-2.4h4C448,451.466,419.2,480.266,384,480.266z"/> 	</g> </g> <g> 	<g> 		<rect x="360" y="448.266" width="16" height="16"/> 	</g> </g> <g> 	<g> 		<rect x="392" y="448.266" width="16" height="16"/> 	</g> </g> <g> 	<g> 		<path d="M380.8,56.266H420l21.6,36c1.6,2.4,4,4,7.2,4h48v-16h-43.2l-19.2-32l21.6-36l-13.6-8l-23.2,36H380l-21.6-36 			c-0.8-2.4-3.2-4-6.4-4h-48v16h43.2l19.2,32l-9.6,16l-9.6,16H308l-21.6-36c-0.8-2.4-3.2-4-6.4-4h-48c-3.2,0-5.6,1.6-7.2,4l-21.6,36 			H160c-3.2,0-5.6,1.6-7.2,4l-24,40c-0.8,0.8-0.8,2.4-0.8,4h-24c-13.6,0-24,10.4-24,24c0,10.4,6.4,19.2,16,22.4v87.2l-91.2,167.2 			c-3.2,6.4-4.8,12.8-4.8,19.2v8c0,22.4,17.6,40,40,40h208c22.4,0,40-17.6,40-40v-8c0-6.4-1.6-13.6-4.8-19.2l-91.2-167.2v-87.2 			c12.8-4.8,19.2-18.4,14.4-30.4c-3.2-9.6-12.8-16-22.4-16h-38.4l19.2-32H204l21.6,36l13.6-8l-21.6-36l19.2-32H276l9.6,16l9.6,16 			l-21.6,36c-1.6,2.4-1.6,5.6,0,8l21.6,36l-21.6,36l13.6,8l21.6-36H348l9.6,16l9.6,16l-19.2,32h-44v16h48c3.2,0,5.6-1.6,7.2-4 			l21.6-36H420l20.8,34.4v5.6h16v-8c0-1.6,0-3.2-0.8-4l-22.4-36l19.2-32H496v-16h-43.2l-21.6-36c-1.6-2.4-4-4-7.2-4h-43.2l-9.6-16 			l-9.6-16l9.6-16L380.8,56.266z M265.6,437.066c5.6,3.2,6.4,7.2,6.4,11.2v8c0,13.6-10.4,24-24,24H40c-13.6,0-24-10.4-24-24v-8 			c0-4,0.8-8,3.2-11.2l54.4-100.8h7.2c2.4,0,4,0.8,5.6,2.4l6.4,6.4c4.8,4.8,10.4,7.2,16.8,7.2h2.4c6.4,0,12.8-2.4,16.8-7.2l6.4-6.4 			c1.6-1.6,3.2-2.4,5.6-2.4h2.4c2.4,0,4,0.8,5.6,2.4l6.4,6.4c4.8,4.8,10.4,7.2,16.8,7.2h2.4c6.4,0,12.8-2.4,16.8-7.2l6.4-6.4 			c1.6-1.6,3.2-2.4,5.6-2.4h7.2L265.6,437.066z M205.6,320.266c-5.6,0-12,2.4-16,7.2l-6.4,6.4c-1.6,1.6-3.2,2.4-5.6,2.4h-2.4 			c-2.4,0-4-0.8-5.6-2.4l-6.4-6.4c-5.6-4.8-11.2-7.2-17.6-7.2h-2.4c-6.4,0-12.8,2.4-16.8,7.2l-6.4,6.4c-1.6,1.6-3.2,2.4-5.6,2.4H112 			c-2.4,0-4-0.8-5.6-2.4l-6.4-6.4c-4-4-9.6-6.4-16-7.2l28.8-52c-0.8-1.6-0.8-2.4-0.8-4v-72h64v72c0,1.6,0,2.4,0.8,4L205.6,320.266z 			 M184,144.266c4.8,0,8,3.2,8,8s-3.2,8-8,8s-8,3.2-8,8v8h-64v-8c0-4.8-3.2-8-8-8s-8-3.2-8-8s3.2-8,8-8H184z M380,136.266h39.2 			l19.2,32l-19.2,32H380l-9.6-16l-9.6-16l9.6-16L380,136.266z M367.2,128.266l-9.6,16l-9.6,16h-39.2l-19.2-32l9.6-16l9.6-16H348 			l9.6,16L367.2,128.266z"/> 	</g> </g> <g> 	<g> 		<path d="M104,64.266c-13.6,0-24,10.4-24,24s10.4,24,24,24s24-10.4,24-24S117.6,64.266,104,64.266z M104,96.266c-4.8,0-8-3.2-8-8 			s3.2-8,8-8s8,3.2,8,8S108.8,96.266,104,96.266z"/> 	</g> </g> <g> 	<g> 		<path d="M160,0.266c-17.6,0-32,14.4-32,32s14.4,32,32,32c17.6,0,32-14.4,32-32S177.6,0.266,160,0.266z M160,48.266 			c-8.8,0-16-7.2-16-16s7.2-16,16-16s16,7.2,16,16S168.8,48.266,160,48.266z"/> 	</g> </g> <g> 	<g> 		<path d="M40,0.266c-22.4,0-40,17.6-40,40s17.6,40,40,40s40-17.6,40-40S62.4,0.266,40,0.266z M40,64.266c-13.6,0-24-10.4-24-24 			s10.4-24,24-24s24,10.4,24,24S53.6,64.266,40,64.266z"/> 	</g> </g> <g> </g> <g> </g> <g> </g> <g> </g> <g> </g> <g> </g> <g> </g> <g> </g> <g> </g> <g> </g> <g> </g> <g> </g> <g> </g> <g> </g> <g> </g> </svg> 
