---
d: 56
---
<?xml version="1.0" encoding="UTF-8"?><svg xmlns="http://www.w3.org/2000/svg" height="{{d}}" width="{{d}}" viewBox="0 0 512 512" width="512px"><path d="m145.066406 384h-25.601562c-4.710938 0-8.53125 3.820312-8.53125 8.53125 0 4.714844 3.820312 8.535156 8.53125 8.535156h25.601562c4.714844 0 8.535156-3.820312 8.535156-8.535156 0-4.710938-3.820312-8.53125-8.535156-8.53125zm0 0" fill="#607d8b"/><path d="m375.464844 298.664062c4.714844 0 8.535156-3.820312 8.535156-8.53125 0-4.714843-3.820312-8.535156-8.535156-8.535156h-17.917969c-4.039063-19.886718-21.523437-34.175781-41.8125-34.175781-20.292969 0-37.777344 14.289063-41.8125 34.175781h-26.457031c-4.710938 0-8.53125 3.820313-8.53125 8.535156 0 4.710938 3.820312 8.53125 8.53125 8.53125h26.457031c4.035156 19.886719 21.519531 34.175782 41.8125 34.175782 20.289063 0 37.773437-14.289063 41.8125-34.175782zm-59.730469 17.066407c-14.140625 0-25.601563-11.460938-25.601563-25.597657 0-14.140624 11.460938-25.601562 25.601563-25.601562 14.136719 0 25.597656 11.460938 25.597656 25.601562 0 14.136719-11.460937 25.597657-25.597656 25.597657zm0 0" fill="#607d8b"/><path d="m503.464844 512c4.714844 0 8.535156-3.824219 8.535156-8.535156 0-4.714844-3.820312-8.535156-8.535156-8.535156h-42.664063v-133l18.585938-18.585938c5.320312-5.367188 6.503906-13.585938 2.917969-20.238281l-46.207032-84.703125c-1.914062-3.507813-4.621094-6.515625-7.902344-8.789063l-103.253906-71.46875c-1.066406-.734375-2.1875-1.390625-3.355468-1.960937-2.03125-2.078125-4.988282-2.957032-7.824219-2.328125-1.128907-.160157-2.269531-.246094-3.414063-.257813h-108.390625c-5.535156.007813-10.921875 1.804688-15.359375 5.121094l-95.179687 71.378906c-.988281.789063-1.921875 1.644532-2.789063 2.5625-.179687.167969-.359375.304688-.523437.484375-1.238281 1.304688-2.335938 2.734375-3.277344 4.269531l-47.066406 78.445313c-3.019531 4.996094-3.257813 11.195313-.632813 16.410156l12.613282 25.273438c2.886718 5.78125 8.804687 9.417969 15.265624 9.386719h11.792969v128h-25.601562c-4.710938 0-8.53125 3.820312-8.53125 8.535156 0 4.710937 3.820312 8.535156 8.53125 8.535156zm-317.25-162.136719 10.90625-17.066406h50.34375c4.714844 0 8.535156-3.820313 8.535156-8.53125 0-4.714844-3.820312-8.535156-8.535156-8.535156h-39.53125l27.84375-43.75c.601562-.945313 1.382812-1.765625 2.300781-2.40625l77.65625-54.355469 77.3125 54.117188c1.027344.71875 1.882813 1.65625 2.507813 2.746093l24.949218 43.648438h-36.503906c-4.710938 0-8.535156 3.820312-8.535156 8.535156 0 4.710937 3.824218 8.53125 8.535156 8.53125h42.667969c1.015625-.015625 2.015625-.21875 2.960937-.597656l8.832032 17.664062zm232.261718-106.222656c1.09375.761719 1.996094 1.765625 2.636719 2.9375l46.207031 84.699219-12.722656 12.714844-11.992187-23.992188-32.230469-56.40625c-1.875-3.285156-4.453125-6.109375-7.550781-8.277344l-77.304688-54.109375c-5.875-4.113281-13.691406-4.113281-19.566406 0l-77.652344 54.355469c-2.765625 1.929688-5.121093 4.386719-6.929687 7.226562l-51.277344 80.589844-14.503906-19.320312 54.425781-77.738282c.582031-.832031 1.304687-1.558593 2.140625-2.140624l103.578125-71.664063zm-221.636718-71.269531c1.476562-1.105469 3.273437-1.703125 5.117187-1.707032h86.46875l-85.980469 59.519532c-.089843.066406-.175781.140625-.257812.214844h-82.722656zm-98.144532 75.09375h89.710938l-47.785156 68.265625h-82.882813zm-42.222656 85.332031h84.308594l12.820312 17.066406h-88.59375zm37.394532 102.402344h51.199218c4.714844 0 8.535156-3.820313 8.535156-8.535157 0-4.710937-3.820312-8.53125-8.535156-8.53125h-51.199218v-51.203124h76.800781v93.867187h-51.203125c-4.710938 0-8.53125 3.820313-8.53125 8.535156 0 4.710938 3.820312 8.53125 8.53125 8.53125h51.203125v17.066407h-76.800781zm93.867187-34.132813h34.132813c4.710937 0 8.53125-3.820312 8.53125-8.535156 0-4.710938-3.820313-8.53125-8.53125-8.53125h-34.132813v-17.070312h256v17.070312h-34.132813c-4.714843 0-8.535156 3.820312-8.535156 8.53125 0 4.714844 3.820313 8.535156 8.535156 8.535156h34.132813v93.863282h-59.734375v-17.066407h34.132812c4.714844 0 8.535157-3.820312 8.535157-8.53125 0-4.714843-3.820313-8.535156-8.535157-8.535156h-34.132812v-25.597656h34.132812c4.714844 0 8.535157-3.820313 8.535157-8.535157 0-4.710937-3.820313-8.53125-8.535157-8.53125h-34.984374c-4.085938-19.855468-21.546876-34.109374-41.816407-34.132812h-51.199219c-20.265624.023438-37.730468 14.277344-41.8125 34.132812h-34.988281c-4.710937 0-8.53125 3.820313-8.53125 8.53125 0 4.714844 3.820313 8.535157 8.53125 8.535157h34.132813v25.597656h-34.132813c-4.710937 0-8.53125 3.820313-8.53125 8.535156 0 4.710938 3.820313 8.53125 8.53125 8.53125h34.132813v17.066407h-59.730469zm76.800781 25.597656c0-14.136718 11.460938-25.597656 25.597656-25.597656h17.066407v93.863282h-42.664063zm59.730469 68.265626v-93.863282h17.066406c14.140625 0 25.601563 11.460938 25.601563 25.597656v68.265626zm0 0" fill="#607d8b"/><path d="m8.535156 512h8.53125c4.714844 0 8.535156-3.824219 8.535156-8.535156 0-4.714844-3.820312-8.535156-8.535156-8.535156h-8.53125c-4.714844 0-8.535156 3.820312-8.535156 8.535156 0 4.710937 3.820312 8.535156 8.535156 8.535156zm0 0" fill="#607d8b"/><path d="m25.601562 145.066406h93.863282c14.140625 0 25.601562-11.464844 25.601562-25.601562 0-4.714844 3.820313-8.535156 8.535156-8.535156h68.265626c7.023437-.007813 13.730468-2.921876 18.535156-8.046876 16.132812 15.472657 39.570312 20.613282 60.699218 13.316407 21.128907-7.296875 36.398438-25.804688 39.550782-47.933594h43.347656c4.710938 0 8.535156 3.820313 8.535156 8.53125 0 4.714844-3.824218 8.535156-8.535156 8.535156h-25.601562c-14.136719 0-25.597657 11.460938-25.597657 25.597657 0 14.140624 11.460938 25.601562 25.597657 25.601562h128c14.140624 0 25.601562-11.460938 25.601562-25.601562 0-14.136719-11.460938-25.597657-25.601562-25.597657h-8.53125c-4.714844 0-8.535157-3.820312-8.535157-8.535156 0-4.710937 3.820313-8.53125 8.535157-8.53125h8.53125c14.140624 0 25.601562-11.460937 25.601562-25.601563 0-14.136718-11.460938-25.597656-25.601562-25.597656h-163.191407c-17.148437-16.832031-42.722656-21.71875-64.867187-12.394531-22.148438 9.324219-36.527344 31.03125-36.472656 55.058594h-128c-14.140626 0-25.601563 11.460937-25.601563 25.601562 0 4.710938-3.820313 8.53125-8.53125 8.53125h-34.132813c-14.140624 0-25.601562 11.464844-25.601562 25.601563 0 14.136718 11.460938 25.601562 25.601562 25.601562zm469.332032-102.402344c0 4.714844-3.820313 8.535157-8.535156 8.535157h-8.53125c-14.140626 0-25.601563 11.460937-25.601563 25.597656 0 14.140625 11.460937 25.601563 25.601563 25.601563h8.53125c4.714843 0 8.535156 3.820312 8.535156 8.53125 0 4.714843-3.820313 8.535156-8.535156 8.535156h-128c-4.710938 0-8.53125-3.820313-8.53125-8.535156 0-4.710938 3.820312-8.53125 8.53125-8.53125h25.601562c14.136719 0 25.601562-11.460938 25.601562-25.601563 0-14.136719-11.464843-25.597656-25.601562-25.597656h-76.800781c-4.710938 0-8.53125-3.820313-8.53125-8.535157 0-4.710937 3.820312-8.53125 8.53125-8.53125h179.199219c4.714843 0 8.535156 3.820313 8.535156 8.53125zm-256 17.066407c-.042969-13.914063 6.730468-26.972657 18.125-34.957031 11.398437-7.984376 25.980468-9.890626 39.046875-5.097657-10.78125 5.148438-16.554688 17.085938-13.894531 28.734375 2.660156 11.648438 13.039062 19.898438 24.988281 19.855469h16.214843c-3.339843 16.488281-16.074218 29.460937-32.496093 33.105469-16.425781 3.644531-33.453125-2.726563-43.453125-16.253906-.050782-6.863282-2.875-13.417969-7.832032-18.167969-.445312-2.378907-.679687-4.796875-.699218-7.21875zm-213.332032 51.199219h34.132813c14.136719 0 25.597656-11.460938 25.597656-25.597657 0-4.714843 3.820313-8.535156 8.535157-8.535156h128c4.710937 0 8.53125 3.820313 8.53125 8.535156 0 4.710938-3.820313 8.53125-8.53125 8.53125h-68.265626c-14.140624 0-25.601562 11.464844-25.601562 25.601563 0 4.710937-3.820312 8.535156-8.535156 8.535156h-93.863282c-4.714843 0-8.535156-3.824219-8.535156-8.535156 0-4.714844 3.820313-8.535156 8.535156-8.535156zm0 0" fill="#607d8b"/></svg>
