---
---
<?xml version="1.0" encoding="UTF-8"?><svg width="100%" height="100%" xmlns="http://www.w3.org/2000/svg" xmlns:xlink="http://www.w3.org/1999/xlink" version="1.1" id="Capa_1" x="0px" y="0px" viewBox="0 0 480.001 480.001" style="enable-background:new 0 0 480.001 480.001;" xml:space="preserve" width="512px" height="512px"> <g> <g> <path d="M79.395,380.994c16.097-15.13,16.882-40.444,1.752-56.541S40.703,307.57,24.606,322.7    c-16.097,15.13-16.882,40.444-1.752,56.541c0.566,0.602,1.15,1.186,1.752,1.752C11.955,387.831,4.051,401.034,4,415.414V464    c-0.003,4.416,3.575,7.997,7.991,8c0.003,0,0.006,0,0.009,0h80c4.416,0.003,7.997-3.575,8-7.991c0-0.003,0-0.006,0-0.009v-48.586    C99.95,401.034,92.046,387.831,79.395,380.994z M52,328c13.255,0,24,10.745,24,24s-10.745,24-24,24s-24-10.745-24-24    C28.015,338.751,38.751,328.014,52,328z M84,456H20v-40.586c0.012-12.926,10.488-23.402,23.414-23.414h17.172    c12.926,0.012,23.402,10.488,23.414,23.414V456z" fill="#607d8b"/> </g> </g> <g> <g> <path d="M236,48c-22.091,0-40,17.909-40,40s17.909,40,40,40c22.081-0.026,39.974-17.919,40-40C276,65.909,258.092,48,236,48z     M236,112c-13.255,0-24-10.745-24-24s10.745-24,24-24s24,10.745,24,24C259.986,101.249,249.249,111.986,236,112z" fill="#607d8b"/> </g> </g> <g> <g> <rect x="228" width="16" height="32" fill="#607d8b"/> </g> </g> <g> <g> <rect x="228" y="144" width="16" height="32" fill="#607d8b"/> </g> </g> <g> <g> <rect x="148" y="80" width="32" height="16" fill="#607d8b"/> </g> </g> <g> <g> <rect x="292" y="80" width="32" height="16" fill="#607d8b"/> </g> </g> <g> <g> <rect x="271.912" y="27.671" transform="matrix(0.7071 -0.7071 0.7071 0.7071 59.238 214.3546)" width="32.912" height="16" fill="#607d8b"/> </g> </g> <g> <g> <rect x="167.184" y="132.371" transform="matrix(0.7071 -0.7071 0.7071 0.7071 -45.4705 170.9668)" width="32.912" height="16" fill="#607d8b"/> </g> </g> <g> <g> <rect x="175.634" y="19.178" transform="matrix(0.7071 -0.7071 0.7071 0.7071 28.5883 140.2854)" width="16" height="32.912" fill="#607d8b"/> </g> </g> <g> <g> <rect x="280.363" y="123.891" transform="matrix(0.7071 -0.7071 0.7071 0.7071 -14.7833 245.0114)" width="16" height="32.92" fill="#607d8b"/> </g> </g> <g> <g> <path d="M396,384.213v-58.735c8.228,2.459,16.75,3.796,25.336,3.975c26.297,0.171,47.77-20.977,48-47.273    c-0.005-2.771-0.264-5.535-0.773-8.258c4.84-7.243,7.428-15.757,7.437-24.469c-0.796-24.394-19.586-44.402-43.883-46.727    c-12.729-24.365-42.8-33.798-67.166-21.069c-9.009,4.707-16.362,12.059-21.069,21.069c-24.297,2.325-43.086,22.332-43.883,46.727    c0.01,8.712,2.598,17.225,7.438,24.469c-0.51,2.723-0.769,5.487-0.773,8.258c0.23,26.297,21.703,47.445,48,47.273    c8.586-0.179,17.108-1.516,25.336-3.974v58.687c-50.245,1.68-80,19.272-80,47.834c0,26.914,38.656,48,88,48s88-21.086,88-48    C476,406.562,441.452,386.355,396,384.213z M354.664,313.453c-17.464,0.179-31.778-13.81-32-31.273    c0.016-2.682,0.384-5.351,1.094-7.938c0.656-2.434,0.123-5.036-1.438-7.016c-4.056-5.039-6.284-11.304-6.32-17.773    c1.063-17.795,15.997-31.571,33.82-31.195c3.39-0.124,6.332-2.372,7.344-5.609c7.014-17.03,26.506-25.15,43.537-18.135    c8.221,3.386,14.749,9.914,18.135,18.135c1.012,3.237,3.954,5.485,7.344,5.609c17.823-0.375,32.757,13.4,33.82,31.195    c-0.036,6.469-2.264,12.734-6.32,17.773c-1.561,1.98-2.094,4.582-1.438,7.016c0.71,2.587,1.077,5.255,1.094,7.938    c-0.222,17.463-14.536,31.452-32,31.273c-8.667-0.226-17.233-1.915-25.336-4.995v-16.462l28.797-21.598l-9.594-12.797L396,272.001    V248h-16v24.001l-19.203-14.399l-9.594,12.797L380,291.996v16.462C371.897,311.539,363.331,313.227,354.664,313.453z M388,464    c-42.43,0-72-16.867-72-32c0-23.594,37.195-32,72-32c42.43,0,72,16.867,72,32S430.43,464,388,464z" fill="#607d8b"/> </g> </g> <g> <g> <path d="M84,254.672c-5.682-7.94-14.343-13.235-24-14.672l-0.008,16c5.214,2.001,9.672,5.582,12.75,10.242    c4.487,6.217,13.164,7.619,19.381,3.132c1.202-0.868,2.258-1.923,3.126-3.124c3.079-4.661,7.537-8.244,12.75-10.25v-16    C98.343,241.437,89.682,246.732,84,254.672z" fill="#607d8b"/> </g> </g> <g> <g> <path d="M148,254.672c-5.682-7.94-14.343-13.235-24-14.672l-0.008,16c5.214,2.001,9.672,5.582,12.75,10.242    c4.487,6.217,13.164,7.619,19.381,3.132c1.202-0.868,2.258-1.923,3.126-3.124c3.079-4.661,7.536-8.244,12.75-10.25v-16    C162.343,241.437,153.682,246.732,148,254.672z" fill="#607d8b"/> </g> </g> <g> <g> <rect x="396" y="424" width="32" height="16" fill="#607d8b"/> </g> </g> <g> <g> <rect x="340" y="416" width="32" height="16" fill="#607d8b"/> </g> </g> <g> <g> <path d="M120.485,112.906l-8.969-13.25C54.275,138.334,19.982,202.916,20,272c0.002,8.337,0.495,16.666,1.477,24.945l15.891-1.891    C36.458,287.403,36.002,279.705,36,272C35.986,208.227,67.644,148.611,120.485,112.906z" fill="#607d8b"/> </g> </g> <g> <g> <path d="M281.766,456.375c-17.471,5.073-35.573,7.64-53.766,7.625c-35.215,0.028-69.758-9.646-99.836-27.961l-8.328,13.656    c49.931,30.328,110.294,38.323,166.398,22.039L281.766,456.375z" fill="#607d8b"/> </g> </g> <g> <g> <path d="M344.485,96.211l-8.969,13.25c21.44,14.484,39.729,33.155,53.766,54.891l13.437-8.703    C387.513,132.113,367.705,111.895,344.485,96.211z" fill="#607d8b"/> </g> </g> <g> <g> <path d="M116,302.672c-5.682-7.94-14.343-13.235-24-14.672l-0.008,16c5.214,2.001,9.672,5.582,12.75,10.242    c4.487,6.217,13.164,7.619,19.381,3.132c1.202-0.868,2.258-1.923,3.126-3.124l0,0c3.079-4.661,7.536-8.244,12.75-10.25v-16    C130.343,289.437,121.682,294.732,116,302.672z" fill="#607d8b"/> </g> </g> <g> </g> <g> </g> <g> </g> <g> </g> <g> </g> <g> </g> <g> </g> <g> </g> <g> </g> <g> </g> <g> </g> <g> </g> <g> </g> <g> </g> <g> </g> </svg>
