---
---
<?xml version="1.0" encoding="UTF-8"?><svg width="100%" height="100%" version="1.1" id="Capa_1" xmlns="http://www.w3.org/2000/svg" xmlns:xlink="http://www.w3.org/1999/xlink" x="0px" y="0px" fill="#607D8B"	 viewBox="0 0 512 512" style="enable-background:new 0 0 512 512;" xml:space="preserve"> <g> 	<g> 		<path d="M256,232.296c-5.243,0-9.482,4.248-9.482,9.482v170.667c0,5.234,4.238,9.481,9.482,9.481c5.243,0,9.482-4.248,9.482-9.481 			V241.778C265.482,236.544,261.243,232.296,256,232.296z"/> 	</g> </g> <g> 	<g> 		<path d="M407.704,298.667h-18.963v-18.963c0-5.234-4.238-9.481-9.481-9.481h-37.926c-5.243,0-9.481,4.248-9.481,9.481v18.963 			h-18.963c-5.243,0-9.482,4.248-9.482,9.481v37.926c0,5.234,4.238,9.481,9.482,9.481h18.963v18.963 			c0,5.234,4.238,9.482,9.481,9.482h37.926c5.243,0,9.481-4.248,9.481-9.482v-18.963h18.963c5.243,0,9.481-4.248,9.481-9.481 			v-37.926C417.185,302.914,412.947,298.667,407.704,298.667z M398.222,336.593h-18.963c-5.243,0-9.482,4.248-9.482,9.482v18.963 			h-18.963v-18.963c0-5.234-4.238-9.482-9.482-9.482H322.37V317.63h18.963c5.243,0,9.482-4.248,9.482-9.482v-18.963h18.963v18.963 			c0,5.234,4.238,9.482,9.482,9.482h18.963V336.593z"/> 	</g> </g> <g> 	<g> 		<path d="M199.111,298.667h-94.815c-5.243,0-9.482,4.248-9.482,9.481v37.926c0,5.234,4.238,9.481,9.482,9.481h94.815 			c5.243,0,9.482-4.248,9.482-9.481v-37.926C208.593,302.914,204.354,298.667,199.111,298.667z M189.63,336.593h-75.852V317.63 			h75.852V336.593z"/> 	</g> </g> <g> 	<g> 		<path d="M502.518,137.481h-37.926v-28.444V80.593c0-15.682-12.762-28.444-28.444-28.444h-9.481 			c-15.682,0-28.444,12.762-28.444,28.444v28.444v28.444H113.778v-28.444V80.593c0-15.682-12.762-28.444-28.444-28.444h-9.481 			c-15.682,0-28.444,12.762-28.444,28.444v28.444v28.444H9.482c-5.243,0-9.482,4.248-9.482,9.482v56.889 			c0,5.234,4.238,9.481,9.482,9.481h28.444v221.696l-13.72,6.865c-3.214,1.602-5.243,4.883-5.243,8.476v37.926 			c0,5.234,4.238,9.482,9.482,9.482h455.111c5.243,0,9.482-4.248,9.482-9.482V450.37c0-3.594-2.029-6.874-5.243-8.486l-13.72-6.855 			V213.333h28.444c5.243,0,9.482-4.248,9.482-9.481v-56.889C512,141.729,507.762,137.481,502.518,137.481z M417.185,80.593 			c0-5.224,4.248-9.482,9.482-9.482h9.481c5.234,0,9.482,4.257,9.482,9.482v18.963h-28.444V80.593z M417.185,118.518h28.444v18.963 			h-28.444V118.518z M66.37,80.593c0-5.224,4.248-9.482,9.482-9.482h9.481c5.234,0,9.482,4.257,9.482,9.482v18.963H66.37V80.593z 			 M66.37,118.518h28.444v18.963H66.37V118.518z M474.074,478.815H37.926V456.23l13.72-6.865c3.214-1.602,5.243-4.883,5.243-8.477 			V213.333h398.222v227.556c0,3.594,2.029,6.874,5.243,8.486l13.72,6.855V478.815z M493.037,194.37h-28.444H47.407H18.963v-37.926 			h37.926h47.407h303.407h47.407h37.926V194.37z"/> 	</g> </g> <g> 	<g> 		<path d="M369.778,71.111h-80.261L273.37,46.886c-2.01-3.006-5.518-4.617-9.15-4.143c-3.594,0.484-6.59,2.958-7.727,6.4 			l-9.975,29.914l-19.456-58.349c-1.289-3.878-4.902-6.485-8.988-6.485c-4.087,0-7.708,2.607-8.988,6.485l-16.811,50.404h-50.053 			c-5.243,0-9.482,4.248-9.482,9.482s4.238,9.481,9.482,9.481h56.889c4.087,0,7.699-2.607,8.988-6.485l9.975-29.905l19.456,58.349 			c1.28,3.878,4.902,6.485,8.988,6.485c4.087,0,7.699-2.607,8.988-6.485l12.838-38.504l8.211,12.316 			c1.764,2.645,4.722,4.229,7.889,4.229h85.333c5.243,0,9.482-4.248,9.482-9.481S375.021,71.111,369.778,71.111z"/> 	</g> </g> <g> 	<g> 		<rect x="75.852" y="440.889" width="18.963" height="18.963"/> 	</g> </g> <g> 	<g> 		<polygon points="417.185,421.926 417.185,440.889 113.778,440.889 113.778,459.852 436.148,459.852 436.148,421.926 		"/> 	</g> </g> <g> </g> <g> </g> <g> </g> <g> </g> <g> </g> <g> </g> <g> </g> <g> </g> <g> </g> <g> </g> <g> </g> <g> </g> <g> </g> <g> </g> <g> </g> </svg> 
