---
d: 56
---
<?xml version="1.0" encoding="UTF-8"?> <svg width="{{d}}" height="{{d}}" version="1.1" id="Capa_1" xmlns="http://www.w3.org/2000/svg" xmlns:xlink="http://www.w3.org/1999/xlink" x="0px" y="0px" viewBox="0 0 496 496" style="enable-background:new 0 0 496 496;" xml:space="preserve"  fill="#607D8B"> <g> <g> <path d="M472.378,0h-448c-13.6,0-24,10.4-24,24v272c0,13.6,10.4,24,24,24h112v16h-16c-4.8,0-8,3.2-8,8v32c0,4.8,3.2,8,8,8h1.6 l6.4,33.6c0,0.8,0.8,2.4,0.8,3.2l30.4,45.6V488c0,4.8,3.2,8,8,8h88c4.8,0,8-3.2,8-8v-21.6l30.4-45.6c0.8-1.6,1.6-3.2,1.6-4.8v-32 h80c4.8,0,8-3.2,8-8v-32c0-4.8-3.2-8-8-8h-56v-16h152c13.6,0,24-10.4,24-24V24C496.378,10.4,485.978,0,472.378,0z M128.378,366.4 V352h12.8l1.6,4.8L128.378,366.4z M160.378,208c-13.6,0-24,10.4-24,24v4c-42.4-13.6-65.6-58.4-52-100c13.6-41.6,58.4-65.6,100-52 c41.6,13.6,65.6,58.4,52,100c-8,24.8-27.2,44.8-52,52v-4C184.378,218.4,173.978,208,160.378,208z M249.978,459.2 c-0.8,1.6-1.6,3.2-1.6,4.8v16h-72v-16c0-1.6-0.8-3.2-1.6-4.8l-31.2-46.4l-6.4-32.8l11.2-7.2l4.8,14.4l15.2-4.8l-16-46.4V232 c0-4.8,3.2-8,8-8s8,3.2,8,8v88c0,4.8,3.2,8,8,8c2.4,0,4.8-1.6,6.4-3.2l13.6-20.8h7.2l13.6,20.8c1.6,2.4,4,3.2,6.4,3.2h12 l13.6,20.8c1.6,2.4,4,3.2,6.4,3.2h12l12,18.4v43.2h0.8L249.978,459.2z M368.378,352v16h-72c0-1.6-0.8-3.2-1.6-4.8l-8-11.2H368.378 z M480.378,296c0,4.8-3.2,8-8,8h-208v16h40v16h-44l-13.6-20.8c-1.6-1.6-4-3.2-6.4-3.2h-12l-13.6-20.8c-1.6-1.6-4-3.2-6.4-3.2h-16 c-2.4,0-4.8,1.6-6.4,3.2l-1.6,2.4v-40.8c51.2-13.6,82.4-65.6,68.8-116.8c-12.8-51.2-65.6-82.4-116.8-68.8 c-51.2,13.6-82.4,65.6-68.8,116.8c8.8,33.6,35.2,60,68.8,68.8V272h-88V48h400v224h-216v16h224c4.8,0,8-3.2,8-8V40c0-4.8-3.2-8-8-8 h-416c-4.8,0-8,3.2-8,8v240c0,4.8,3.2,8,8,8h96v16h-112c-4.8,0-8-3.2-8-8V24c0-4.8,3.2-8,8-8h448c4.8,0,8,3.2,8,8V296z"/> </g> </g> <g> <g> <path d="M211.578,152.8l-80-40c-4-1.6-8.8,0-10.4,3.2c-0.8,1.6-0.8,2.4-0.8,4v80c0,4.8,3.2,8,8,8c1.6,0,2.4,0,3.2-0.8l80-40 c3.2-1.6,4.8-4,4.8-7.2S214.778,154.4,211.578,152.8z M136.378,187.2v-54.4l54.4,27.2L136.378,187.2z"/> </g> </g> <g> <g> <path d="M400.378,64h-80c-17.6,0-32,14.4-32,32v37.6l-22.4,29.6c-2.4,3.2-1.6,8.8,1.6,11.2c1.6,0.8,3.2,1.6,4.8,1.6h128 c17.6,0,32-14.4,32-32V96C432.378,78.4,417.978,64,400.378,64z M416.378,144c0,8.8-7.2,16-16,16h-112l14.4-19.2 c0.8-1.6,1.6-3.2,1.6-4.8V96c0-8.8,7.2-16,16-16h80c8.8,0,16,7.2,16,16V144z"/> </g> </g> <g> <g> <rect x="320.378" y="96" width="80" height="16"/> </g> </g> <g> <g> <rect x="320.378" y="128" width="48" height="16"/> </g> </g> <g> </g> <g> </g> <g> </g> <g> </g> <g> </g> <g> </g> <g> </g> <g> </g> <g> </g> <g> </g> <g> </g> <g> </g> <g> </g> <g> </g> <g> </g> </svg>
