---
---
<?xml version="1.0" encoding="UTF-8"?><svg xmlns="http://www.w3.org/2000/svg" width="100%" height="100%" xmlns:xlink="http://www.w3.org/1999/xlink" version="1.1" id="Capa_1" x="0px" y="0px" viewBox="0 0 512 512" style="enable-background:new 0 0 512 512;" xml:space="preserve" width="512px" height="512px"> <g> <g> <path d="M381.175,78.985l-85.333-76.8c-2.509-2.244-6.11-2.816-9.182-1.451c-3.081,1.374-5.06,4.429-5.06,7.799v76.8    c0,4.71,3.823,8.533,8.533,8.533h85.333c3.533,0,6.699-2.176,7.97-5.478C384.7,85.086,383.804,81.348,381.175,78.985z     M298.667,76.8V27.691L353.229,76.8H298.667z" fill="#607d8b"/> </g> </g> <g> <g> <path d="M358.4,238.933c-75.29,0-136.533,61.252-136.533,136.533S283.11,512,358.4,512s136.533-61.252,136.533-136.533    S433.69,238.933,358.4,238.933z M358.4,494.933c-65.877,0-119.467-53.589-119.467-119.467S292.523,256,358.4,256    s119.467,53.589,119.467,119.467S424.277,494.933,358.4,494.933z" fill="#607d8b"/> </g> </g> <g> <g> <path d="M285.133,375.467l28.1-28.1c3.336-3.337,3.336-8.73,0-12.066c-3.328-3.337-8.738-3.337-12.066,0l-34.133,34.133    c-3.337,3.337-3.337,8.73,0,12.066l34.133,34.133c1.664,1.664,3.849,2.5,6.033,2.5c2.185,0,4.369-0.836,6.033-2.5    c3.336-3.337,3.336-8.73,0-12.066L285.133,375.467z" fill="#607d8b"/> </g> </g> <g> <g> <path d="M449.766,369.434L415.633,335.3c-3.328-3.337-8.738-3.337-12.066,0c-3.337,3.337-3.337,8.73,0,12.066l28.1,28.1    l-28.1,28.1c-3.337,3.337-3.337,8.73,0,12.066c1.664,1.664,3.849,2.5,6.033,2.5c2.185,0,4.369-0.836,6.033-2.5l34.133-34.133    C453.103,378.163,453.103,372.77,449.766,369.434z" fill="#607d8b"/> </g> </g> <g> <g> <path d="M377.975,307.567c-4.506-1.391-9.284,1.143-10.667,5.649l-34.133,110.933c-1.382,4.506,1.143,9.284,5.649,10.667    c0.836,0.256,1.681,0.384,2.509,0.384c3.652,0,7.023-2.355,8.158-6.033l34.133-110.933    C385.007,313.728,382.481,308.949,377.975,307.567z" fill="#607d8b"/> </g> </g> <g> <g> <path d="M264.533,136.533H204.8c-4.71,0-8.533,3.823-8.533,8.533c0,4.71,3.823,8.533,8.533,8.533h59.733    c4.71,0,8.533-3.823,8.533-8.533C273.067,140.356,269.244,136.533,264.533,136.533z" fill="#607d8b"/> </g> </g> <g> <g> <path d="M170.667,136.533h-102.4c-4.71,0-8.533,3.823-8.533,8.533c0,4.71,3.823,8.533,8.533,8.533h102.4    c4.71,0,8.533-3.823,8.533-8.533C179.2,140.356,175.377,136.533,170.667,136.533z" fill="#607d8b"/> </g> </g> <g> <g> <path d="M290.133,221.867H230.4c-4.71,0-8.533,3.823-8.533,8.533s3.823,8.533,8.533,8.533h59.733c4.71,0,8.533-3.823,8.533-8.533    S294.844,221.867,290.133,221.867z" fill="#607d8b"/> </g> </g> <g> <g> <path d="M196.267,221.867h-128c-4.71,0-8.533,3.823-8.533,8.533s3.823,8.533,8.533,8.533h128c4.71,0,8.533-3.823,8.533-8.533    S200.977,221.867,196.267,221.867z" fill="#607d8b"/> </g> </g> <g> <g> <path d="M315.733,136.533h-17.067c-4.71,0-8.533,3.823-8.533,8.533c0,4.71,3.823,8.533,8.533,8.533h17.067    c4.71,0,8.533-3.823,8.533-8.533C324.267,140.356,320.444,136.533,315.733,136.533z" fill="#607d8b"/> </g> </g> <g> <g> <path d="M187.733,179.2H128c-4.71,0-8.533,3.823-8.533,8.533s3.823,8.533,8.533,8.533h59.733c4.71,0,8.533-3.823,8.533-8.533    S192.444,179.2,187.733,179.2z" fill="#607d8b"/> </g> </g> <g> <g> <path d="M315.733,179.2h-93.867c-4.71,0-8.533,3.823-8.533,8.533s3.823,8.533,8.533,8.533h93.867c4.71,0,8.533-3.823,8.533-8.533    S320.444,179.2,315.733,179.2z" fill="#607d8b"/> </g> </g> <g> <g> <path d="M128,93.867H68.267c-4.71,0-8.533,3.823-8.533,8.533c0,4.71,3.823,8.533,8.533,8.533H128c4.71,0,8.533-3.823,8.533-8.533    C136.533,97.69,132.71,93.867,128,93.867z" fill="#607d8b"/> </g> </g> <g> <g> <path d="M256,93.867h-93.867c-4.71,0-8.533,3.823-8.533,8.533c0,4.71,3.823,8.533,8.533,8.533H256c4.71,0,8.533-3.823,8.533-8.533    C264.533,97.69,260.71,93.867,256,93.867z" fill="#607d8b"/> </g> </g> <g> <g> <path d="M204.8,307.2H68.267c-4.71,0-8.533,3.823-8.533,8.533s3.823,8.533,8.533,8.533H204.8c4.71,0,8.533-3.823,8.533-8.533    S209.51,307.2,204.8,307.2z" fill="#607d8b"/> </g> </g> <g> <g> <path d="M128,264.533H68.267c-4.71,0-8.533,3.823-8.533,8.533c0,4.71,3.823,8.533,8.533,8.533H128c4.71,0,8.533-3.823,8.533-8.533    C136.533,268.356,132.71,264.533,128,264.533z" fill="#607d8b"/> </g> </g> <g> <g> <path d="M213.333,264.533h-51.2c-4.71,0-8.533,3.823-8.533,8.533c0,4.71,3.823,8.533,8.533,8.533h51.2    c4.71,0,8.533-3.823,8.533-8.533C221.867,268.356,218.044,264.533,213.333,264.533z" fill="#607d8b"/> </g> </g> <g> <g> <path d="M170.667,392.533h-102.4c-4.71,0-8.533,3.823-8.533,8.533s3.823,8.533,8.533,8.533h102.4c4.71,0,8.533-3.823,8.533-8.533    S175.377,392.533,170.667,392.533z" fill="#607d8b"/> </g> </g> <g> <g> <path d="M128,349.867H68.267c-4.71,0-8.533,3.823-8.533,8.533s3.823,8.533,8.533,8.533H128c4.71,0,8.533-3.823,8.533-8.533    S132.71,349.867,128,349.867z" fill="#607d8b"/> </g> </g> <g> <g> <path d="M196.267,349.867h-34.133c-4.71,0-8.533,3.823-8.533,8.533s3.823,8.533,8.533,8.533h34.133    c4.71,0,8.533-3.823,8.533-8.533S200.977,349.867,196.267,349.867z" fill="#607d8b"/> </g> </g> <g> <g> <path d="M93.867,179.2h-25.6c-4.71,0-8.533,3.823-8.533,8.533s3.823,8.533,8.533,8.533h25.6c4.71,0,8.533-3.823,8.533-8.533    S98.577,179.2,93.867,179.2z" fill="#607d8b"/> </g> </g> <g> <g> <path d="M230.4,51.2H128c-4.71,0-8.533,3.823-8.533,8.533s3.823,8.533,8.533,8.533h102.4c4.71,0,8.533-3.823,8.533-8.533    S235.11,51.2,230.4,51.2z" fill="#607d8b"/> </g> </g> <g> <g> <path d="M93.867,51.2h-25.6c-4.71,0-8.533,3.823-8.533,8.533s3.823,8.533,8.533,8.533h25.6c4.71,0,8.533-3.823,8.533-8.533    S98.577,51.2,93.867,51.2z" fill="#607d8b"/> </g> </g> <g> <g> <path d="M358.4,494.933c-30.046,0-58.82-11.315-81.024-31.863c-1.579-1.459-3.644-2.27-5.794-2.27H59.733    c-4.71,0-8.533,3.823-8.533,8.533v34.133c0,4.71,3.823,8.533,8.533,8.533H358.4c4.71,0,8.533-3.823,8.533-8.533    S363.11,494.933,358.4,494.933z M68.267,494.933v-17.067h200.03c7.492,6.596,15.599,12.305,24.166,17.067H68.267z" fill="#607d8b"/> </g> </g> <g> <g> <path d="M418.133,34.133h-86.281c-3.61,0-6.827,2.27-8.047,5.666c-1.212,3.396-0.154,7.185,2.637,9.472l49.024,40.107v160.657    c0,4.062,2.859,7.561,6.835,8.363c10.991,2.236,21.709,6.084,31.838,11.443c1.254,0.657,2.628,0.99,3.994,0.99    c1.527,0,3.046-0.41,4.403-1.229c2.56-1.536,4.13-4.309,4.13-7.305V42.667C426.667,37.956,422.844,34.133,418.133,34.133z     M409.6,248.909c-5.581-2.27-11.281-4.156-17.067-5.658V85.333c0-2.551-1.152-4.975-3.132-6.596L355.755,51.2H409.6V248.909z" fill="#607d8b"/> </g> </g> <g> <g> <path d="M389.402,78.729l-93.867-76.8C294.016,0.683,292.105,0,290.133,0H25.6c-4.71,0-8.533,3.823-8.533,8.533v460.8    c0,4.71,3.823,8.533,8.533,8.533h245.982c3.516,0,6.665-2.142,7.945-5.419c1.28-3.277,0.427-6.997-2.15-9.378    c-24.789-22.946-38.443-54.059-38.443-87.603C238.933,309.589,292.523,256,358.4,256c8.013,0,16.051,0.811,23.902,2.398    c2.526,0.521,5.12-0.137,7.1-1.758s3.132-4.045,3.132-6.605V85.333C392.533,82.782,391.381,80.358,389.402,78.729z M375.467,240    c-5.658-0.708-11.375-1.067-17.067-1.067c-75.29,0-136.533,61.252-136.533,136.533c0,31.053,10.803,61.227,30.14,85.333H34.133    V17.067h252.954l88.38,72.311V240z" fill="#607d8b"/> </g> </g> <g> </g> <g> </g> <g> </g> <g> </g> <g> </g> <g> </g> <g> </g> <g> </g> <g> </g> <g> </g> <g> </g> <g> </g> <g> </g> <g> </g> <g> </g> </svg>
