---
---
<?xml version="1.0" encoding="UTF-8"?><svg width="100%" height="100%" viewBox="0 0 496 496" width="496pt" fill="#607D8B" xmlns="http://www.w3.org/2000/svg"><path d="m496 40c0-22.054688-17.945312-40-40-40-19.238281 0-35.328125 13.65625-39.136719 31.785156l-260.183593-7.65625c-6.160157-14.167968-20.265626-24.128906-36.679688-24.128906-22.054688 0-40 17.945312-40 40 0 10.457031 4.121094 19.902344 10.710938 27.039062l-46.695313 53.367188c-1.34375-.132812-2.640625-.40625-4.015625-.40625-22.054688 0-40 17.945312-40 40s17.945312 40 40 40c6.113281 0 11.847656-1.488281 17.03125-3.953125l93.472656 89.226563c-18.984375 22.328124-30.503906 51.191406-30.503906 82.726562 0 70.574219 57.425781 128 128 128s128-57.425781 128-128c0-22.574219-5.929688-43.769531-16.230469-62.207031l53.230469-30.816407c5.679688 3.101563 12.089844 5.023438 19 5.023438 22.054688 0 40-17.945312 40-40 0-18.832031-13.128906-34.566406-30.679688-38.792969l21.511719-121.894531c18.792969-3.265625 33.167969-19.601562 33.167969-39.3125zm-99.703125 182.335938-108.511719-36.167969c.039063-.734375.214844-1.425781.214844-2.167969 0-5.414062-1.105469-10.574219-3.0625-15.289062l143.109375-100.175782c5.082031 4.976563 11.496094 8.542969 18.632813 10.257813l-21.511719 121.894531c-12.71875 2.207031-23.296875 10.441406-28.871094 21.648438zm-317.480469-53.089844 129.878906 21.648437c2.832032 16.160157 15.296876 29.042969 31.304688 32.296875v17.214844c-30.128906 1.882812-57.40625 14.179688-78.34375 33.386719l-91.710938-87.546875c4.222657-4.8125 7.335938-10.574219 8.871094-17zm340.246094-113.957032-143.109375 100.175782c-7.21875-7.074219-17.074219-11.464844-27.953125-11.464844-5.886719 0-11.433594 1.351562-16.472656 3.648438l-78.304688-85.425782c4.226563-6.292968 6.699219-13.855468 6.753906-21.984375l256.816407 7.554688c.511719 2.597656 1.277343 5.101562 2.269531 7.496093zm-155.0625 312.710938c0 8.824219-7.175781 16-16 16s-16-7.175781-16-16 7.175781-16 16-16 16 7.175781 16 16zm-52.449219-105.792969c-7.78125 10.632813-14.246093 24.671875-18.976562 41.097657l-19.34375-18.464844c11.035156-9.917969 24.007812-17.679688 38.320312-22.632813zm28.449219-4.3125v79.242188c-2.96875.765625-5.753906 1.953125-8.328125 3.488281l-25.839844-24.664062c7.335938-30.785157 20.617188-51.9375 34.167969-58.066407zm-19.558594 94.128907c-1.441406 2.480468-2.5625 5.136718-3.304687 7.976562h-16.945313c.28125-8.847656.984375-17.3125 2.105469-25.296875zm-3.304687 23.976562c2.910156 11.191406 11.671875 19.960938 22.863281 22.863281v79.242188c-19.3125-8.730469-38.097656-47.945313-39.808594-102.105469zm38.863281 102.105469v-79.242188c11.191406-2.910156 19.960938-11.671875 22.863281-22.863281h16.945313c-1.710938 54.160156-20.496094 93.375-39.808594 102.105469zm22.863281-118.105469c-.550781-2.121094-1.3125-4.136719-2.253906-6.054688l18.160156-10.511718c.535157 5.335937.855469 10.886718 1.039063 16.566406zm-12.839843-18.414062c-3-2.058594-6.40625-3.515626-10.023438-4.449219v-79.242188c15.03125 6.800781 29.726562 32.066407 36.335938 68.464844zm18.425781-79.378907c21.136719 7.304688 39.375 20.753907 52.664062 38.226563l-30.050781 17.390625c-4.71875-22.761719-12.605469-41.960938-22.613281-55.617188zm-36.449219-54.207031c-13.230469 0-24-10.769531-24-24s10.769531-24 24-24 24 10.769531 24 24-10.769531 24-24 24zm208-192c13.230469 0 24 10.769531 24 24s-10.769531 24-24 24-24-10.769531-24-24 10.769531-24 24-24zm-336 0c13.230469 0 24 10.769531 24 24s-10.769531 24-24 24-24-10.769531-24-24 10.769531-24 24-24zm-16.273438 60.464844c4.984376 2.230468 10.464844 3.535156 16.273438 3.535156 8.054688 0 15.527344-2.441406 21.808594-6.550781l76.734375 83.710937c-4.488281 4.917969-7.765625 10.910156-9.359375 17.59375l-129.878906-21.648437c-2.03125-11.59375-9.058594-21.394531-18.785157-27.265625zm-87.726562 83.535156c0-13.230469 10.769531-24 24-24s24 10.769531 24 24-10.769531 24-24 24-24-10.769531-24-24zm172.304688 161.351562c-2.296876 12.054688-3.703126 25.023438-4.105469 38.648438h-47.792969c1.722656-24.128906 11.019531-46.183594 25.65625-63.695312zm-51.898438 54.648438h47.792969c1.214843 41.046875 11.625 76.320312 27.351562 97.792969-41.472656-14.335938-71.910156-52.320313-75.144531-97.792969zm148.042969 97.792969c15.726562-21.464844 26.136719-56.746094 27.351562-97.792969h47.792969c-3.234375 45.472656-33.671875 83.457031-75.144531 97.792969zm75.144531-113.792969h-47.792969c-.257812-8.71875-.929687-17.160156-1.984375-25.289062l36.121094-20.910157c7.710938 13.871094 12.46875 29.542969 13.65625 46.199219zm-103.59375-119.59375v-17.214844c12.222656-2.488281 22.296875-10.65625 27.703125-21.527344l108.511719 36.167969c-.039063.734375-.214844 1.425781-.214844 2.167969 0 9.007812 3.105469 17.238281 8.152344 23.9375l-49.121094 28.4375c-21.832031-29.664062-56.0625-49.542969-95.03125-51.96875zm200-.40625c0 13.230469-10.769531 24-24 24s-24-10.769531-24-24 10.769531-24 24-24 24 10.769531 24 24zm0 0"/></svg>
