---
d: 56
---
<?xml version="1.0" encoding="UTF-8"?><svg width="{{d}}" height="{{d}}" version="1.1" id="Capa_1" xmlns="http://www.w3.org/2000/svg" xmlns:xlink="http://www.w3.org/1999/xlink" x="0px" y="0px" fill="#607D8B" viewBox="0 0 496.426 496.426" style="enable-background:new 0 0 496.426 496.426;" xml:space="preserve"> <g> 	<g> 		<path d="M488.213,432.426h-24v-224c0-17.6-14.4-32-32-32h-4.8l34.4-96.8c21.6-3.2,36.8-23.2,33.6-45.6 			c-3.2-21.6-23.2-36.8-45.6-33.6c-16,2.4-29.6,14.4-32.8,30.4l-33.6-5.6c-4-17.6-20.8-28-38.4-24c-14.4,3.2-24.8,16-24.8,31.2 			c0,1.6,0,2.4,0.8,4l-58.4,51.2c-18.4-12-43.2-8-55.2,10.4c-9.6,13.6-8.8,32,0.8,45.6l-19.2,32.8h-35.2l14.4-112.8 			c17.6-4,28-20.8,24-38.4c-4-17.6-20.8-28-38.4-24c-13.6,3.2-24,15.2-24.8,29.6l-68.8-13.6c-8.8-16-28-21.6-43.2-12.8 			s-21.6,28-12.8,43.2c4.8,8.8,12.8,14.4,22.4,16l44.8,112.8h-7.2c-17.6,0-32,14.4-32,32v224h-24c-4.8,0-8,3.2-8,8v32 			c0,3.2,1.6,5.6,4.8,7.2l32,16c0.8,0.8,1.6,0.8,3.2,0.8h416c1.6,0,2.4,0,3.2-0.8l32-16c2.4-1.6,4.8-4,4.8-7.2v-32 			C496.213,435.626,493.013,432.426,488.213,432.426z M456.213,16.426c13.6,0,24,10.4,24,24s-10.4,24-24,24c-13.6,0-24-10.4-24-24 			S442.613,16.426,456.213,16.426z M382.613,41.226l34.4,5.6c2.4,15.2,13.6,27.2,28.8,31.2l-35.2,98.4h-45.6l-4.8-113.6 			C371.413,60.426,379.413,52.426,382.613,41.226z M150.613,242.826c-1.6-0.8-3.2-1.6-5.6-1.6l2.4-16.8h14.4L150.613,242.826z 			 M175.413,288.426l145.6,14.4c1.6,6.4,4,12.8,8.8,18.4l-24.8,20c-32.8-28-80-28-112.8-0.8l-30.4-30.4 			C168.213,304.426,173.013,297.226,175.413,288.426z M160.213,280.426c0,13.6-10.4,24-24,24c-13.6,0-24-10.4-24-24 			c0-13.6,10.4-24,24-24C149.813,256.426,160.213,266.826,160.213,280.426z M108.213,224.426h23.2l-2.4,16.8 			c-4,0.8-8.8,2.4-12.8,4.8L108.213,224.426z M133.013,208.426h-31.2l-6.4-16h40L133.013,208.426z M104.213,257.226 			c-12.8,17.6-9.6,42.4,8,55.2c10.4,7.2,23.2,9.6,35.2,6.4l33.6,33.6c-11.2,13.6-18.4,30.4-20,48h-80.8v-176h10.4L104.213,257.226z 			 M180.213,384.426h37.6c-0.8,5.6-1.6,10.4-1.6,16h-40C177.013,394.826,178.613,389.226,180.213,384.426z M189.013,368.426 			c10.4-16,26.4-26.4,44.8-30.4c-5.6,9.6-9.6,20-12,30.4H189.013z M248.213,344.426c9.6,17.6,14.4,36.8,16,56h-32 			C233.813,380.426,238.613,362.026,248.213,344.426z M262.613,338.026c18.4,4,34.4,15.2,44.8,30.4h-32.8 			C272.213,358.026,268.213,347.626,262.613,338.026z M316.213,384.426c1.6,4.8,3.2,10.4,4,16h-40c0-5.6-0.8-10.4-1.6-16H316.213z 			 M316.213,353.226l26.4-20.8c5.6,3.2,11.2,4,17.6,4c22.4,0,40-17.6,40-40c0-8.8-2.4-16.8-8-23.2l17.6-48.8h6.4v176h-80.8 			C333.813,382.826,327.413,366.826,316.213,353.226z M365.813,208.426l-0.8-16h39.2l-5.6,16H365.813z M393.013,224.426l-13.6,37.6 			c-4-2.4-7.2-3.2-12-4.8l-0.8-32.8H393.013z M384.213,296.426c0,13.6-10.4,24-24,24c-13.6,0-24-10.4-24-24c0-13.6,10.4-24,24-24 			C373.813,272.426,384.213,282.826,384.213,296.426z M352.213,16.426c8.8,0,16,7.2,16,16s-7.2,16-16,16s-16-7.2-16-16 			S343.413,16.426,352.213,16.426z M240.213,96.426c13.6,0,24,10.4,24,24s-10.4,24-24,24c-13.6,0-24-10.4-24-24 			C216.213,106.826,226.613,96.426,240.213,96.426z M219.413,154.826c6.4,4,13.6,5.6,20.8,5.6c22.4,0,40-17.6,40-40 			c0-8-2.4-15.2-6.4-21.6l53.6-46.4c4,5.6,10.4,9.6,17.6,11.2l4,112.8h-141.6L219.413,154.826z M197.813,192.426h151.2l0.8,16 			h-160.8L197.813,192.426z M350.613,224.426l1.6,32.8c-15.2,3.2-27.2,15.2-30.4,30.4l-145.6-14.4c-1.6-8-5.6-15.2-11.2-21.6 			l16-27.2H350.613z M179.413,192.426l-8.8,16h-20.8l2.4-16H179.413z M160.213,16.426c8.8,0,16,7.2,16,16s-7.2,16-16,16 			s-16-7.2-16-16S151.413,16.426,160.213,16.426z M16.213,32.426c0-8.8,7.2-16,16-16s16,7.2,16,16s-7.2,16-16,16 			S16.213,41.226,16.213,32.426z M43.413,62.026c12-4,20-15.2,20.8-28l68,13.6c4,7.2,11.2,12.8,19.2,15.2l-14.4,113.6h-48 			L43.413,62.026z M48.213,208.426c0-8.8,7.2-16,16-16h13.6l6.4,16h-12c-4.8,0-8,3.2-8,8v192c0,4.8,3.2,8,8,8h352c4.8,0,8-3.2,8-8 			v-192c0-4.8-3.2-8-8-8h-8.8l5.6-16h11.2c8.8,0,16,7.2,16,16v224h-400V208.426z M480.213,467.626l-25.6,12.8h-412.8l-25.6-12.8 			v-19.2h464V467.626z"/> 	</g> </g> <g> </g> <g> </g> <g> </g> <g> </g> <g> </g> <g> </g> <g> </g> <g> </g> <g> </g> <g> </g> <g> </g> <g> </g> <g> </g> <g> </g> <g> </g> </svg> 
