---
---
<?xml version="1.0" encoding="UTF-8"?><svg width="100%" height="100%" viewBox="0 0 496 496" width="496pt" xmlns="http://www.w3.org/2000/svg"  fill="#607D8B"><path d="m480 416v-280c0-22.054688-17.945312-40-40-40h-81.222656c-16.144532-45.015625-52.488282-80.894531-100.425782-95.648438l-18.351562-.351562-2.351562.351562c-47.9375 14.753907-84.28125 50.632813-100.425782 95.648438h-81.222656c-22.054688 0-40 17.945312-40 40v280h-16v40c0 22.054688 17.945312 40 40 40h416c22.054688 0 40-17.945312 40-40v-40zm-40-304c13.230469 0 24 10.769531 24 24v280h-16v-272c0-8.824219-7.175781-16-16-16h-65.488281c-.71875-5.40625-1.625-10.769531-2.878907-16zm-264 320h144v8c0 4.414062-3.59375 8-8 8h-128c-4.40625 0-8-3.585938-8-8zm-112-16v-272h64.191406c-.046875 1.609375-.191406 3.191406-.191406 4.816406v85.421875l-9.710938 3.234375c-22.90625 7.632813-38.289062 28.984375-38.289062 53.121094v109.40625h336v-109.40625c0-24.144531-15.382812-45.488281-38.289062-53.128906l-9.710938-3.234375v-85.414063c0-1.617187-.144531-3.207031-.191406-4.816406h64.191406v272zm272-96v64h-48v-68.824219c0-13.96875 7.441406-27.113281 19.425781-34.304687l53.535157-32.117188 11.6875 3.894532c16.359374 5.457031 27.351562 20.703124 27.351562 37.945312v93.40625h-48v-64zm16-84.527344-52.816406 31.6875c-16.769532 10.0625-27.183594 28.464844-27.183594 48.015625v68.824219h-16v-113.742188c44.558594-11.816406 76.816406-51.144531 79.703125-97.152343l16.296875 14.488281zm-104 20.359375c-33.207031-7.257812-59.015625-32.320312-68.257812-63.832031h136.523437c-9.25 31.503906-35.058594 56.574219-68.265625 63.832031zm72-89.417969c0 3.234376-.222656 6.425782-.558594 9.585938h-142.882812c-.335938-3.160156-.558594-6.351562-.558594-9.585938v-7.261718l7.425781-6.601563c17.804688-15.832031 40.742188-24.550781 64.574219-24.550781s46.769531 8.71875 64.574219 24.550781l7.425781 6.601563zm-159.703125 6.699219c2.886719 46.007813 35.144531 85.328125 79.703125 97.144531v113.742188h-16v-68.824219c0-19.550781-10.414062-37.953125-27.183594-48.023437l-52.816406-31.679688v-47.871094zm-16.296875 146.886719v64h-48v-93.40625c0-17.242188 10.992188-32.496094 27.34375-37.945312l11.6875-3.894532 53.542969 32.117188c11.984375 7.199218 19.425781 20.335937 19.425781 34.304687v68.824219h-48v-64zm97.214844-304h13.5625c58.207031 18.433594 97.222656 71.65625 97.222656 132.816406v17.367188l-28.792969-25.589844c-20.742187-18.433594-47.453125-28.59375-75.207031-28.59375s-54.464844 10.160156-75.207031 28.59375l-28.792969 25.589844v-17.367188c0-61.160156 39.015625-114.382812 97.214844-132.816406zm-209.214844 120c0-13.230469 10.769531-24 24-24h76.367188c-1.253907 5.230469-2.167969 10.59375-2.878907 16h-65.488281c-8.824219 0-16 7.175781-16 16v272h-16zm448 320c0 13.230469-10.769531 24-24 24h-416c-13.230469 0-24-10.769531-24-24v-24h144v8c0 13.230469 10.769531 24 24 24h128c13.230469 0 24-10.769531 24-24v-8h144zm0 0"/><path d="m48 448h16v16h-16zm0 0"/><path d="m80 448h16v16h-16zm0 0"/><path d="m112 448h16v16h-16zm0 0"/></svg>
