---
d: 56
---
<?xml version="1.0" encoding="UTF-8"?><svg width="{{d}}" height="{{d}}" xmlns="http://www.w3.org/2000/svg" xmlns:xlink="http://www.w3.org/1999/xlink" version="1.1" id="Capa_1" x="0px" y="0px" viewBox="0 0 480.003 480.003" style="enable-background:new 0 0 480.003 480.003;" xml:space="preserve" width="512px" height="512px"> <g> <g> <path d="M478.625,27.517c-1.488-2.198-3.97-3.515-6.625-3.516h-42.237L423.586,5.47C422.499,2.204,419.443,0,416,0.002H304    c-4.417-0.001-7.999,3.58-7.999,7.997c0,0.408,0.031,0.815,0.093,1.218l16,104l0.036-0.005c0.55,3.917,3.916,6.821,7.871,6.791    h120c3.271-0.001,6.213-1.991,7.43-5.027l32-80C480.412,32.509,480.111,29.716,478.625,27.517z M313.328,16.002h96.906l2.668,8    H352c-3.271,0.001-6.213,1.991-7.43,5.027l-21.119,52.796L313.328,16.002z M434.586,104.002H331.813l25.602-64h102.773    L434.586,104.002z" fill="#607d8b"/> </g> </g> <g> <g> <path d="M478.625,203.517c-1.488-2.198-3.97-3.515-6.625-3.516h-42.237l-6.177-18.531c-1.087-3.267-4.143-5.47-7.586-5.469H304    c-4.417-0.001-7.999,3.58-7.999,7.997c0,0.408,0.031,0.815,0.093,1.218l16,104l0.036-0.005c0.55,3.917,3.916,6.821,7.871,6.791    h120c3.271-0.001,6.213-1.991,7.43-5.027l32-80C480.412,208.509,480.111,205.716,478.625,203.517z M313.328,192.002h96.906    l2.668,8H352c-3.271,0.001-6.213,1.991-7.43,5.027l-21.119,52.796L313.328,192.002z M434.586,280.002H331.813l25.602-64h102.773    L434.586,280.002z" fill="#607d8b"/> </g> </g> <g> <g> <path d="M474.969,384.573c-0.944-0.377-1.952-0.571-2.969-0.572h-42.237l-6.177-18.531c-1.087-3.267-4.143-5.47-7.586-5.469H304    c-4.417-0.001-7.999,3.58-7.999,7.997c0,0.408,0.031,0.815,0.093,1.218l16,104l0.036-0.005c0.55,3.917,3.916,6.821,7.871,6.791    h120c3.271-0.001,6.213-1.991,7.43-5.027l32-80C481.07,390.87,479.073,386.213,474.969,384.573z M313.328,376.002h96.906l2.668,8    H352c-3.271,0.001-6.213,1.991-7.43,5.027l-21.119,52.796L313.328,376.002z M434.586,464.002H331.812l25.602-64h102.774    L434.586,464.002z" fill="#607d8b"/> </g> </g> <g> <g> <rect x="120" y="48.002" width="16" height="16" fill="#607d8b"/> </g> </g> <g> <g> <rect x="120" y="16.002" width="16" height="16" fill="#607d8b"/> </g> </g> <g> <g> <rect x="152" y="16.002" width="16" height="16" fill="#607d8b"/> </g> </g> <g> <g> <rect x="184" y="16.002" width="16" height="16" fill="#607d8b"/> </g> </g> <g> <g> <rect x="216" y="16.002" width="16" height="16" fill="#607d8b"/> </g> </g> <g> <g> <rect x="248" y="16.002" width="16" height="16" fill="#607d8b"/> </g> </g> <g> <g> <rect x="120" y="416.002" width="16" height="16" fill="#607d8b"/> </g> </g> <g> <g> <rect x="120" y="448.002" width="16" height="16" fill="#607d8b"/> </g> </g> <g> <g> <rect x="152" y="448.002" width="16" height="16" fill="#607d8b"/> </g> </g> <g> <g> <rect x="184" y="448.002" width="16" height="16" fill="#607d8b"/> </g> </g> <g> <g> <rect x="216" y="448.002" width="16" height="16" fill="#607d8b"/> </g> </g> <g> <g> <rect x="248" y="448.002" width="16" height="16" fill="#607d8b"/> </g> </g> <g> <g> <path d="M128,80.002c-62.055,0-128,18.227-128,52v228c0,1.61,0.484,3.182,1.391,4.512C15.445,385.076,68.688,400.002,128,400.002    c56.445,0,113.242-15.918,126.609-35.488c0.906-1.33,1.391-2.902,1.391-4.512v-228C256,98.228,190.055,80.002,128,80.002z     M240,357.189c-11.164,11.723-56.531,26.813-112,26.813c-53.805,0-99.938-13.523-112-26.766v-56.149    c23.139,13.786,65.671,22.915,112,22.915c46.329,0,88.861-9.129,112-22.915V357.189z M240,281.122    c-11.896,13.277-58.033,26.88-112,26.88s-100.104-13.603-112-26.88v-55.029c23.296,16.946,68.558,25.909,112,25.909    c43.442,0,88.704-8.963,112-25.909V281.122z M240,200.002c0,15.031-42.609,36-112,36s-112-20.969-112-36v-41.909    c23.296,16.946,68.558,25.909,112,25.909c43.442,0,88.704-8.963,112-25.909V200.002z M128,168.002c-69.391,0-112-20.969-112-36    c0-15.031,42.609-36,112-36s112,20.969,112,36C240,147.033,197.391,168.002,128,168.002z" fill="#607d8b"/> </g> </g> <g> </g> <g> </g> <g> </g> <g> </g> <g> </g> <g> </g> <g> </g> <g> </g> <g> </g> <g> </g> <g> </g> <g> </g> <g> </g> <g> </g> <g> </g> </svg>
