---
---
<?xml version="1.0" encoding="UTF-8"?><svg width="100%" height="100%" version="1.1" id="Capa_1" xmlns="http://www.w3.org/2000/svg" xmlns:xlink="http://www.w3.org/1999/xlink" x="0px" y="0px" fill="#607D8B" viewBox="0 0 512 512" style="enable-background:new 0 0 512 512;" xml:space="preserve"> <g> 	<g> 		<path d="M491.512,399.668h-70.884V141.447c0-3.333-1.443-6.497-3.959-8.681l-11.28-9.791l9.962-6.403 			c3.304-2.126,5.277-5.74,5.277-9.668V50.955c0-28.094-22.028-50.95-49.104-50.95H209.528c-4.14,0-7.496,3.355-7.496,7.496 			s3.356,7.496,7.496,7.496h161.996c16.759,0,30.725,12.811,33.572,29.629h-39.211c-4.14,0-7.496,3.355-7.496,7.496 			c0,4.141,3.356,7.496,7.496,7.496h39.752v9.215h-25.658c-4.14,0-7.496,3.355-7.496,7.496c0,4.141,3.356,7.496,7.496,7.496h25.658 			v21.174l-12.283,7.895c-3.073,1.977-4.985,5.199-5.247,8.844c-0.262,3.644,1.17,7.108,3.93,9.503l13.6,11.805V399.67H212.866 			c-7.99,0-14.492,6.501-14.492,14.492v41.668c0,22.524-17.266,40.872-38.595,41.166c-25.132-0.295-45.503-21.875-45.513-48.373 			l-0.015-40.207h45.009c4.14,0,7.496-3.355,7.496-7.496s-3.356-7.496-7.496-7.496h-45.015l-0.004-11.993h19.778 			c4.14,0,7.496-3.355,7.496-7.496c0-4.141-3.356-7.496-7.496-7.496h-19.784l-0.046-125.892l13.372-14.266 			c3.408-3.637,4.088-9.016,1.692-13.385l-15.061-27.473V56.177c0-0.056-0.004-0.111-0.004-0.167v-1.906 			c0-15.369-6.453-29.251-16.779-39.109l64.979-0.003c4.14,0,7.496-3.356,7.496-7.496c0-4.141-3.356-7.496-7.496-7.496L60.091,0.005 			c-0.014,0-0.027,0.002-0.041,0.002C30.241,0.031,5.997,24.289,5.997,54.104v10.343c0,4.141,3.356,7.496,7.496,7.496 			c4.14,0,7.496-3.355,7.496-7.496V54.104c0-21.564,17.543-39.106,39.106-39.106c0.653,0,1.302,0.018,1.947,0.049 			c9.648,0.497,18.675,4.676,25.591,11.889c7.424,7.763,11.525,18.083,11.567,29.073v81.645H20.988V110.42 			c0-4.141-3.356-7.496-7.496-7.496c-4.14,0-7.496,3.355-7.496,7.496v27.733c0,7.99,6.501,14.492,14.492,14.492h78.716v34.698 			c0,1.26,0.317,2.499,0.922,3.603l14.766,26.933l-12.582,13.423c-2.006,2.138-3.11,4.93-3.11,7.865l0.076,209.46 			c0.012,34.291,26.379,62.289,59.15,63.323c0.275,0.031,0.554,0.049,0.836,0.049h1.036h40.151h252.242 			c29.397,0,53.312-24.829,53.312-55.346V414.16C506.003,406.169,499.502,399.668,491.512,399.668z M491.012,456.654 			c0,22.252-17.191,40.355-38.321,40.355H206.807h-10.786c10.662-10.266,17.344-24.928,17.344-41.18V414.66h277.646V456.654z"/> 	</g> </g> <g> 	<g> 		<path d="M331.777,123.757H196.212c-4.14,0-7.496,3.355-7.496,7.496s3.356,7.496,7.496,7.496h135.566 			c4.14,0,7.496-3.355,7.496-7.496S335.917,123.757,331.777,123.757z"/> 	</g> </g> <g> 	<g> 		<path d="M259.558,168.553h-89.125c-4.14,0-7.496,3.356-7.496,7.496c0,4.141,3.356,7.496,7.496,7.496h89.125 			c4.14,0,7.496-3.355,7.496-7.496S263.698,168.553,259.558,168.553z"/> 	</g> </g> <g> 	<g> 		<path d="M357.557,168.553h-66.785c-4.14,0-7.496,3.355-7.496,7.496s3.356,7.496,7.496,7.496h66.784 			c4.14,0,7.496-3.355,7.496-7.496S361.697,168.553,357.557,168.553z"/> 	</g> </g> <g> 	<g> 		<path d="M207.208,197.536h-36.776c-4.14,0-7.496,3.355-7.496,7.496c0,4.141,3.356,7.496,7.496,7.496h36.776 			c4.14,0,7.496-3.355,7.496-7.496C214.704,200.891,211.348,197.536,207.208,197.536z"/> 	</g> </g> <g> 	<g> 		<path d="M357.557,197.536h-44.59c-4.14,0-7.496,3.355-7.496,7.496c0,4.141,3.356,7.496,7.496,7.496h44.59 			c4.14,0,7.496-3.355,7.496-7.496C365.053,200.891,361.697,197.536,357.557,197.536z"/> 	</g> </g> <g> 	<g> 		<path d="M224.019,226.519h-53.587c-4.14,0-7.496,3.355-7.496,7.496s3.356,7.496,7.496,7.496h53.587 			c4.14,0,7.496-3.355,7.496-7.496S228.159,226.519,224.019,226.519z"/> 	</g> </g> <g> 	<g> 		<path d="M357.557,226.519H256.001c-4.14,0-7.496,3.355-7.496,7.496s3.356,7.496,7.496,7.496h101.556 			c4.14,0,7.496-3.355,7.496-7.496S361.697,226.519,357.557,226.519z"/> 	</g> </g> <g> 	<g> 		<path d="M188.82,255.502h-18.387c-4.14,0-7.496,3.355-7.496,7.496c0,4.141,3.356,7.496,7.496,7.496h18.387 			c4.14,0,7.496-3.355,7.496-7.496C196.316,258.857,192.959,255.502,188.82,255.502z"/> 	</g> </g> <g> 	<g> 		<path d="M357.557,255.502h-44.59c-4.14,0-7.496,3.355-7.496,7.496c0,4.141,3.356,7.496,7.496,7.496h44.59 			c4.14,0,7.496-3.355,7.496-7.496C365.053,258.857,361.697,255.502,357.557,255.502z"/> 	</g> </g> <g> 	<g> 		<path d="M259.558,284.486h-89.125c-4.14,0-7.496,3.355-7.496,7.496s3.356,7.496,7.496,7.496h89.125 			c4.14,0,7.496-3.355,7.496-7.496S263.698,284.486,259.558,284.486z"/> 	</g> </g> <g> 	<g> 		<path d="M357.557,284.486h-66.785c-4.14,0-7.496,3.355-7.496,7.496s3.356,7.496,7.496,7.496h66.784 			c4.14,0,7.496-3.355,7.496-7.496S361.697,284.486,357.557,284.486z"/> 	</g> </g> <g> 	<g> 		<path d="M207.208,313.469h-36.776c-4.14,0-7.496,3.355-7.496,7.496s3.356,7.496,7.496,7.496h36.776 			c4.14,0,7.496-3.355,7.496-7.496S211.348,313.469,207.208,313.469z"/> 	</g> </g> <g> 	<g> 		<path d="M357.557,313.469H245.388c-4.14,0-7.496,3.355-7.496,7.496s3.356,7.496,7.496,7.496h112.169 			c4.14,0,7.496-3.355,7.496-7.496S361.697,313.469,357.557,313.469z"/> 	</g> </g> <g> 	<g> 		<path d="M286.319,197.536h-49.706c-4.14,0-7.496,3.355-7.496,7.496c0,4.141,3.356,7.496,7.496,7.496h49.706 			c4.14,0,7.496-3.355,7.496-7.496C293.814,200.891,290.458,197.536,286.319,197.536z"/> 	</g> </g> <g> 	<g> 		<path d="M275.782,255.502h-60.786c-4.14,0-7.496,3.356-7.496,7.496c0,4.141,3.356,7.496,7.496,7.496h60.786 			c4.14,0,7.496-3.355,7.496-7.496C283.277,258.857,279.921,255.502,275.782,255.502z"/> 	</g> </g> <g> </g> <g> </g> <g> </g> <g> </g> <g> </g> <g> </g> <g> </g> <g> </g> <g> </g> <g> </g> <g> </g> <g> </g> <g> </g> <g> </g> <g> </g> </svg> 
