<?xml version="1.0" encoding="utf-8"?>
<!DOCTYPE svg PUBLIC "-//W3C//DTD SVG 1.1//EN" "http://www.w3.org/Graphics/SVG/1.1/DTD/svg11.dtd">
<svg id="solamona_logo" xmlns="http://www.w3.org/2000/svg" xmlns:xlink="http://www.w3.org/1999/xlink" version="1.1" baseProfile="full" width="232.418" height="35.9542" viewBox="0 0 232.42 35.95" enable-background="new 0 0 232.42 35.95" xml:space="preserve">
	<g>
		<path fill="#24292e" fill-opacity="1" stroke-linejoin="round" d="M 22.7054,26.4016C 21.9533,20.8713 18.9452,17.7951 13.6808,17.173C 8.41653,16.551 5.40833,14.4109 4.65629,10.7527C 4.69929,8.94756 5.32133,7.58946 6.52239,6.67842C 7.72347,5.76738 9.24557,5.33333 11.0887,5.37633C 13.1258,5.45833 14.6799,5.99034 15.751,6.97246C 16.822,7.95451 17.4281,9.03856 17.5691,10.2247L 22.3694,10.2247C 22.0753,7.64046 20.9593,5.57234 19.0212,4.02025C 17.083,2.46812 14.5029,1.6721 11.2807,1.63213C 7.92048,1.67314 5.24432,2.52718 3.25219,4.19426C 1.26008,5.86137 0.240021,8.0955 0.192017,10.8967C 0.94606,16.426 3.96224,19.4682 9.24056,20.0232C 14.5189,20.5782 17.5351,22.7684 18.2891,26.5936C 18.2731,28.2117 17.6811,29.5358 16.513,30.5659C 15.3449,31.5959 13.6968,32.128 11.5687,32.162C 9.26156,32.104 7.56347,31.5239 6.47439,30.4219C 5.38534,29.3198 4.77929,28.0437 4.65629,26.5936L 7.62939e-006,26.5936C 0.104012,29.3948 1.20409,31.629 3.30021,33.296C 5.39632,34.9631 8.15249,35.8172 11.5687,35.8582C 15.2039,35.7612 17.9661,34.7791 19.8552,32.912C 21.7443,31.0449 22.6944,28.8748 22.7054,26.4016 Z "/>
		<path fill="#24292e" fill-opacity="1" stroke-linejoin="round" d="M 54.2416,22.3214C 54.1556,18.1241 52.8755,14.8299 50.4014,12.4388C 47.9272,10.0476 44.775,8.82954 40.9448,8.78453C 37.1356,8.82954 33.9894,10.0477 31.5062,12.4388C 29.0231,14.8299 27.737,18.1241 27.648,22.3214C 27.729,26.5436 28.9831,29.8598 31.4102,32.27C 33.8373,34.6801 36.9515,35.9082 40.7528,35.9542C 44.591,35.9082 47.7752,34.6801 50.3054,32.27C 52.8355,29.8598 54.1476,26.5436 54.2416,22.3214 Z M 32.1122,22.3214C 32.1902,19.0172 33.0783,16.565 34.7764,14.9649C 36.4745,13.3648 38.5146,12.5688 40.8968,12.5768C 43.2409,12.5688 45.2851,13.3648 47.0292,14.9649C 48.7732,16.565 49.6893,19.0172 49.7773,22.3214C 49.6863,25.6486 48.7523,28.1147 46.9752,29.7198C 45.198,31.3249 43.1239,32.123 40.7528,32.114C 38.3976,32.123 36.3875,31.3249 34.7224,29.7198C 33.0573,28.1147 32.1872,25.6486 32.1122,22.3214 Z "/>
		<rect x="60.0001" y="-1.52588e-005" fill="#24292e" fill-opacity="1" stroke-linejoin="round" width="4.36827" height="35.5222"/>
		<path fill="#24292e" fill-opacity="1" stroke-linejoin="round" d="M 70.3679,22.2734C 70.448,26.4136 71.644,29.7138 73.9562,32.174C 76.2683,34.6341 79.2165,35.8942 82.8007,35.9542C 85.2328,35.9092 87.281,35.3752 88.9451,34.3521C 90.6092,33.329 91.8412,32.087 92.6413,30.6259L 92.6413,35.5222L 97.0576,35.5222L 97.0576,9.2166L 92.6413,9.2166L 92.6413,14.0169C 91.8672,12.6018 90.6552,11.3877 89.0051,10.3746C 87.355,9.36156 85.3028,8.83153 82.8487,8.78453C 79.2415,8.83354 76.2793,10.0556 73.9622,12.4508C 71.645,14.8459 70.4469,18.1201 70.3679,22.2734 Z M 92.6413,22.3214C 92.5693,25.4386 91.6812,27.8447 89.9771,29.5398C 88.273,31.2349 86.1849,32.093 83.7127,32.114C 81.2426,32.091 79.1625,31.2249 77.4724,29.5158C 75.7823,27.8067 74.9022,25.3926 74.8322,22.2734C 74.9022,19.1602 75.7823,16.77 77.4724,15.103C 79.1625,13.4358 81.2426,12.5938 83.7127,12.5768C 86.1849,12.6018 88.273,13.4638 89.9771,15.1629C 91.6812,16.862 92.5693,19.2482 92.6413,22.3214 Z "/>
		<path fill="#24292e" fill-opacity="1" stroke-linejoin="round" d="M 104.64,35.5222L 109.008,35.5222L 109.008,10.7047L 120.097,35.5222L 123.169,35.5222L 134.21,10.7527L 134.21,35.5222L 138.578,35.5222L 138.578,2.30415L 133.922,2.30415L 121.633,29.7618L 109.344,2.30415L 104.64,2.30415L 104.64,35.5222 Z "/>
		<path fill="#24292e" fill-opacity="1" stroke-linejoin="round" d="M 170.882,22.3214C 170.796,18.1241 169.515,14.8299 167.041,12.4388C 164.567,10.0476 161.415,8.82954 157.585,8.78453C 153.776,8.82954 150.629,10.0477 148.146,12.4388C 145.663,14.8299 144.377,18.1241 144.288,22.3214C 144.369,26.5436 145.623,29.8598 148.05,32.27C 150.477,34.6801 153.591,35.9082 157.393,35.9542C 161.231,35.9082 164.415,34.6801 166.945,32.27C 169.475,29.8598 170.788,26.5436 170.882,22.3214 Z M 148.752,22.3214C 148.83,19.0172 149.718,16.565 151.416,14.9649C 153.114,13.3648 155.155,12.5688 157.537,12.5768C 159.881,12.5688 161.925,13.3648 163.669,14.9649C 165.413,16.565 166.329,19.0172 166.417,22.3214C 166.326,25.6486 165.392,28.1147 163.615,29.7198C 161.838,31.3249 159.764,32.123 157.393,32.114C 155.038,32.123 153.027,31.3249 151.362,29.7198C 149.697,28.1147 148.827,25.6486 148.752,22.3214 Z "/>
		<path fill="#24292e" fill-opacity="1" stroke-linejoin="round" d="M 195.889,35.5222L 200.209,35.5222L 200.209,20.0172C 200.142,16.25 199.112,13.4278 197.119,11.5507C 195.126,9.67357 192.572,8.73555 189.457,8.73653C 187.659,8.74153 186.023,9.10356 184.548,9.82262C 183.074,10.5417 181.894,11.5877 181.008,12.9608L 181.008,9.2166L 176.64,9.2166L 176.64,35.5222L 181.008,35.5222L 181.008,20.9773C 181.043,18.1471 181.741,16.031 183.102,14.6289C 184.464,13.2268 186.278,12.5268 188.545,12.5288C 190.783,12.5307 192.559,13.2108 193.873,14.5689C 195.187,15.927 195.859,17.9511 195.889,20.6413L 195.889,35.5222 Z "/>
		<path fill="#24292e" fill-opacity="1" stroke-linejoin="round" d="M 205.728,22.2734C 205.808,26.4136 207.004,29.7138 209.316,32.174C 211.628,34.6341 214.576,35.8942 218.161,35.9542C 220.593,35.9092 222.641,35.3752 224.305,34.3521C 225.969,33.329 227.201,32.087 228.001,30.6259L 228.001,35.5222L 232.418,35.5222L 232.418,9.2166L 228.001,9.2166L 228.001,14.0169C 227.227,12.6018 226.015,11.3877 224.365,10.3746C 222.715,9.36156 220.663,8.83153 218.209,8.78453C 214.601,8.83354 211.639,10.0556 209.322,12.4508C 207.005,14.8459 205.807,18.1201 205.728,22.2734 Z M 228.001,22.3214C 227.929,25.4386 227.041,27.8447 225.337,29.5398C 223.633,31.2349 221.545,32.093 219.073,32.114C 216.603,32.091 214.522,31.2249 212.832,29.5158C 211.142,27.8067 210.262,25.3926 210.192,22.2734C 210.262,19.1602 211.142,16.77 212.832,15.103C 214.522,13.4358 216.603,12.5938 219.073,12.5768C 221.545,12.6018 223.633,13.4638 225.337,15.1629C 227.041,16.862 227.929,19.2482 228.001,22.3214 Z "/>
	</g>
</svg>
