<svg width="11" height="9" viewBox="0 0 11 9" fill="none" xmlns="http://www.w3.org/2000/svg">
<rect width="11" height="9" rx="1" fill="url(#paint0_linear)"/>
<path d="M2 6H1.5V7H2V6ZM5 6.5V7H5.5V6.5H5ZM5 4.5H5.5V4H5V4.5ZM2 4.5H1.5V5H2V4.5ZM2 2.5V2H1.5V2.5H2ZM6.5 6.5V7H7.5V6.5H6.5ZM9 2.5H9.5V2H9V2.5ZM8.5 6.5V7H9.5V6.5H8.5ZM2 7H5V6H2V7ZM5.5 6.5V4.5H4.5V6.5H5.5ZM5 4H2V5H5V4ZM2.5 4.5V2.5H1.5V4.5H2.5ZM2 3H7V2H2V3ZM6.5 2.5V6.5H7.5V2.5H6.5ZM7 3H9V2H7V3ZM8.5 2.5V6.5H9.5V2.5H8.5Z" fill="white"/>
<defs>
<linearGradient id="paint0_linear" x1="5.5" y1="0" x2="5.5" y2="9" gradientUnits="userSpaceOnUse">
<stop stop-color="#2A8BE5"/>
<stop offset="1" stop-color="#4076DE"/>
</linearGradient>
</defs>
</svg>
