<svg height="512pt" viewBox="0 0 512 512.0005" width="512pt" xmlns="http://www.w3.org/2000/svg"><path d="m442.71875 423.859375c1.871094 2.152344 1.785156 5.367187-.171875 7.445313-46.691406 49.671874-112.996094 80.695312-186.546875 80.695312-141.199219 0-255.699219-114.3125-256-255.441406-.300781-141.246094 112.652344-255.410156 253.890625-256.5507815 74.210937-.5976565 141.1875 30.3906255 188.308594 80.3164065 2.160156 2.285156 2.234375 5.835937.175781 8.214843-38.859375 44.890626-62.375 103.429688-62.375 167.460938 0 64.222656 23.652344 122.914062 62.71875 167.859375zm0 0" fill="#2740af"/><path d="m512 256c0 42.839844-10.523438 83.21875-29.128906 118.699219-3.078125 5.863281-7.371094 11.597656-10.878906 17.183593-3.480469 5.542969-6.167969 10.945313-10.050782 16.195313-6.199218 8.382813-12.898437 16.371094-20.050781 23.921875h-371.78125c-11.210937-11.835938-21.304687-8.191406-30.109375-22v-320c0-5.523438 4.476562-10 10-10h391.890625c11.671875 12.324219 22.128906 25.804688 31.1875 40.253906 2.96875 4.738282 4.785156 9.578125 7.449219 14.519532 2.363281 4.390624 5.605468 8.859374 7.71875 13.402343 15.242187 32.769531 23.753906 69.300781 23.753906 107.824219zm0 0" fill="#5de0c3"/><path d="m249.269531 404h210.625c2.101563 0 3.300781 2.394531 2.050781 4.082031-6.199218 8.378907-12.902343 16.367188-20.054687 23.917969h-391.890625c-5.523438 0-10-4.476562-10-10v-28c0 5.523438 4.476562 10 10 10h30.730469c-3.527344-3.589844-5.710938-8.5-5.730469-13.925781-.039062-10.542969 8.390625-19.492188 18.921875-20.046875 11.535156-.605469 21.078125 8.570312 21.078125 19.972656 0 5.453125-2.1875 10.390625-5.730469 14h41.460938c-3.527344-3.589844-5.710938-8.5-5.730469-13.925781-.039062-10.542969 8.390625-19.492188 18.921875-20.046875 11.535156-.605469 21.078125 8.570312 21.078125 19.972656 0 5.453125-2.1875 10.390625-5.730469 14h41.460938c-3.527344-3.589844-5.710938-8.5-5.730469-13.925781-.039062-10.542969 8.390625-19.492188 18.921875-20.046875 11.535156-.605469 21.078125 8.570312 21.078125 19.972656 0 5.453125-2.1875 10.390625-5.730469 14zm251.257813-224h-29.527344c-6.074219 0-11 4.925781-11 11v28c0 6.074219 4.925781 11 11 11h39.695312c-1.738281-17.226562-5.183593-33.953125-10.167968-50zm0 0" fill="#0ed1b2"/><path d="m120 130v200c0 5.523438-4.476562 10-10 10h-30c-5.523438 0-10-4.476562-10-10v-200c0-5.523438 4.476562-10 10-10h30c5.523438 0 10 4.476562 10 10zm60-10h-30c-5.523438 0-10 4.476562-10 10v200c0 5.523438 4.476562 10 10 10h30c5.523438 0 10-4.476562 10-10v-200c0-5.523438-4.476562-10-10-10zm270 270c0 8.128906 4.855469 15.109375 11.820312 18.238281 7.84375-10.582031 14.882813-21.796875 21.039063-33.542969-3.476563-2.925781-7.960937-4.695312-12.859375-4.695312-11.046875 0-20 8.953125-20 20zm23.066406-269.742188c-1-.152343-2.019531-.257812-3.066406-.257812-11.046875 0-20 8.953125-20 20s8.953125 20 20 20c8.125 0 15.105469-4.855469 18.234375-11.816406-4.488281-9.648438-9.554687-18.972656-15.167969-27.925782zm-63.066406 249.742188c-11.046875 0-20 8.953125-20 20s8.953125 20 20 20 20-8.953125 20-20-8.953125-20-20-20zm-60 0c-11.046875 0-20 8.953125-20 20s8.953125 20 20 20 20-8.953125 20-20-8.953125-20-20-20zm0 0" fill="#fff5f5"/><path d="m105 145v170c0 2.761719-2.238281 5-5 5h-10c-2.761719 0-5-2.238281-5-5v-170c0-2.761719 2.238281-5 5-5h10c2.761719 0 5 2.238281 5 5zm65-5h-10c-2.761719 0-5 2.238281-5 5v170c0 2.761719 2.238281 5 5 5h10c2.761719 0 5-2.238281 5-5v-170c0-2.761719-2.238281-5-5-5zm0 0" fill="#fd7d43"/><path d="m85 155h20v10h-20zm0 30h20v-10h-20zm0 20h20v-10h-20zm0 20h20v-10h-20zm0 20h20v-10h-20zm0 20h20v-10h-20zm0 20h20v-10h-20zm0 20h20v-10h-20zm70-150v10h20v-10zm0 30h20v-10h-20zm0 20h20v-10h-20zm0 20h20v-10h-20zm0 20h20v-10h-20zm0 20h20v-10h-20zm0 20h20v-10h-20zm0 20h20v-10h-20zm0 0" fill="#ee4424"/><path d="m260 130v200c0 5.523438-4.476562 10-10 10h-30c-5.523438 0-10-4.476562-10-10v-200c0-5.523438 4.476562-10 10-10h30c5.523438 0 10 4.476562 10 10zm140-10h-90c-5.523438 0-10 4.476562-10 10v90c0 5.523438 4.476562 10 10 10h90c5.523438 0 10-4.476562 10-10v-90c0-5.523438-4.476562-10-10-10zm0 0" fill="#0ab59e"/><path d="m245 145v170c0 2.761719-2.238281 5-5 5h-10c-2.761719 0-5-2.238281-5-5v-170c0-2.761719 2.238281-5 5-5h10c2.761719 0 5 2.238281 5 5zm75-5h20v-20h-20zm50-20v20h20v-20zm-50 110h20v-20h-20zm50 0h20v-20h-20zm-70-40v20h20v-20zm0-30h20v-20h-20zm90 50h20v-20h-20zm0-70v20h20v-20zm0 0" fill="#01988c"/><path d="m480 265v20c0 2.761719-2.238281 5-5 5h-170c-2.761719 0-5-2.238281-5-5v-20c0-2.761719 2.238281-5 5-5h170c2.761719 0 5 2.238281 5 5zm-5 45h-170c-2.761719 0-5 2.238281-5 5v20c0 2.761719 2.238281 5 5 5h170c2.761719 0 5-2.238281 5-5v-20c0-2.761719-2.238281-5-5-5zm0 0" fill="#01988c"/><path d="m225 155h20v10h-20zm0 30h20v-10h-20zm0 20h20v-10h-20zm0 20h20v-10h-20zm0 20h20v-10h-20zm0 20h20v-10h-20zm0 20h20v-10h-20zm0 20h20v-10h-20zm245 75c-5.523438 0-10 4.476562-10 10 0 4.78125 3.359375 8.773438 7.84375 9.761719 3.523438-5.183594 6.863281-10.5 10.007812-15.941407-1.832031-2.324218-4.664062-3.820312-7.851562-3.820312zm0-230c5.523438 0 10-4.476562 10-10s-4.476562-10-10-10-10 4.476562-10 10 4.476562 10 10 10zm-60 230c-5.523438 0-10 4.476562-10 10s4.476562 10 10 10 10-4.476562 10-10-4.476562-10-10-10zm-60 0c-5.523438 0-10 4.476562-10 10s4.476562 10 10 10 10-4.476562 10-10-4.476562-10-10-10zm-10-180h30c5.523438 0 10-4.476562 10-10v-30c0-5.523438-4.476562-10-10-10h-30c-5.523438 0-10 4.476562-10 10v30c0 5.523438 4.476562 10 10 10zm-28 80h156c1.105469 0 2-.894531 2-2v-6c0-1.101562-.894531-2-2-2h-156c-1.105469 0-2 .898438-2 2v6c0 1.105469.894531 2 2 2zm158 48v-6c0-1.101562-.894531-2-2-2h-156c-1.105469 0-2 .898438-2 2v6c0 1.105469.894531 2 2 2h156c1.105469 0 2-.894531 2-2zm0 0" fill="#006e66"/></svg>