<svg height="512pt" viewBox="0 0 512.001 512" width="512pt" xmlns="http://www.w3.org/2000/svg"><path d="m506.167969 253.332031c3.214843 0 5.796875 2.613281 5.78125 5.828125-.003907.535156 0 .996094-.003907 1.308594-2.160156 126.054688-95.410156 229.898438-216.761718 248.535156-5.773438.886719-10.964844-3.675781-10.839844-9.546875.222656-10.804687-9.042969-19.457031-19.851562-19.457031h-115.683594c-11.691406 0-23.160156-3.339844-32.9375-9.75-63.882813-41.871094-107.90625-111.535156-114.878906-191.820312-.210938-2.417969 1.710937-4.496094 4.15625-4.425782 2.570312.070313 4.617187-2.183594 4.617187-4.757812v-77.851563c0-3.707031.558594-7.398437 1.660156-10.9375 32.390625-104.398437 130.039063-180.570312 244.839844-180.457031 120.78125.121094 221.953125 83.859375 248.757813 196.464844.742187 3.113281 1.140624 6.332031 1.140624 9.535156v47.332031zm0 0" fill="#314dc8"/><path d="m470 217.5v25h-113.058594l51.441406 51.445312c4.878907 4.878907 4.878907 12.792969 0 17.675782-4.882812 4.882812-12.796874 4.882812-17.679687 0l-69.117187-69.121094h-301.570313v-25h276.574219l-120.980469-120.984375c-4.882813-4.878906-4.882813-12.796875 0-17.675781 4.378906-4.378906 11.191406-4.816406 16.074219-1.339844h208.320312v25h-183.058594l114.996094 115zm-37.777344 117.960938c4.878906-4.882813 4.878906-12.796876 0-17.679688-4.882812-4.882812-12.796875-4.882812-17.679687 0-4.878907 4.882812-4.878907 12.796875 0 17.679688 4.882812 4.878906 12.796875 4.878906 17.679687 0zm22.921875 24.664062c.316407-.257812.621094-.53125.914063-.828125 4.882812-4.878906 4.882812-12.792969 0-17.675781-4.878906-4.882813-12.796875-4.882813-17.675782 0-4.320312 4.320312-4.808593 11.011718-1.484374 15.878906h-29.394532c-6.902344 0-12.5 5.59375-12.5 12.5 0 6.902344 5.597656 12.5 12.5 12.5h40c6.902344 0 12.5-5.597656 12.5-12.5-.003906-4.019531-1.910156-7.589844-4.859375-9.875zm-77.460937 1.035156c-4.882813-4.878906-12.796875-4.878906-17.679688 0-4.878906 4.882813-4.878906 12.796875 0 17.679688 4.882813 4.882812 12.796875 4.882812 17.679688 0 4.878906-4.882813 4.878906-12.796875 0-17.679688zm-46.339844 0c-4.878906-4.878906-12.796875-4.878906-17.675781 0-4.882813 4.882813-4.882813 12.796875 0 17.679688 4.878906 4.882812 12.796875 4.882812 17.675781 0 4.882812-4.882813 4.882812-12.796875 0-17.679688zm0 0" fill="#4f66cf"/><path d="m410.003906 140c-27.613281 0-50-22.386719-50-50s22.386719-50 50-50c27.613282 0 49.996094 22.386719 49.996094 50s-22.382812 50-49.996094 50zm-79.996094 40c-27.613281 0-50 22.386719-50 50s22.386719 50 50 50c27.609376 0 49.996094-22.386719 49.996094-50s-22.386718-50-49.996094-50zm139.992188 155c-19.328125 0-34.996094 15.671875-34.996094 35 0 19.332031 15.667969 35 34.996094 35 19.332031 0 35-15.667969 35-35 0-19.328125-15.667969-35-35-35zm-458.445312-154.960938c-7.445313 24-11.554688 49.511719-11.554688 75.960938 0 7.820312.371094 15.546875 1.054688 23.1875 2.90625.523438 5.890624.8125 8.945312.8125 27.613281 0 49.996094-22.386719 49.996094-50 0-27.125-21.503906-49.1875-48.441406-49.960938zm493.46875 16.425782c-3.175782-.945313-6.539063-1.464844-10.023438-1.464844-19.328125 0-34.996094 15.671875-34.996094 35 0 19.332031 15.667969 35 34.996094 35 6.148438 0 11.921875-1.589844 16.941406-4.371094.027344-1.542968.058594-3.082031.058594-4.628906 0-20.5-2.425781-40.429688-6.976562-59.535156zm0 0" fill="#8694dd"/><path d="m460.003906 90c0 24.191406-17.179687 44.367188-40 49-22.820312-4.632812-40-24.808594-40-49 0-24.1875 17.175782-44.363281 40-48.996094 22.820313 4.632813 40 24.808594 40 48.996094zm-120 91.003906c-22.820312 4.632813-39.996094 24.808594-39.996094 48.996094 0 24.191406 17.175782 44.367188 39.996094 49 22.820313-4.632812 40-24.808594 40-49 0-24.1875-17.175781-44.363281-40-48.996094zm136.996094 154.699219c-15.972656 3.242187-27.996094 17.367187-27.996094 34.296875 0 16.933594 12.023438 31.054688 27.996094 34.296875 15.976562-3.242187 28-17.363281 28-34.296875s-12.023438-31.054688-28-34.296875zm-456.984375-154.699219c-3.382813.6875-6.570313 1.722656-9.667969 3.054688-2.5625 8.769531-4.703125 17.742187-6.339844 26.875-2.128906 11.882812-3.449218 24.042968-3.863281 36.433594-.0937498 2.867187-.128906 5.746093-.128906 8.632812 0 1.972656.0117188 3.945312.0546875 5.90625.0624995 2.808594.1835935 5.601562.3359375 8.390625 5.722656 4.210937 12.390625 7.234375 19.609375 8.699219 22.820313-4.632813 40-24.804688 40-48.996094s-17.179687-44.363281-40-48.996094zm485.007813 15.460938c-.988282-.296875-2-.554688-3.023438-.761719-15.976562 3.242187-28 17.367187-28 34.296875 0 16.933594 12.023438 31.054688 28 34.296875 3.535156-.714844 6.878906-1.96875 9.941406-3.667969.027344-1.539062.058594-3.082031.058594-4.628906 0-20.5-2.425781-40.425781-6.976562-59.535156zm0 0" fill="#a1ade5"/><path d="m250.007812 90c0 44.183594-35.816406 80-79.996093 80-44.183594 0-80-35.816406-80-80s35.816406-80 80-80c44.179687 0 79.996093 35.816406 79.996093 80zm0 0" fill="#62dafa"/><path d="m185.046875 11.425781c-37.011719 7.023438-65 39.523438-65 78.574219 0 39.054688 27.988281 71.550781 65 78.574219 37.007813-7.023438 64.996094-39.519531 64.996094-78.574219 0-39.050781-27.988281-71.550781-64.996094-78.574219zm-15 118.574219c-22.09375 0-40-17.910156-40-40s17.90625-40 40-40c22.089844 0 40 17.910156 40 40s-17.910156 40-40 40zm179.992187 100c0 11.046875-8.953124 20-20 20-11.042968 0-19.996093-8.953125-19.996093-20s8.953125-20 19.996093-20c11.046876 0 20 8.953125 20 20zm-319.988281 0c0 11.046875-8.953125 20-20 20-3.578125 0-6.996093-.953125-9.90625-2.601562.410157-12.394532 1.753907-24.574219 3.863281-36.464844 1.90625-.601563 3.9375-.933594 6.042969-.933594 11.046875 0 20 8.953125 20 20zm399.988281-140c0 11.046875-8.953124 20-20 20-11.046874 0-20-8.953125-20-20s8.953126-20 20-20c11.046876 0 20 8.953125 20 20zm0 0" fill="#98e5fb"/><path d="m310.007812 249.597656v49.714844c0 20.027344-5.011718 39.734375-14.578124 57.324219l-24.0625 44.257812c-3.191407 5.863281-4.859376 12.429688-4.859376 19.105469v30h-131.996093v-52.441406c0-11.191406-4.6875-21.867188-12.925781-29.445313l-17.648438-16.226562c-8.238281-7.574219-12.925781-18.253907-12.925781-29.445313v-102.441406c0-11.046875 8.953125-20 20-20 11.042969 0 20 8.953125 20 20v70.5c0 5.457031 4.597656 9.839844 10.128906 9.480469 5.050781-.328125 8.867187-4.746094 8.867187-9.804688v-160.175781c0-11.046875 8.957032-20 20-20 9.832032 0 17.988282 7.101562 19.667969 16.449219v80.550781l94.382813 12.871094c14.867187 2.027344 25.949218 14.722656 25.949218 29.726562zm0 0" fill="#ffcebf"/><path d="m170.011719 110c3.339843 0 6.480469.832031 9.246093 2.277344-6.386718 3.339844-10.75 10.015625-10.75 17.722656v160.5c0 5.246094-4.25 9.5-9.5 9.5-4.511718 0-8.277343-3.144531-9.25-7.363281.160157-.6875.25-1.402344.25-2.136719v-160.5c.003907-11.046875 8.957032-20 20.003907-20zm-29.925781 250.117188-17.648438-16.230469c-8.238281-7.574219-12.925781-18.253907-12.925781-29.445313v-94.441406c0-7.707031 4.363281-14.382812 10.75-17.722656-2.769531-1.449219-5.910157-2.277344-9.25-2.277344-11.042969 0-19.996094 8.953125-19.996094 20v102.441406c0 11.191406 4.6875 21.871094 12.921875 29.445313l17.652344 16.226562c8.234375 7.578125 12.921875 18.253907 12.921875 29.445313v52.441406h18.5v-60.441406c0-11.191406-4.6875-21.867188-12.925781-29.441406zm129.921874-142.160157v72.792969c0 5.109375 4.140626 9.25 9.25 9.25 5.105469 0 9.25-4.140625 9.25-9.25v-70.273438zm-80.332031 72.792969c0 5.109375 4.140625 9.25 9.25 9.25s9.25-4.140625 9.25-9.25v-81.226562l-18.5-2.523438zm40.332031 0c0 5.109375 4.140626 9.25 9.25 9.25 5.109376 0 9.25-4.140625 9.25-9.25v-75.726562l-18.5-2.523438zm0 0" fill="#ffbfab"/><path d="m123.511719 210v13c0 2.761719-2.238281 5-5 5h-14c-2.761719 0-5-2.238281-5-5v-13c0-6.625 5.371093-12 12-12 6.628906 0 12 5.375 12 12zm46-103c-6.628907 0-12 5.375-12 12v13c0 2.761719 2.238281 5 5 5h14c2.757812 0 5-2.238281 5-5v-13c0-6.625-5.375-12-12-12zm0 0" fill="#ffeee6"/><path d="m275.507812 445v55c0 2.761719-2.238281 5-5 5h-46.609374c-35.585938-4.453125-68.890626-16.21875-98.386719-33.734375v-26.265625c0-2.761719 2.238281-5 5-5h139.996093c2.761719 0 5 2.238281 5 5zm0 0" fill="#fde5bd"/><path d="m270.507812 505h-22.359374c-35.585938-4.453125-68.890626-16.21875-98.386719-33.734375v-26.265625c0-2.761719 2.238281-5 5-5h115.746093c2.761719 0 5 2.238281 5 5v55c0 2.761719-2.238281 5-5 5zm0 0" fill="#fff5f5"/><path d="m296.507812 480v28.800781c-13.195312 2.097657-26.71875 3.199219-40.5 3.199219-51.898437 0-100.175781-15.457031-140.515624-42h171.015624c5.519532 0 10 4.476562 10 10zm0 0" fill="#f02399"/><path d="m296.507812 480v28.800781c-13.195312 2.097657-26.71875 3.199219-40.5 3.199219-43.972656 0-85.347656-11.089844-121.496093-30.621094v-1.378906c0-5.523438 4.476562-10 10-10h141.996093c5.519532 0 10 4.476562 10 10zm0 0" fill="#fd2aa7"/></svg>