<svg height="512pt" viewBox="-6 0 512 512" width="512pt" xmlns="http://www.w3.org/2000/svg"><path d="m500.863281 261.566406c0 138.3125-112.121093 250.433594-250.429687 250.433594-138.3125 0-250.433594-112.121094-250.433594-250.433594 0-138.308594 112.121094-250.429687 250.433594-250.429687 138.308594 0 250.429687 112.121093 250.429687 250.429687zm0 0" fill="#f84e82"/><path d="m450.074219 0h-398.261719c-6.035156 0-10.925781 4.890625-10.925781 10.925781v387.800781c44.742187 68.214844 121.875 113.273438 209.546875 113.273438 88.335937 0 165.984375-45.742188 210.566406-114.828125v-386.246094c0-6.035156-4.890625-10.925781-10.925781-10.925781zm0 0" fill="#99d3ff"/><path d="m98.492188 50.652344h-57.605469v348.074218c15.582031 23.75 35.089843 44.695313 57.605469 61.90625zm0 0" fill="#64badd"/><g fill="#fff"><path d="m424.03125 203.304688h-346.175781c-6.15625 0-11.144531-4.992188-11.144531-11.148438v-94.605469c0-6.152343 4.988281-11.144531 11.144531-11.144531h346.175781c6.15625 0 11.144531 4.992188 11.144531 11.144531v94.605469c0 6.15625-4.988281 11.148438-11.144531 11.148438zm0 0"/><path d="m226.925781 443.515625h-149.609375c-5.855468 0-10.605468-4.75-10.605468-10.609375v-193.546875c0-5.859375 4.75-10.609375 10.605468-10.609375h149.609375c5.859375 0 10.609375 4.75 10.609375 10.609375v193.546875c0 5.859375-4.75 10.609375-10.609375 10.609375zm0 0"/><path d="m424.566406 443.515625h-149.605468c-5.859376 0-10.609376-4.75-10.609376-10.609375v-193.546875c0-5.859375 4.75-10.609375 10.609376-10.609375h149.605468c5.859375 0 10.609375 4.75 10.609375 10.609375v193.546875c0 5.859375-4.75 10.609375-10.609375 10.609375zm0 0"/></g><path d="m461 57.605469h-420.113281v-46.679688c0-6.035156 4.890625-10.925781 10.925781-10.925781h398.261719c6.035156 0 10.925781 4.890625 10.925781 10.925781zm0 0" fill="#4b358e"/><path d="m109.414062 0h-57.601562c-6.035156 0-10.925781 4.890625-10.925781 10.925781v46.679688h57.605469v-46.679688c0-6.035156 4.890624-10.925781 10.921874-10.925781zm0 0" fill="#322277"/><path d="m431.949219 42.707031h-254.75c-3.976563 0-7.199219-3.222656-7.199219-7.199219v-13.410156c0-3.976562 3.222656-7.199218 7.199219-7.199218h254.75c3.976562 0 7.199219 3.222656 7.199219 7.199218v13.410156c0 3.976563-3.222657 7.199219-7.199219 7.199219zm0 0" fill="#fff"/><path d="m113.386719 27.3125c0 5.210938-4.222657 9.433594-9.433594 9.433594s-9.433594-4.222656-9.433594-9.433594 4.222657-9.433594 9.433594-9.433594 9.433594 4.222656 9.433594 9.433594zm0 0" fill="#fdd33a"/><path d="m82.601562 27.3125c0 5.210938-4.226562 9.433594-9.4375 9.433594-5.210937 0-9.433593-4.222656-9.433593-9.433594s4.222656-9.433594 9.433593-9.433594c5.210938 0 9.4375 4.222656 9.4375 9.433594zm0 0" fill="#f84e82"/><path d="m144.175781 27.3125c0 5.210938-4.222656 9.433594-9.433593 9.433594-5.210938 0-9.433594-4.222656-9.433594-9.433594s4.222656-9.433594 9.433594-9.433594c5.210937 0 9.433593 4.222656 9.433593 9.433594zm0 0" fill="#fff"/><path d="m98.492188 86.40625h-20.636719c-6.15625 0-11.144531 4.992188-11.144531 11.144531v94.605469c0 6.15625 4.988281 11.148438 11.144531 11.148438h20.636719zm0 0" fill="#ddd"/><path d="m66.710938 239.359375v192.355469c3.757812 4.058594 7.648437 7.996094 11.667968 11.796875h20.113282v-214.761719h-21.175782c-5.855468 0-10.605468 4.75-10.605468 10.609375zm0 0" fill="#ddd"/></svg>