<svg height="512pt" viewBox="0 0 512 512" width="512pt" xmlns="http://www.w3.org/2000/svg"><path d="m512 256c0 141.386719-114.613281 256-256 256s-256-114.613281-256-256 114.613281-256 256-256 256 114.613281 256 256zm0 0" fill="#7fa8f0"/><path d="m421.820312 274.238281c-6.871093-7.839843-14.617187-15.707031-23.113281-23.519531 4.289063-4.316406 8.34375-8.640625 12.125-12.957031 29.910157-34.136719 40.074219-64.46875 28.621094-85.40625-11.457031-20.9375-42.480469-28.738281-87.359375-21.957031-6.855469 1.035156-13.9375 2.394531-21.195312 4.050781-2.574219-9.996094-5.488282-19.464844-8.71875-28.300781-15.59375-42.621094-37.324219-66.097657-61.191407-66.097657-23.867187 0-45.597656 23.476563-61.1875 66.097657-3.503906 9.578124-6.628906 19.90625-9.359375 30.839843-10.902344-2.851562-21.460937-5.066406-31.546875-6.589843-44.875-6.777344-75.898437 1.019531-87.355469 21.957031-11.457031 20.9375-1.289062 51.269531 28.621094 85.40625 3.78125 4.3125 7.832032 8.636719 12.121094 12.957031-8.492188 7.808594-16.238281 15.679688-23.109375 23.519531-29.910156 34.136719-40.074219 64.46875-28.621094 85.40625 8.761719 16.011719 28.964844 24.339844 58.058594 24.339844 8.949219 0 18.742187-.789063 29.300781-2.382813 13.226563-2 27.265625-5.179687 41.832032-9.433593 2.894531 11.988281 6.25 23.277343 10.058593 33.679687 15.589844 42.625 37.324219 66.097656 61.191407 66.097656 23.863281 0 45.597656-23.472656 61.1875-66.097656 3.503906-9.578125 6.628906-19.90625 9.359374-30.835937 10.902344 2.847656 21.460938 5.066406 31.546876 6.589843 10.558593 1.59375 20.34375 2.382813 29.296874 2.382813 29.089844 0 49.296876-8.328125 58.058594-24.339844 11.453125-20.9375 1.289063-51.269531-28.621094-85.40625zm-67.382812-128.34375c9.96875-1.503906 19.128906-2.246093 27.351562-2.246093 22.574219 0 38.085938 5.582031 43.910157 16.230468 7.949219 14.523438-1.765625 39.148438-26.65625 67.550782-3.765625 4.296874-7.816407 8.601562-12.113281 12.90625-13.304688-11.257813-28.097657-22.3125-44.027344-32.894532-1.746094-20.300781-4.578125-39.71875-8.425782-57.738281 6.839844-1.558594 13.503907-2.832031 19.960938-3.808594zm-71.660156 170.015625c-9.085938 4.972656-18.203125 9.640625-27.28125 13.984375-9.082032-4.34375-18.195313-9.011719-27.28125-13.984375-11.820313-6.464844-23.230469-13.246094-34.125-20.253906-.917969-12.917969-1.390625-26.183594-1.390625-39.65625 0-16 .667969-31.703125 1.957031-46.882812 7.328125-4.460938 14.863281-8.8125 22.570312-13.027344 12.757813-6.980469 25.570313-13.359375 38.269532-19.089844 12.695312 5.730469 25.507812 12.109375 38.269531 19.089844 11.820313 6.464844 23.230469 13.246094 34.121094 20.253906.921875 12.917969 1.394531 26.183594 1.394531 39.65625 0 10.847656-.3125 21.554688-.910156 32.0625-14.261719 9.714844-29.550782 19.074219-45.59375 27.847656zm44.097656-8.042968c-1.578125 16.625-3.910156 32.578124-6.957031 47.542968-14.890625-4.601562-30.332031-10.347656-46-17.125 5.464843-2.765625 10.929687-5.640625 16.382812-8.621094 12.679688-6.9375 24.910157-14.238281 36.574219-21.796874zm-89.800781 30.417968c-12.082031 5.222656-24.023438 9.835938-35.683594 13.78125-2.285156-11.734375-4.136719-24.050781-5.535156-36.800781 8.054687 4.941406 16.34375 9.75 24.835937 14.398437 5.453125 2.980469 10.917969 5.851563 16.382813 8.621094zm-59.339844-53.589844c-15.523437-10.847656-29.738281-22.109374-42.265625-33.488281 12.894531-10.820312 27.234375-21.460937 42.699219-31.652343-.757813 11.925781-1.144531 24.105468-1.144531 36.445312 0 9.679688.246093 19.257812.710937 28.695312zm18.953125-95.015624c1.425781-11.449219 3.21875-22.515626 5.375-33.089844 11.097656 3.429687 22.503906 7.496094 34.082031 12.148437-8.8125 4.25-17.644531 8.785157-26.441406 13.597657-4.394531 2.40625-8.734375 4.855468-13.015625 7.34375zm78.160156-20.9375c15.210938-6.117188 30.121094-11.214844 44.433594-15.191407 2.890625 13.621094 5.183594 28.09375 6.839844 43.183594-8.054688-4.941406-16.34375-9.753906-24.832032-14.398437-8.800781-4.8125-17.628906-9.347657-26.441406-13.59375zm69.394532 58.5625c11.148437 7.789062 21.621093 15.792968 31.28125 23.902343-9.410157 8.550781-19.773438 17.03125-30.929688 25.320313.238281-6.78125.359375-13.628906.359375-20.527344 0-9.679688-.242187-19.257812-.710937-28.695312zm-129.722657-115.769532c12.972657-35.46875 29.910157-55.808594 46.46875-55.808594 16.558594 0 33.496094 20.339844 46.472657 55.808594 3.050781 8.34375 5.804687 17.296875 8.25 26.75-19.292969 5.328125-39.589844 12.601563-60.214844 21.574219-17.007813-7.398437-33.792969-13.644531-49.976563-18.59375 2.625-10.558594 5.628907-20.515625 9-29.730469zm-102.574219 115.894532c-24.886718-28.402344-34.601562-53.027344-26.65625-67.550782 5.824219-10.648437 21.335938-16.230468 43.910157-16.230468 8.222656 0 17.386719.742187 27.355469 2.246093 9.699218 1.464844 19.878906 3.609375 30.402343 6.375-3.105469 15.027344-5.515625 31.003907-7.183593 47.625-20.417969 12.824219-39.210938 26.476563-55.714844 40.445313-4.296875-4.304688-8.347656-8.613282-12.113282-12.910156zm33.621094 138.675781c-37.339844 5.640625-63.316406.542969-71.265625-13.984375-7.945312-14.523438 1.769531-39.148438 26.660157-67.550782 6.703124-7.652343 14.292968-15.34375 22.640624-22.980468 16.0625 14.730468 34.8125 29.246094 55.472657 42.96875 1.570312 18.261718 4.019531 35.8125 7.296875 52.273437-14.238282 4.199219-27.9375 7.328125-40.804688 9.273438zm161.894532 34.359375c-12.976563 35.46875-29.914063 55.808594-46.472657 55.808594-16.558593 0-33.496093-20.339844-46.46875-55.808594-3.714843-10.160156-6.988281-21.21875-9.792969-32.996094 16.523438-5.519531 33.574219-12.320312 50.769532-20.261719 20.753906 9.585938 41.304687 17.511719 60.964844 23.527344-2.625 10.558594-5.632813 20.515625-9 29.730469zm129.226562-48.34375c-7.945312 14.527344-33.921875 19.621094-71.265625 13.984375-9.699219-1.464844-19.878906-3.609375-30.398437-6.375 4.058593-19.640625 6.925781-40.902344 8.503906-63.109375 16.105468-11.332032 30.863281-23.113282 43.859375-35.03125 8.351562 7.636718 15.941406 15.328125 22.644531 22.980468 24.886719 28.402344 34.605469 53.027344 26.65625 67.550782zm0 0" fill="#ffbd4a"/><path d="m304.414062 256c0 23.980469-19.445312 43.425781-43.425781 43.425781-23.984375 0-43.425781-19.445312-43.425781-43.425781 0-23.984375 19.441406-43.425781 43.425781-43.425781 23.980469 0 43.425781 19.441406 43.425781 43.425781zm0 0" fill="#db4d56"/><path d="m304.410156 256c0 23.980469-19.433594 43.425781-43.425781 43.425781-4.324219 0-8.503906-.636719-12.457031-1.816406 17.921875-5.351563 30.972656-21.953125 30.972656-41.609375s-13.050781-36.257812-30.972656-41.609375c3.953125-1.179687 8.132812-1.816406 12.457031-1.816406 23.992187 0 43.425781 19.445312 43.425781 43.425781zm0 0" fill="#b84148"/><path d="m167.417969 371.105469c0 16.960937-13.746094 30.707031-30.707031 30.707031-16.957032 0-30.707032-13.746094-30.707032-30.707031 0-16.957031 13.75-30.707031 30.707032-30.707031 16.960937 0 30.707031 13.75 30.707031 30.707031zm0 0" fill="#db4d56"/><g fill="#ba8936"><path d="m202.0625 156.621094c-2.464844-.8125-4.917969-1.601563-7.351562-2.355469-2.15625 10.574219-5.019532 28.746094-6.445313 40.195313 2.789063-1.617188 5.613281-3.214844 8.449219-4.800782 1.203125-8.90625 3.695312-24.675781 5.347656-33.039062zm0 0"/><path d="m344.359375 227.28125c-2.644531-1.929688-5.328125-3.847656-8.058594-5.753906.46875 9.4375.710938 24.769531.710938 34.449218 0 6.898438-.148438 19.792969-.386719 26.574219 2.703125-2.011719 5.359375-4.03125 7.96875-6.058593.117188-4.800782.226562-15.664063.226562-20.515626 0-7.71875-.160156-21.125-.460937-28.695312zm0 0"/><path d="m193.957031 295.632812c-.917969-12.917968-1.394531-26.183593-1.394531-39.65625 0-15.996093.667969-31.703124 1.960938-46.882812 7.328124-4.460938 14.859374-8.8125 22.566406-13.027344 11.457031-6.265625 26.992187-13.828125 38.410156-19.085937-1.300781-.601563-2.605469-1.199219-3.902344-1.785157-12.699218 5.726563-29.550781 13.890626-42.3125 20.871094-7.707031 4.214844-15.238281 8.566406-22.570312 13.027344-1.289063 15.179688-1.957032 30.886719-1.957032 46.882812 0 13.472657.472657 26.738282 1.390626 39.65625 10.894531 7.007813 22.304687 13.789063 34.125 20.253907 9.085937 4.972656 22.242187 11.554687 31.324218 15.902343 1.296875-.625 2.601563-1.265624 3.902344-1.902343-7.789062-3.800781-19.632812-9.738281-27.421875-14-11.816406-6.464844-23.230469-13.246094-34.121094-20.253907zm0 0"/><path d="m255.5 159.871094c-15.675781-6.671875-35.167969-14.054688-50.113281-18.628906 2.625-10.554688 5.628906-20.515626 9-29.730469 11.953125-32.683594 27.277343-52.507813 42.566406-55.421875-1.304687-.246094-2.605469-.386719-3.90625-.386719-16.558594 0-33.496094 20.34375-46.46875 55.808594-3.371094 9.214843-6.375 19.175781-9 29.730469 16.183594 4.953124 37 12.890624 54.007813 20.292968 1.308593-.570312 2.609374-1.109375 3.914062-1.664062zm0 0"/><path d="m123.929688 240.316406c-3.007813-3.113281-9.394532-9.800781-12.117188-12.90625-24.886719-28.40625-34.605469-53.027344-26.65625-67.554687 5.484375-10.027344 19.5625-15.554688 40.035156-16.167969-1.332031-.035156-2.648437-.0625-3.933594-.0625-22.574218 0-38.082031 5.582031-43.910156 16.230469-7.945312 14.527343 1.769532 39.148437 26.660156 67.554687 3.761719 4.292969 11.320313 12.171875 15.617188 16.476563 1.410156-1.195313 2.859375-2.382813 4.304688-3.570313zm0 0"/><path d="m383.410156 243.894531c1.191406-1.191406 2.359375-2.386719 3.511719-3.578125-12.171875-10.023437-29.910156-23.4375-44.152344-32.894531-1.742187-20.300781-4.578125-39.722656-8.425781-57.742187 6.839844-1.554688 13.503906-2.832032 19.960938-3.804688 8.410156-1.273438 16.238281-1.992188 23.421874-2.1875-1.269531-.035156-2.558593-.058594-3.875-.058594-8.222656 0-17.382812.738282-27.355468 2.246094-6.453125.972656-13.121094 2.25-19.957032 3.804688 3.847657 18.019531 6.683594 37.441406 8.425782 57.742187 15.929687 10.582031 35.140625 25.210937 48.445312 36.472656zm0 0"/><path d="m274.867188 168.75c12.621093-5.074219 32.347656-11.527344 44.386718-15.140625-.144531-.710937-.289062-1.429687-.4375-2.140625-14.3125 3.976562-36.542968 11.164062-51.757812 17.28125 8.8125 4.246094 17.492187 8.753906 26.289062 13.566406 8.492188 4.644532 25.28125 14.496094 33.335938 19.433594-.1875-1.6875-.382813-3.363281-.582032-5.035156-5.394531-3.183594-19.371093-11.347656-24.945312-14.398438-8.800781-4.8125-17.480469-9.320312-26.289062-13.566406zm0 0"/><path d="m314.238281 405.824219c-14.734375 40.289062-34.960937 63.457031-57.285156 65.878906 1.292969.136719 2.59375.222656 3.902344.222656 23.867187 0 45.597656-23.476562 61.191406-66.101562 3.304687-9.035157 6.886719-20.582031 9.503906-30.835938-2.429687-.578125-4.871093-1.183593-7.335937-1.828125-2.734375 10.929688-6.472656 23.089844-9.976563 32.664063zm0 0"/><path d="m290.167969 329.640625c9.691406-5.304687 27.53125-16.007813 36.648437-21.6875.183594-1.757813.363282-3.519531.535156-5.296875-11.664062 7.558594-32.3125 20.046875-44.992187 26.980469-5.449219 2.984375-10.917969 5.855469-16.382813 8.625 15.671876 6.777343 38.5625 14.878906 53.453126 19.480469.160156-.78125.308593-1.574219.464843-2.359376-12.601562-4.15625-33-11.453124-46.109375-17.121093 5.464844-2.765625 10.929688-5.640625 16.382813-8.621094zm0 0"/><path d="m334.886719 359.710938c4.058593-19.644532 6.925781-40.902344 8.507812-63.109376 14.492188-10.199218 32.007813-24.335937 44.015625-35.035156-1.261718-1.191406-2.539062-2.382812-3.835937-3.570312-13 11.917968-31.882813 27.273437-47.988281 38.605468-1.578126 22.207032-4.445313 43.464844-8.503907 63.109376 10.519531 2.761718 20.699219 4.90625 30.402344 6.371093 11.570313 1.75 22.046875 2.464844 31.234375 2.1875-7.183594-.195312-15.015625-.914062-23.429688-2.1875-9.699218-1.464843-19.878906-3.609375-30.402343-6.371093zm0 0"/><path d="m178.039062 219.535156c.097657-1.828125.1875-3.65625.304688-5.472656-15.464844 10.195312-37.921875 26.300781-50.8125 37.121094 12.527344 11.382812 34.757812 28.410156 50.285156 39.257812-.097656-1.914062-.175781-3.839844-.253906-5.769531-12.402344-9.050781-31.90625-24.109375-42.226562-33.488281 10.605468-8.902344 30.320312-23.144532 42.703124-31.648438zm0 0"/><path d="m421.683594 274.214844c-6.867188-7.839844-14.613282-15.707032-23.109375-23.519532 4.289062-4.316406 8.34375-8.640624 12.125-12.957031 29.910156-34.136719 40.074219-64.46875 28.617187-85.40625-9.148437-16.726562-30.800781-25.054687-62.011718-24.277343 27.023437.710937 45.839843 8.984374 54.207031 24.277343 11.453125 20.9375 1.292969 51.269531-28.621094 85.40625-3.78125 4.316407-7.832031 8.640625-12.121094 12.957031 8.492188 7.8125 16.238281 15.679688 23.109375 23.519532 29.910156 34.136718 40.074219 64.46875 28.621094 85.40625-8.371094 15.300781-27.199219 23.578125-54.234375 24.285156 1.34375.035156 2.671875.054688 3.980469.054688 29.089844 0 49.300781-8.328126 58.058594-24.339844 11.457031-20.9375 1.292968-51.269532-28.621094-85.40625zm0 0"/><path d="m314.238281 106.128906c3.234375 8.832032 6.703125 19.886719 9.28125 29.882813 2.484375-.566407 4.941407-1.089844 7.386719-1.585938-2.472656-9.410156-5.800781-19.933593-8.863281-28.296875-15.589844-42.625-37.320313-66.101562-61.1875-66.101562-1.308594 0-2.609375.085937-3.902344.226562 22.324219 2.417969 42.546875 25.585938 57.285156 65.875zm0 0"/><path d="m214.386719 400.441406c-3.71875-10.160156-6.988281-21.21875-9.796875-32.996094 15.277344-5.101562 34.90625-13.082031 50.777344-20.261718-1.304688-.589844-2.605469-1.167969-3.910157-1.769532-17.195312 7.941407-38.148437 16.511719-54.671875 22.03125 2.808594 11.773438 6.078125 22.835938 9.792969 32.996094 12.976563 35.46875 29.914063 55.808594 46.472656 55.808594 1.296875 0 2.601563-.136719 3.902344-.386719-15.289063-2.910156-30.613281-22.738281-42.566406-55.421875zm0 0"/><path d="m74.128906 352.054688c-7.945312-14.527344 1.769532-39.148438 26.660156-67.554688 5.65625-6.457031 15.992188-16.445312 22.839844-22.90625-1.339844-1.191406-2.664062-2.378906-3.964844-3.574219-8.351562 7.636719-19.980468 18.832031-26.683593 26.480469-24.886719 28.40625-34.605469 53.027344-26.65625 67.554688 6.15625 11.253906 23.136719 16.84375 47.835937 16.167968-20.46875-.609375-34.546875-6.140625-40.03125-16.167968zm0 0"/><path d="m195.863281 315.242188c-2.828125-1.667969-5.636719-3.347657-8.410156-5.046876 1.398437 12.75 4.34375 32.664063 6.625 44.398438 2.433594-.824219 4.882813-1.683594 7.335937-2.566406-1.765624-9.394532-4.34375-26.742188-5.550781-36.785156zm0 0"/></g><path d="m449.949219 281.113281c0 16.957031-13.75 30.707031-30.707031 30.707031-16.960938 0-30.707032-13.75-30.707032-30.707031 0-16.960937 13.746094-30.707031 30.707032-30.707031 16.957031 0 30.707031 13.746094 30.707031 30.707031zm0 0" fill="#db4d56"/><path d="m331.449219 78.597656c0 16.957032-13.746094 30.707032-30.707031 30.707032-16.957032 0-30.707032-13.75-30.707032-30.707032 0-16.960937 13.75-30.707031 30.707032-30.707031 16.960937 0 30.707031 13.746094 30.707031 30.707031zm0 0" fill="#db4d56"/><path d="m167.414062 371.105469c0 16.960937-13.742187 30.710937-30.699218 30.710937-3.6875 0-7.230469-.648437-10.511719-1.839844 11.777344-4.292968 20.1875-15.601562 20.1875-28.871093s-8.410156-24.574219-20.1875-28.871094c3.28125-1.191406 6.824219-1.839844 10.511719-1.839844 16.957031 0 30.699218 13.753907 30.699218 30.710938zm0 0" fill="#b84148"/><path d="m449.953125 281.109375c0 16.957031-13.75 30.710937-30.707031 30.710937-3.691406 0-7.230469-.648437-10.511719-1.851562 11.773437-4.292969 20.1875-15.601562 20.1875-28.859375 0-13.261719-8.414063-24.554687-20.1875-28.851563 3.28125-1.199218 6.820313-1.847656 10.511719-1.847656 16.957031 0 30.707031 13.738282 30.707031 30.699219zm0 0" fill="#b84148"/><path d="m331.453125 78.597656c0 16.957032-13.75 30.710938-30.710937 30.710938-3.6875 0-7.230469-.648438-10.511719-1.839844 11.777343-4.296875 20.199219-15.601562 20.199219-28.871094 0-13.269531-8.421876-24.578125-20.199219-28.871094 3.28125-1.191406 6.824219-1.839843 10.511719-1.839843 16.960937 0 30.710937 13.75 30.710937 30.710937zm0 0" fill="#b84148"/></svg>