<?xml version="1.0" encoding="iso-8859-1"?>
<!-- Generator: Adobe Illustrator 19.0.0, SVG Export Plug-In . SVG Version: 6.00 Build 0)  -->
<svg version="1.1" id="Capa_1" xmlns="http://www.w3.org/2000/svg" xmlns:xlink="http://www.w3.org/1999/xlink" x="0px" y="0px"
	 viewBox="0 0 512.001 512.001" style="enable-background:new 0 0 512.001 512.001;" xml:space="preserve">
<path style="fill:#50C8C8;" d="M512,256c0,141.385-114.615,256-256,256S0,397.385,0,256S114.615,0,256,0S512,114.615,512,256z"/>
<path style="fill:#82E1E1;" d="M320.592,31.956c-1.036-2.231-0.695-4.784,0.892-6.663l9.993-13.977
	c6.68,2.058,13.24,4.387,19.675,6.965v64.508c0,3.976-3.234,7.211-7.211,7.211h-5.766c-3.976,0-7.211-3.234-7.211-7.211V35.573
	h-4.706C323.799,35.573,321.628,34.187,320.592,31.956z M315.107,246.573h4.706v47.217c0,3.976,3.234,7.211,7.211,7.211h5.766
	c3.976,0,7.211-3.234,7.211-7.211v-75.579c0-3.976-3.234-7.211-7.211-7.211h-0.203c-2.413,0-4.69,1.058-6.245,2.902l-16.01,22.391
	c-1.587,1.88-1.928,4.432-0.892,6.663C310.475,245.187,312.647,246.573,315.107,246.573z M236.998,55V35
	c0-17.863,13.386-32.59,30.672-34.724c4.549,0.204,9.067,0.523,13.551,0.961C296.075,5.286,306.998,18.863,306.998,35v20
	c0,19.33-15.67,35-35,35l0,0C252.668,90,236.998,74.33,236.998,55z M256.998,55c0,8.284,6.716,15,15,15s15-6.716,15-15V35
	c0-8.284-6.716-15-15-15s-15,6.716-15,15V55z M144.021,406.5h5.766c3.976,0,7.211-3.234,7.211-7.211V323.71
	c0-3.976-3.234-7.211-7.211-7.211h-0.203c-2.413,0-4.69,1.058-6.245,2.902l-16.01,22.391c-1.587,1.88-1.928,4.432-0.892,6.663
	s3.207,3.617,5.667,3.617h4.706v47.217C136.811,403.266,140.045,406.5,144.021,406.5z M345,406.5L345,406.5c-19.33,0-35-15.67-35-35
	v-20c0-19.33,15.67-35,35-35l0,0c19.33,0,35,15.67,35,35v20C380,390.83,364.33,406.5,345,406.5z M360,351.5c0-8.284-6.716-15-15-15
	s-15,6.716-15,15v20c0,8.284,6.716,15,15,15s15-6.716,15-15V351.5z M324.259,141.073h4.706v47.217c0,3.976,3.234,7.211,7.211,7.211
	h5.766c3.976,0,7.211-3.234,7.211-7.211v-75.579c0-3.976-3.234-7.211-7.211-7.211h-0.203c-2.413,0-4.69,1.058-6.245,2.902
	l-16.01,22.391c-1.587,1.88-1.928,4.432-0.892,6.663C319.628,139.687,321.799,141.073,324.259,141.073z M123.848,422L123.848,422
	c-17.081,0-31.296,12.239-34.374,28.425c6.208,5.322,12.672,10.351,19.374,15.068V457c0-8.284,6.716-15,15-15s15,6.716,15,15v20
	c0,2.138-0.454,4.167-1.26,6.008c5.896,3.082,11.922,5.948,18.077,8.573c2.038-4.44,3.183-9.375,3.183-14.581v-20
	C158.848,437.671,143.178,422,123.848,422z M55.107,141.073h4.706v47.217c0,3.976,3.234,7.211,7.211,7.211h5.766
	c3.976,0,7.211-3.234,7.211-7.211v-75.579c0-3.976-3.234-7.211-7.211-7.211h-0.203c-2.413,0-4.69,1.058-6.245,2.902l-16.01,22.391
	c-1.587,1.88-1.928,4.432-0.892,6.663C50.475,139.687,52.647,141.073,55.107,141.073z M23.942,316.5h-0.203
	c-2.413,0-4.69,1.058-6.245,2.902l-6.899,9.649c5.146,17.313,12.061,33.863,20.558,49.429v-54.769
	C31.152,319.734,27.918,316.5,23.942,316.5z M390.003,422L390.003,422c-19.33,0-35,15.67-35,35v20c0,4.942,1.03,9.642,2.878,13.905
	c6.152-2.672,12.177-5.577,18.067-8.707c-0.6-1.622-0.944-3.368-0.944-5.198v-20c0-8.284,6.716-15,15-15s15,6.716,15,15v7.18
	c6.604-4.735,12.974-9.775,19.089-15.102C420.501,433.566,406.607,422,390.003,422z M477,316.5c-19.33,0-35,15.67-35,35v20
	c0,15.005,9.444,27.799,22.711,32.776c4.101-5.761,7.954-11.71,11.576-17.812C468.336,386.089,462,379.544,462,371.5v-20
	c0-8.284,6.716-15,15-15s15,6.716,15,15v3.858c3.871-9.183,7.215-18.642,10.009-28.335C495.655,320.533,486.801,316.5,477,316.5
	L477,316.5z M405,90L405,90c12.74,0,23.886-6.808,30.009-16.983c-4.994-4.886-10.179-9.576-15.558-14.043
	C417.707,65.327,411.906,70,405,70c-8.284,0-15-6.716-15-15V37.845c-6.201-3.817-12.577-7.374-19.113-10.663
	C370.313,29.698,370,32.312,370,35v20C370,74.33,385.67,90,405,90z M454.774,141.073h4.706v47.217c0,3.976,3.234,7.211,7.211,7.211
	h5.766c3.976,0,7.211-3.234,7.211-7.211v-56.882c-4.314-7.728-9.012-15.211-14.077-22.42L450,130.793
	c-1.587,1.88-1.928,4.432-0.892,6.663C450.142,139.687,452.314,141.073,454.774,141.073z M18.176,195.5h5.766
	c3.976,0,7.211-3.234,7.211-7.211V133.52c-8.293,15.193-15.082,31.322-20.187,48.184v6.586
	C10.965,192.266,14.199,195.5,18.176,195.5z M449.479,246.573v47.217c0,3.976,3.234,7.211,7.211,7.211h5.766
	c3.976,0,7.211-3.234,7.211-7.211v-75.579c0-3.976-3.235-7.211-7.211-7.211h-0.203c-2.413,0-4.69,1.058-6.245,2.902l-16.01,22.391
	c-1.587,1.88-1.928,4.432-0.892,6.663c1.036,2.231,3.207,3.617,5.667,3.617H449.479z M101.998,90L101.998,90c19.33,0,35-15.67,35-35
	V35c0-1.862-0.148-3.688-0.428-5.471c-6.705,3.543-13.236,7.369-19.572,11.474V55c0,8.284-6.716,15-15,15
	c-5.699,0-10.655-3.178-13.194-7.859c-5.12,4.42-10.058,9.045-14.812,13.852C80.377,84.498,90.545,90,101.998,90z M81.998,406.5
	L81.998,406.5c-19.33,0-35-15.67-35-35v-20c0-19.33,15.67-35,35-35l0,0c19.33,0,35,15.67,35,35v20
	C116.998,390.83,101.328,406.5,81.998,406.5z M96.998,351.5c0-8.284-6.716-15-15-15s-15,6.716-15,15v20c0,8.284,6.716,15,15,15
	s15-6.716,15-15V351.5z M408.176,406.5h5.766c3.976,0,7.211-3.234,7.211-7.211V323.71c0-3.976-3.234-7.211-7.211-7.211h-0.203
	c-2.413,0-4.69,1.058-6.245,2.902l-16.01,22.391c-1.587,1.88-1.928,4.432-0.892,6.663s3.207,3.617,5.667,3.617h4.706v47.217
	C400.965,403.266,404.199,406.5,408.176,406.5z M287.454,422h-0.203c-2.413,0-4.69,1.058-6.245,2.902l-16.01,22.391
	c-1.587,1.88-1.928,4.432-0.892,6.663s3.207,3.617,5.667,3.617h4.706v47.217c0,2.673,1.465,5.005,3.63,6.25
	c5.026-0.43,10.01-1.003,14.949-1.719c1.004-1.239,1.609-2.815,1.609-4.531v-75.579C294.665,425.234,291.43,422,287.454,422z
	 M270.965,352.073v47.217c0,3.976,3.234,7.211,7.211,7.211h5.766c3.976,0,7.211-3.234,7.211-7.211v-75.579
	c0-3.976-3.234-7.211-7.211-7.211h-0.203c-2.413,0-4.69,1.058-6.245,2.902l-16.01,22.391c-1.587,1.88-1.928,4.432-0.892,6.663
	s3.207,3.617,5.667,3.617H270.965z M265.107,246.573h4.706v47.217c0,3.976,3.234,7.211,7.211,7.211h5.766
	c3.976,0,7.211-3.234,7.211-7.211v-75.579c0-3.976-3.234-7.211-7.211-7.211h-0.203c-2.413,0-4.69,1.058-6.245,2.902l-16.01,22.391
	c-1.587,1.88-1.928,4.432-0.892,6.663C260.475,245.187,262.647,246.573,265.107,246.573z M332.789,422h-0.203
	c-2.413,0-4.69,1.058-6.245,2.902l-16.01,22.391c-1.587,1.88-1.928,4.432-0.892,6.663s3.207,3.617,5.667,3.617h4.706v46.408
	c6.846-1.757,13.575-3.802,20.187-6.099V429.21C340,425.234,336.766,422,332.789,422z M131.152,112.711
	c0-3.976-3.234-7.211-7.211-7.211h-0.203c-2.413,0-4.69,1.058-6.245,2.902l-16.01,22.391c-1.587,1.88-1.928,4.432-0.892,6.663
	c1.036,2.231,3.207,3.617,5.667,3.617h4.706v47.217c0,3.976,3.234,7.211,7.211,7.211h5.766c3.976,0,7.211-3.234,7.211-7.211V112.711
	z M428,246v20c0,19.33-15.67,35-35,35l0,0c-19.33,0-35-15.67-35-35v-20c0-19.33,15.67-35,35-35l0,0C412.33,211,428,226.67,428,246z
	 M408,246c0-8.284-6.716-15-15-15s-15,6.716-15,15v20c0,8.284,6.716,15,15,15s15-6.716,15-15V246z M35,301L35,301
	c-17.315,0-31.685-12.577-34.494-29.093C0.184,266.645,0,261.344,0,256s0.184-10.645,0.506-15.907C3.315,223.577,17.685,211,35,211
	l0,0c19.33,0,35,15.67,35,35v20C70,285.33,54.33,301,35,301z M50,246c0-8.284-6.716-15-15-15s-15,6.716-15,15v20
	c0,8.284,6.716,15,15,15s15-6.716,15-15V246z M438,140.5v20c0,19.33-15.67,35-35,35l0,0c-19.33,0-35-15.67-35-35v-20
	c0-19.33,15.67-35,35-35l0,0C422.33,105.5,438,121.17,438,140.5z M418,140.5c0-8.284-6.716-15-15-15s-15,6.716-15,15v20
	c0,8.284,6.716,15,15,15s15-6.716,15-15V140.5z M508.26,212.244c-0.713,0.446-1.363,0.999-1.918,1.657l-16.01,22.391
	c-1.587,1.88-1.928,4.432-0.892,6.663c1.036,2.231,3.207,3.617,5.667,3.617h4.706v47.217c0,3.976,3.234,7.211,7.211,7.211h1.031
	c2.591-14.61,3.946-29.646,3.946-45C512,241.081,510.709,226.464,508.26,212.244z M308,140.5v20c0,19.33-15.67,35-35,35l0,0
	c-19.33,0-35-15.67-35-35v-20c0-19.33,15.67-35,35-35l0,0C292.33,105.5,308,121.17,308,140.5z M288,140.5c0-8.284-6.716-15-15-15
	s-15,6.716-15,15v20c0,8.284,6.716,15,15,15s15-6.716,15-15V140.5z M185,105.5L185,105.5c19.33,0,35,15.67,35,35v20
	c0,19.33-15.67,35-35,35l0,0c-19.33,0-35-15.67-35-35v-20C150,121.17,165.67,105.5,185,105.5z M170,160.5c0,8.284,6.716,15,15,15
	s15-6.716,15-15v-20c0-8.284-6.716-15-15-15s-15,6.716-15,15V160.5z M97.023,301h5.766c3.976,0,7.211-3.234,7.211-7.211V218.21
	c0-3.976-3.234-7.211-7.211-7.211h-0.203c-2.413,0-4.69,1.058-6.245,2.902l-16.01,22.391c-1.587,1.88-1.928,4.432-0.892,6.663
	c1.036,2.231,3.207,3.617,5.667,3.617h4.706v47.217C89.813,297.766,93.047,301,97.023,301z M174.997,371.5v-20
	c0-19.33,15.67-35,35-35l0,0c19.33,0,35,15.67,35,35v20c0,19.33-15.67,35-35,35l0,0C190.667,406.5,174.997,390.83,174.997,371.5z
	 M194.997,371.5c0,8.284,6.716,15,15,15s15-6.716,15-15v-20c0-8.284-6.716-15-15-15s-15,6.716-15,15V371.5z M165,301L165,301
	c-19.33,0-35-15.67-35-35v-20c0-19.33,15.67-35,35-35l0,0c19.33,0,35,15.67,35,35v20C200,285.33,184.33,301,165,301z M180,246
	c0-8.284-6.716-15-15-15s-15,6.716-15,15v20c0,8.284,6.716,15,15,15s15-6.716,15-15V246z M210.592,242.956
	c1.036,2.231,3.207,3.617,5.667,3.617h4.706v47.217c0,3.976,3.234,7.211,7.211,7.211h5.766c3.976,0,7.211-3.234,7.211-7.211v-75.579
	c0-3.976-3.234-7.211-7.211-7.211h-0.203c-2.413,0-4.69,1.058-6.245,2.902l-16.01,22.391
	C209.897,238.172,209.555,240.725,210.592,242.956z M152.105,35.573h4.706V82.79c0,3.976,3.234,7.211,7.211,7.211h5.766
	c3.976,0,7.211-3.234,7.211-7.211V12.443c-9.755,3.162-19.253,6.892-28.456,11.154l-1.213,1.696
	c-1.587,1.88-1.928,4.432-0.892,6.663C147.473,34.187,149.645,35.573,152.105,35.573z M246.998,457v20
	c0,15.216-9.713,28.159-23.275,32.981c-11.994-1.509-23.723-3.862-35.14-6.971c-7.112-6.406-11.585-15.685-11.585-26.01v-20
	c0-19.33,15.67-35,35-35l0,0C231.328,422,246.998,437.671,246.998,457z M226.998,457c0-8.284-6.716-15-15-15s-15,6.716-15,15v20
	c0,8.284,6.716,15,15,15s15-6.716,15-15V457z M193.257,35.573h4.706V82.79c0,3.976,3.234,7.211,7.211,7.211h5.766
	c3.976,0,7.211-3.234,7.211-7.211V7.211c0-1.577-0.515-3.033-1.377-4.221c-4.784,0.736-9.52,1.617-14.213,2.614l-14.078,19.69
	c-1.587,1.88-1.928,4.432-0.892,6.663C188.626,34.187,190.797,35.573,193.257,35.573z"/>
<path style="fill:#415A87;" d="M311.301,338.051h-8.079c-1.85,0-3.64,0.253-5.342,0.719c-1.671-12.478-4.924-24.453-9.551-35.72
	c1.701-0.448,3.371-1.122,4.967-2.043l6.997-4.04c9.661-5.577,12.971-17.931,7.393-27.592s-17.931-12.971-27.592-7.393l-6.997,4.04
	c-1.605,0.927-3.031,2.044-4.274,3.301c-7.572-9.784-16.362-18.574-26.146-26.146c1.257-1.243,2.375-2.668,3.301-4.273l4.04-6.997
	c5.578-9.661,2.268-22.015-7.393-27.592s-22.014-2.268-27.592,7.393l-4.04,6.997c-0.922,1.596-1.595,3.267-2.043,4.967
	c-11.268-4.626-23.243-7.88-35.72-9.55c0.466-1.703,0.719-3.492,0.719-5.342v-8.08c0-11.155-9.043-20.199-20.199-20.199
	s-20.199,9.043-20.199,20.199v8.08c0,1.85,0.254,3.64,0.719,5.342c-12.478,1.67-24.453,4.924-35.72,9.55
	c-0.448-1.7-1.122-3.371-2.043-4.967l-4.04-6.997c-5.578-9.661-17.931-12.971-27.592-7.393s-12.971,17.931-7.393,27.592l4.04,6.997
	c0.927,1.605,2.044,3.031,3.301,4.273c-9.784,7.572-18.574,16.362-26.146,26.146c-1.243-1.257-2.668-2.375-4.274-3.301l-6.997-4.04
	c-9.393-5.423-21.314-2.426-27.095,6.624c0.407,8.394,1.226,16.679,2.423,24.841c1.29,1.345,2.778,2.542,4.473,3.52l6.997,4.04
	c1.596,0.921,3.266,1.596,4.967,2.043c-3.584,8.728-6.332,17.884-8.171,27.366C35.735,411.953,100.047,476.266,181.584,501
	c9.482-1.838,18.638-4.587,27.366-8.17c0.448,1.7,1.122,3.371,2.043,4.967l4.04,6.997c0.979,1.695,2.176,3.183,3.521,4.473
	c8.162,1.197,16.447,2.016,24.841,2.423c9.05-5.781,12.047-17.701,6.624-27.095l-4.04-6.997c-0.927-1.605-2.044-3.031-3.301-4.273
	c9.784-7.572,18.574-16.362,26.146-26.146c1.243,1.257,2.668,2.375,4.274,3.301l6.997,4.04c9.661,5.578,22.014,2.268,27.592-7.393
	s2.268-22.015-7.393-27.592l-6.997-4.04c-1.596-0.921-3.266-1.596-4.967-2.043c4.627-11.268,7.88-23.243,9.551-35.72
	c1.702,0.466,3.492,0.719,5.342,0.719h8.079c11.156,0,20.199-9.043,20.199-20.199S322.457,338.051,311.301,338.051z M153.75,427.734
	c-38.375,0-69.484-31.109-69.484-69.484s31.109-69.484,69.484-69.484s69.484,31.109,69.484,69.484S192.125,427.734,153.75,427.734z
	 M500.573,147.756l-5.955-1.596c-1.367-0.366-2.739-0.52-4.089-0.512c1.196-9.372,1.196-18.866,0-28.238
	c1.35,0.008,2.721-0.145,4.089-0.511l5.955-1.596c8.222-2.203,13.101-10.654,10.898-18.875s-10.654-13.101-18.875-10.897
	l-5.955,1.595c-1.359,0.364-2.617,0.914-3.777,1.59c-3.585-8.584-8.295-16.808-14.132-24.448c1.171-0.667,2.279-1.485,3.278-2.483
	l4.359-4.359c6.019-6.019,6.019-15.776,0-21.795s-15.777-6.019-21.795,0l-4.359,4.359c-0.999,0.999-1.816,2.107-2.483,3.278
	c-7.64-5.837-15.864-10.547-24.448-14.132c0.677-1.16,1.226-2.417,1.59-3.777l1.595-5.955c2.203-8.222-2.676-16.672-10.898-18.875
	c-8.221-2.203-16.672,2.676-18.875,10.898l-1.595,5.955c-0.366,1.367-0.52,2.738-0.512,4.088c-9.372-1.195-18.866-1.195-28.238,0
	c0.008-1.35-0.145-2.721-0.512-4.088l-1.596-5.955c-2.203-8.222-10.654-13.101-18.875-10.898
	c-8.222,2.203-13.101,10.654-10.898,18.875l1.595,5.955c0.364,1.359,0.913,2.617,1.59,3.777
	c-8.584,3.585-16.808,8.295-24.448,14.132c-0.667-1.171-1.484-2.28-2.483-3.278l-4.359-4.359c-6.019-6.019-15.777-6.019-21.795,0
	s-6.019,15.777,0,21.795l4.359,4.359c0.999,0.999,2.108,1.816,3.278,2.483c-5.837,7.64-10.547,15.864-14.132,24.448
	c-1.16-0.677-2.417-1.226-3.777-1.59l-5.955-1.595c-8.222-2.203-16.672,2.676-18.875,10.897
	c-2.203,8.222,2.676,16.672,10.898,18.875l5.955,1.596c1.367,0.366,2.739,0.52,4.089,0.511c-1.196,9.373-1.196,18.866,0,28.238
	c-1.35-0.008-2.721,0.146-4.089,0.512l-5.955,1.596c-8.222,2.203-13.101,10.654-10.898,18.875s10.654,13.101,18.875,10.897
	l5.955-1.596c1.359-0.364,2.617-0.913,3.777-1.59c3.585,8.584,8.295,16.808,14.132,24.448c-1.171,0.667-2.28,1.485-3.278,2.483
	l-4.359,4.359c-6.019,6.019-6.019,15.776,0,21.795s15.777,6.019,21.795,0l4.359-4.359c0.999-0.999,1.816-2.107,2.483-3.278
	c7.64,5.837,15.864,10.547,24.448,14.132c-0.677,1.16-1.226,2.417-1.59,3.777l-1.595,5.955c-2.203,8.222,2.676,16.672,10.898,18.876
	c8.222,2.203,16.672-2.676,18.875-10.898l1.596-5.955c0.366-1.367,0.52-2.738,0.512-4.088c9.372,1.195,18.866,1.195,28.238,0
	c-0.008,1.35,0.145,2.721,0.512,4.088l1.595,5.955c2.203,8.222,10.654,13.101,18.875,10.898
	c8.222-2.203,13.101-10.654,10.898-18.876l-1.595-5.955c-0.364-1.359-0.913-2.617-1.59-3.777
	c8.584-3.585,16.808-8.295,24.448-14.132c0.667,1.171,1.484,2.279,2.483,3.278l4.359,4.359c6.019,6.019,15.777,6.019,21.795,0
	c6.019-6.019,6.019-15.776,0-21.795l-4.359-4.359c-0.999-0.999-2.108-1.816-3.278-2.483c5.837-7.64,10.547-15.864,14.132-24.448
	c1.16,0.677,2.417,1.226,3.777,1.59l5.955,1.596c8.222,2.203,16.672-2.676,18.875-10.897
	C513.674,158.41,508.795,149.96,500.573,147.756z M417.958,169.018c-20.704,20.704-54.272,20.704-74.976,0s-20.704-54.272,0-74.976
	s54.272-20.704,74.976,0C438.662,114.746,438.662,148.314,417.958,169.018z"/>
<path style="fill:#414669;" d="M153.75,261.296c-53.547,0-96.955,43.408-96.955,96.955s43.408,96.955,96.955,96.955
	s96.955-43.408,96.955-96.955S207.297,261.296,153.75,261.296z M153.75,427.734c-38.375,0-69.484-31.109-69.484-69.484
	s31.109-69.484,69.484-69.484s69.484,31.109,69.484,69.484S192.125,427.734,153.75,427.734z M432.779,79.221
	c-28.889-28.889-75.728-28.889-104.618,0s-28.889,75.728,0,104.618c28.889,28.889,75.728,28.889,104.618,0
	C461.668,154.949,461.668,108.11,432.779,79.221z M417.958,169.018c-20.704,20.704-54.272,20.704-74.976,0s-20.704-54.272,0-74.976
	s54.272-20.704,74.976,0C438.662,114.746,438.662,148.314,417.958,169.018z"/>
<g>
</g>
<g>
</g>
<g>
</g>
<g>
</g>
<g>
</g>
<g>
</g>
<g>
</g>
<g>
</g>
<g>
</g>
<g>
</g>
<g>
</g>
<g>
</g>
<g>
</g>
<g>
</g>
<g>
</g>
</svg>
