<?xml version="1.0" encoding="iso-8859-1"?>
<!-- Generator: Adobe Illustrator 19.0.0, SVG Export Plug-In . SVG Version: 6.00 Build 0)  -->
<svg version="1.1" id="Capa_1" xmlns="http://www.w3.org/2000/svg" xmlns:xlink="http://www.w3.org/1999/xlink" x="0px" y="0px"
	 viewBox="0 0 512 512" style="enable-background:new 0 0 512 512;" xml:space="preserve">
<path style="fill:#21B76C;" d="M512,256c0,63.592-23.197,121.793-61.586,166.557C403.466,477.309,333.782,512,256,512
	s-147.466-34.691-194.414-89.443C23.197,377.793,0,319.592,0,256S23.197,134.207,61.586,89.443
	c24.492-28.557,55.171-51.66,89.955-67.229C183.442,7.941,218.791,0,256,0c37.219,0,72.568,7.941,104.469,22.215
	c34.785,15.569,65.452,38.672,89.945,67.229C488.803,134.207,512,192.408,512,256z"/>
<path style="fill:#FCFCFC;" d="M450.414,38.128v384.428c-9.571,11.16-20.083,21.494-31.42,30.866
	c-2.006,1.651-4.033,3.281-6.092,4.869c-8.098,6.301-16.593,12.121-25.433,17.408c-14.064,8.443-29.006,15.559-44.648,21.201
	C315.705,506.671,286.48,512,256,512s-59.705-5.329-86.821-15.099c-15.642-5.642-30.584-12.758-44.648-21.201
	c-8.84-5.287-17.335-11.107-25.433-17.408c-2.058-1.588-4.086-3.218-6.092-4.869c-11.337-9.373-21.849-19.707-31.42-30.866V38.128
	L89.36,17.23l27.784,20.898l27.773-20.898l6.625,4.984l21.149,15.914l27.773-20.898l27.784,20.898L256.01,17.23l27.773,20.898
	l27.773-20.898l27.763,20.898l21.149-15.914l6.625-4.984l27.773,20.898L422.64,17.23L450.414,38.128z"/>
<rect x="93.006" y="71.042" style="fill:#515878;" width="325.987" height="78.363"/>
<g>
	<path style="fill:#FCFCFC;" d="M130.18,133.285l-13.63-24.819v24.389c0,2.295-2.798,3.443-5.595,3.443
		c-2.798,0-5.595-1.148-5.595-3.443V87.305c0-2.368,2.798-3.443,5.595-3.443c4.017,0,5.523,0.359,8.249,5.595l11.62,22.165v-24.39
		c0-2.368,2.798-3.372,5.595-3.372s5.595,1.004,5.595,3.372v45.622c0,2.295-2.798,3.443-5.595,3.443
		C133.838,136.298,131.542,135.796,130.18,133.285z"/>
	<path style="fill:#FCFCFC;" d="M165.26,105.739h10.759c2.152,0,3.372,2.08,3.372,4.376c0,1.937-1.004,4.233-3.372,4.233H165.26
		v12.195h19.224c2.151,0,3.372,2.296,3.372,4.95c0,2.296-1.005,4.807-3.372,4.807h-25.537c-2.439,0-4.878-1.148-4.878-3.443V87.305
		c0-2.296,2.439-3.443,4.878-3.443h25.537c2.367,0,3.372,2.511,3.372,4.807c0,2.654-1.22,4.95-3.372,4.95H165.26V105.739z"/>
	<path style="fill:#FCFCFC;" d="M244.527,132.999c-0.861,2.511-4.089,3.73-7.388,3.73c-3.228,0-6.671-1.219-7.245-3.73l-3.73-17
		l-3.73,17c-0.574,2.511-4.018,3.73-7.245,3.73c-3.3,0-6.6-1.219-7.388-3.73l-14.273-43.757c-0.071-0.214-0.143-0.574-0.143-0.932
		c0-2.439,4.018-4.447,7.245-4.447c1.722,0,3.157,0.575,3.587,2.08l10.904,36.799l5.666-24.246c0.43-1.937,2.941-2.941,5.38-2.941
		c2.439,0,4.95,1.004,5.38,2.941l5.666,24.246l10.904-36.799c0.43-1.506,1.865-2.08,3.586-2.08c3.229,0,7.245,2.009,7.245,4.447
		c0,0.358-0.072,0.718-0.144,0.932L244.527,132.999z"/>
	<path style="fill:#FCFCFC;" d="M288.863,122.238c0-8.679-22.739-7.173-22.739-23.958c0-10.759,9.397-14.849,18.363-14.849
		c3.802,0,14.275,0.718,14.275,6.312c0,1.937-1.291,5.882-4.447,5.882c-2.582,0-3.946-2.726-9.827-2.726
		c-5.093,0-7.173,2.08-7.173,4.304c0,7.173,22.739,5.811,22.739,23.887c0,10.329-7.532,15.924-17.932,15.924
		c-9.397,0-17.288-4.591-17.288-9.326c0-2.439,2.152-6.026,4.878-6.026c3.372,0,5.523,5.308,12.195,5.308
		C285.205,126.973,288.863,125.681,288.863,122.238z"/>
	<rect x="382.088" y="119.745" style="fill:#FCFCFC;" width="27.864" height="17.415"/>
	<rect x="343.771" y="119.745" style="fill:#FCFCFC;" width="27.864" height="17.415"/>
</g>
<g>
	<rect x="93.006" y="166.818" style="fill:#515878;" width="189.471" height="21.196"/>
	<rect x="93.006" y="205.427" style="fill:#515878;" width="150.455" height="21.196"/>
	<path style="fill:#515878;" d="M243.461,321.264v137.028H99.098c-2.058-1.588-4.086-3.218-6.092-4.869V321.264H243.461z"/>
	<rect x="93.006" y="244.046" style="fill:#515878;" width="150.455" height="21.196"/>
	<rect x="93.006" y="282.655" style="fill:#515878;" width="150.455" height="21.196"/>
	<path style="fill:#515878;" d="M243.461,475.7v21.201h-74.282c-15.642-5.642-30.584-12.758-44.648-21.201H243.461z"/>
	<rect x="268.539" y="205.427" style="fill:#515878;" width="150.455" height="21.196"/>
	<rect x="268.539" y="244.046" style="fill:#515878;" width="150.455" height="21.196"/>
	<rect x="268.539" y="205.427" style="fill:#515878;" width="150.455" height="98.419"/>
	<rect x="268.539" y="321.264" style="fill:#515878;" width="150.455" height="21.196"/>
	<rect x="268.539" y="359.873" style="fill:#515878;" width="150.455" height="21.196"/>
	<rect x="268.539" y="398.482" style="fill:#515878;" width="150.455" height="21.196"/>
	<path style="fill:#515878;" d="M418.994,437.091v16.332c-2.006,1.651-4.033,3.281-6.092,4.869H268.539v-21.201H418.994z"/>
	<path style="fill:#515878;" d="M387.469,475.7c-14.064,8.443-29.006,15.559-44.648,21.201h-74.282V475.7H387.469z"/>
	<rect x="268.539" y="166.818" style="fill:#515878;" width="150.455" height="21.196"/>
</g>
<g>
	<polygon style="fill:#FCFCFC;" points="82.547,445.757 143.848,361.469 209.328,445.757 	"/>
	<polygon style="fill:#FCFCFC;" points="253.91,445.753 220.473,445.753 172.262,383.697 188.426,361.472 	"/>
	<circle style="fill:#FCFCFC;" cx="217.684" cy="347.188" r="14.629"/>
	<path style="fill:#FCFCFC;" d="M374.768,252.087c-4.734-7.234-14.375-5.94-23.693-5.94c-9.318,0-15.746-5.141-15.746-5.141
		c-2.25,7.391-11.653,11.082-11.653,11.082s-6.341-13.653-2.808-21.043c3.534-7.391,10.283-4.178,10.283-4.178
		s0.963-9.645,12.372-12.372C358.935,210.813,385.609,219.789,374.768,252.087z"/>
	<path style="fill:#FCFCFC;" d="M385.027,260.661c0,5.413-3.095,9.797-6.912,9.797c-0.783,0-1.53-0.185-2.234-0.526
		c-2.581,14.63-13.537,25.622-26.655,25.622c-13.125,0-24.081-10.992-26.662-25.622c-0.699,0.341-1.451,0.526-2.234,0.526
		c-3.817,0-6.906-4.384-6.906-9.797c0-4.241,1.893-7.856,4.553-9.218c1.231,3.788,2.706,6.619,2.706,6.619
		s13.667-3.692,16.188-11.082c0,0,4.07,5.138,14.513,5.138s19.675-0.246,24.98,6.989c0.908-2.414,3.144-5.734,3.605-7.891
		C382.883,252.364,385.027,256.157,385.027,260.661z"/>
</g>
<g>
</g>
<g>
</g>
<g>
</g>
<g>
</g>
<g>
</g>
<g>
</g>
<g>
</g>
<g>
</g>
<g>
</g>
<g>
</g>
<g>
</g>
<g>
</g>
<g>
</g>
<g>
</g>
<g>
</g>
</svg>
