<svg height="512pt" viewBox="0 0 512 512" width="512pt" xmlns="http://www.w3.org/2000/svg"><path d="m512 256c0 141.386719-114.613281 256-256 256s-256-114.613281-256-256 114.613281-256 256-256 256 114.613281 256 256zm0 0" fill="#5d3369"/><path d="m306.78125 505.273438c-2.519531-2.949219-5.324219-5.695313-8.3125-8.183594-.453125-.488282-.816406-.855469-1.011719-1.015625-4.515625-3.625-12.558593-8.300781-18.046875-10.183594-.058594-.019531-.117187-.035156-.175781-.054687-.40625-.15625-.8125-.316407-1.21875-.460938-2.644531-.941406-5.933594-1.589844-6.730469-4.425781-.113281-.464844-.179687-.976563-.179687-1.558594 0-.015625 0-28.078125 0-28.078125v-.011719h-20.261719v.011719h-10.992188v28.074219c0 2.289062-1.511718 4.273437-3.707031 4.933593-13.144531 3.9375-24.597656 11.796876-33.019531 22.203126 17.054688 3.59375 34.742188 5.476562 52.863281 5.476562 11.535157 0 22.890625-.765625 34.019531-2.246094 6.0625-.796875 12.046876-1.820312 17.972657-3.042968-.394531-.480469-.792969-.960938-1.199219-1.4375zm0 0" fill="#d9473a"/><path d="m306.78125 505.273438c.40625.476562.804688.953124 1.195312 1.4375-5.921874 1.222656-11.910156 2.246093-17.96875 3.042968-8.515624-11.957031-20.859374-20.984375-35.214843-25.351562-2.328125-.710938-3.949219-2.832032-3.949219-5.265625v-27.835938h20.261719v28.253907c0 4.050781 3.878906 4.742187 6.90625 5.820312 5.902343 2.097656 11.496093 5.054688 16.589843 8.699219 4.457032 3.1875 8.59375 7.003906 12.179688 11.199219zm0 0" fill="#bd3e33"/><path d="m119.011719 454.125c-1.347657 0-2.714844-.347656-3.960938-1.082031-3.730469-2.191407-4.980469-6.996094-2.785156-10.726563l234.664063-399.382812c2.195312-3.730469 6.992187-4.980469 10.726562-2.789063 3.734375 2.195313 4.980469 6.996094 2.789062 10.730469l-234.667968 399.382812c-1.460938 2.484376-4.078125 3.867188-6.765625 3.867188zm0 0" fill="#ffbd4a"/><path d="m245.167969 458.613281c-61.136719 0-118.800781-26.855469-158.199219-73.683593-2.785156-3.3125-2.359375-8.257813.949219-11.042969 3.3125-2.785157 8.257812-2.359375 11.042969.953125 36.414062 43.277344 89.703124 68.097656 146.207031 68.097656 106.476562 0 192.882812-87.585938 190.953125-194.496094-1.882813-104.367187-88.21875-187.472656-192.605469-187.472656-3.414063 0-6.183594-2.769531-6.183594-6.183594v-3.441406c0-3.339844 2.707031-6.046875 6.046875-6.046875 114.386719 0 208.390625 92.167969 208.449219 206.554687.054687 113.996094-92.671875 206.761719-206.660156 206.761719zm0 0" fill="#bd3e33"/><path d="m419.085938 250.722656c0 63.363282-33.570313 118.890625-83.894532 149.757813-26.675781 16.363281-58.066406 25.796875-91.65625 25.796875-8.078125 0-16.03125-.542969-23.824218-1.609375-32.664063-4.417969-62.476563-17.835938-86.863282-37.667969-22.328125-18.171875-40.113281-41.703125-51.355468-68.648438-8.707032-20.816406-13.511719-43.667968-13.511719-67.628906 0-41.605468 14.480469-79.839844 38.660156-109.921875 32.183594-40.019531 81.542969-65.628906 136.894531-65.628906 53.402344 0 101.25 23.855469 133.441406 61.480469 26.25 30.675781 42.109376 70.53125 42.109376 114.070312zm0 0" fill="#6393e4"/><path d="m419.085938 250.734375c0 96.957031-78.597657 175.550781-175.5625 175.550781-5.800782 0-11.558594-.28125-17.230469-.835937.011719 0 .03125 0 .042969-.007813h.019531c69.035156-6.75 126.347656-53.480468 148.46875-116.746094 6.351562-18.140624 9.800781-37.648437 9.800781-57.960937 0-7.292969-.4375-14.492187-1.316406-21.558594-.019532-.207031-.042969-.425781-.074219-.636719-2.035156-16.183593-6.289063-31.679687-12.421875-46.183593-.09375-.238281-.1875-.46875-.292969-.699219-24.679687-57.59375-79.265625-99.316406-144.226562-105.648438 5.671875-.554687 11.429687-.835937 17.230469-.835937 96.964843 0 175.5625 78.59375 175.5625 175.5625zm0 0" fill="#566cc3"/><path d="m241.191406 395.703125c-2.957031 7.335937-8.054687 13.574219-13.070312 19.695313-2.644532 3.21875-5.351563 6.480468-8.410156 9.269531-32.664063-4.417969-62.476563-17.835938-86.863282-37.667969 1.222656-2.632812 2.382813-5.265625 2.777344-8.117188 1.234375-8.914062-5.234375-16.867187-11.261719-23.542968-12.152343-13.4375-24.617187-27.136719-40.542969-35.757813-.773437-.40625-1.546874-.8125-2.328124-1.230469-8.707032-20.816406-13.511719-43.667968-13.511719-67.628906 0-41.605468 14.480469-79.839844 38.660156-109.921875.480469.042969.972656.082031 1.464844.148438 5.023437-.378907 13.707031 10.195312 15.472656 14.917969 1.757813 4.734374 6.238281 10.167968 10.742187 7.910156 4.597657 1.347656 2.539063 8.640625-1.367187 11.410156-3.910156 2.769531-9.351563 5.070312-9.707031 9.84375-.222656 2.875 1.628906 5.445312 3.394531 7.710938 4.515625 5.863281 12.539063 12.269531 18.265625 7.578124 1.679688-1.359374 2.613281-3.410156 3.730469-5.269531 5.359375-8.878906 16.402343-13.949219 26.632812-12.222656 5.382813 6.570313 10.773438 13.144531 16.15625 19.726563 1.0625 1.296874 2.171875 2.707031 2.347657 4.378906.597656 5.746094-7.980469 6.308594-13.65625 7.460937-7.679688 1.554688-13.132813 8.160157-18.085938 14.242188-13.84375 16.976562-28.816406 33.039062-44.785156 48.042969-2.109375 1.984374-4.378906 4.023437-7.199219 4.722656-3.65625.898437-8.011719-.523438-10.96875 1.816406-3.847656 3.03125-1.515625 9.582031 2.515625 12.375 4.035156 2.777344 5.664062 9.914062 9.625 12.796875 5.988281 4.390625 11.492188 6.15625 16.507812 11.621094 8.285157 9.039062 10.480469 25.671875 21.890626 30.175781 12.75 5.035156 34.261718-.667969 47.03125 4.316406 15.222656 5.933594 35.714843 4.222656 44.011718 18.296875 4.011719 6.8125 3.480469 15.558594.53125 22.902344zm0 0" fill="#c9cf50"/><path d="m419.085938 250.722656c0 63.363282-33.570313 118.890625-83.894532 149.757813-3.804687-7.023438-5.570312-14.515625-2.496094-21.714844 2.871094-6.75 9.351563-11.117187 14.417969-16.4375 5.058594-5.316406 8.894531-13.507813 5.132813-19.808594-2.761719-4.621093-8.484375-6.355469-13.699219-7.703125-9.949219-2.570312-19.90625-5.148437-29.863281-7.730468-5.183594-1.339844-11.003906-3.199219-13.238282-8.058594-1.160156-2.515625-1.109374-5.421875-.804687-8.179688 2.703125-24.734375 25.628906-45.609375 50.519531-45.976562 9.800782-.144532 19.496094 2.5 29.300782 2.277344 10.164062-.21875 22.066406-5.859376 22.558593-16.015626.21875-4.621093-2.050781-8.957031-4.253906-13.019531-5.390625-9.949219-13.644531-21.441406-24.847656-19.800781-6.550781.960938-11.421875 6.269531-16.394531 10.648438-5.308594 4.660156-11.296876 8.535156-17.710938 11.460937-6.78125 3.09375-17.429688 3.34375-18.984375-3.949219-1.097656-5.152344 3.78125-9.570312 8.460937-11.976562 4.691407-2.414063 10.210938-4.566406 12.238282-9.421875 1.503906-3.597657.648437-7.871094 2.222656-11.445313 2.25-5.085937 8.371094-6.90625 13.273438-9.546875 4.898437-2.65625 9.359374-8.988281 5.933593-13.386719-3.292969-4.230468-9.886719-2.007812-15.246093-1.847656-8.023438.25-15.765626-5.96875-17.261719-13.867187-1.492188-7.890625 3.4375-16.511719 11.003906-19.214844 11.179687-6.574219 26.894531-9.980469 41.523437-9.113281 26.25 30.675781 42.109376 70.53125 42.109376 114.070312zm0 0" fill="#c9cf50"/><path d="m377.046875 364.507812c21.210937-25.042968 35.527344-55.917968 40.273437-88.496093 7.019532-48.238281-7.128906-99.050781-38.078124-136.703125-.332032-.40625-.671876-.804688-1.011719-1.207032-.40625-.488281-.8125-.96875-1.222657-1.449218-10.4375-.617188-21.417968.949218-30.917968 4.28125 9.890625 12.324218 18.164062 26 24.472656 40.722656.105469.230469.199219.460938.292969.699219 5.546875 13.113281 9.535156 27.046875 11.757812 41.5625 4.113281 3.90625 7.511719 9.242187 10.195313 14.195312 2.203125 4.0625 4.472656 8.398438 4.25 13.019531-.335938 7.007813-6.113282 11.867188-13 14.277344-1.246094 15.046875-4.382813 29.558594-9.191406 43.285156-5.222657 14.9375-12.429688 28.941407-21.269532 41.726563-.71875 4.316406-3.347656 8.652344-6.441406 11.910156-5.066406 5.316407-11.546875 9.683594-14.421875 16.433594-3.070313 7.199219-1.304687 14.691406 2.5 21.714844.011719-.007813.023437-.015625.039063-.023438 1.457031-.894531 2.898437-1.816406 4.328124-2.753906.203126-.132813.40625-.261719.609376-.398437 13.789062-9.113282 26.183593-20.21875 36.835937-32.796876zm0 0" fill="#a6ab42"/><path d="m190.714844 125.675781c1.246094-4.636719 11.199218-2.535156 15.847656-2.578125 12.210938-.109375 24.804688-.511718 35.9375-5.527344 2.804688-1.261718 5.8125-2.847656 8.796875-2.097656 1.699219.429688 3.117187 1.574219 4.445313 2.714844 7.027343 6.035156 13.292968 12.953125 18.605468 20.542969 1.941406 2.773437 3.835938 6.042969 3.101563 9.347656-.671875 3.003906-3.386719 5.148437-6.226563 6.339844-2.835937 1.195312-5.925781 1.695312-8.769531 2.871093-9.652344 3.988282-14.472656 14.589844-18.449219 24.242188-3.972656 9.652344-8.914062 20.234375-18.628906 24.058594-2.019531.792968-4.683594 1.085937-6.03125-.613282-1.191406-1.507812-.621094-3.800781.578125-5.300781 1.203125-1.496093 2.898437-2.511719 4.253906-3.871093 5.085938-5.09375 4.128907-13.859376.410157-20.023438s-9.566407-10.707031-14.230469-16.195312c-4.535157-5.339844-7.882813-11.511719-11.28125-17.597657-2.394531-4.285156-6.167969-7.855469-7.917969-12.570312-.585938-1.574219-.695312-2.796875-.441406-3.742188zm0 0" fill="#c9cf50"/><g fill="#bd3e33"><path d="m344.894531 81.253906-18.714843-9.746094c-1.824219-.953124-2.535157-3.207031-1.582032-5.035156l4.917969-9.4375c.949219-1.828125 3.203125-2.539062 5.03125-1.585937l18.710937 9.75c1.828126.953125 2.539063 3.203125 1.585938 5.03125l-4.917969 9.441406c-.953125 1.824219-3.203125 2.535156-5.03125 1.582031zm0 0"/><path d="m134.675781 437.324219-17.703125-11.480469c-1.730468-1.121094-2.222656-3.429688-1.101562-5.160156l5.792968-8.929688c1.121094-1.726562 3.429688-2.222656 5.160157-1.097656l17.703125 11.476562c1.726562 1.121094 2.21875 3.433594 1.097656 5.160157l-5.789062 8.933593c-1.121094 1.726563-3.433594 2.21875-5.160157 1.097657zm0 0"/></g></svg>