<svg viewBox="1 1 511.99998 511.99998" xmlns="http://www.w3.org/2000/svg"><path d="m512 256c0 124.582031-89.003906 228.394531-206.890625 251.296875-6.863281 1.328125-13.832031 2.394531-20.898437 3.15625-5.859376.648437-11.785157 1.097656-17.761719 1.339844-3.46875.132812-6.949219.207031-10.449219.207031s-6.980469-.074219-10.449219-.207031c-6.113281-.253907-12.171875-.710938-18.160156-1.382813-7.0625-.773437-14.03125-1.847656-20.898437-3.195312-117.695313-23.0625-206.492188-126.765625-206.492188-251.214844 0-141.386719 114.613281-256 256-256s256 114.613281 256 256zm0 0" fill="#476787"/><g fill="#4c4c4c"><path d="m227.390625 417.09375v93.316406c-7.0625-.773437-14.03125-1.847656-20.898437-3.195312v-90.121094c0-24.628906-20.039063-44.671875-44.660157-44.671875h-4.1875c-36.152343 0-65.566406-29.402344-65.566406-65.554687v-32.65625h20.894531v32.65625c0 24.625 20.042969 44.65625 44.671875 44.65625h4.1875c36.144531 0 65.558594 29.414062 65.558594 65.570312zm0 0"/><path d="m419.527344 274.210938v32.65625c0 36.152343-29.414063 65.554687-65.566406 65.554687h-4.179688c-24.628906 0-44.671875 20.042969-44.671875 44.671875v90.203125c-6.863281 1.328125-13.832031 2.394531-20.898437 3.15625v-93.359375c0-36.15625 29.414062-65.570312 65.570312-65.570312h4.179688c24.625 0 44.667968-20.03125 44.667968-44.65625v-32.65625zm0 0"/><path d="m266.449219 255.40625v256.386719c-3.46875.132812-6.949219.207031-10.449219.207031s-6.980469-.074219-10.449219-.207031v-256.386719zm0 0"/></g><path d="m102.921875 30.683594c-6.570313 0-11.894531 5.328125-11.894531 11.894531v93.535156h23.789062v-93.535156c0-6.566406-5.324218-11.894531-11.894531-11.894531zm0 0" fill="#e2e2e2"/><path d="m61.5625 94.757812h82.71875v41.355469h-82.71875zm0 0" fill="#fff"/><path d="m61.5625 94.757812h34.929688v41.355469h-34.929688zm0 0" fill="#e2e2e2"/><path d="m159.785156 123.929688v116.835937c0 25.902344-17.3125 47.753906-41.011718 54.617187-5.03125 1.460938-10.355469 2.246094-15.855469 2.246094-31.402344 0-56.867188-25.460937-56.867188-56.867187v-116.832031zm0 0" fill="#efa521"/><path d="m159.785156 123.929688v116.835937c0 25.902344-17.3125 47.753906-41.011718 54.617187-23.699219-6.863281-41.015626-28.714843-41.015626-54.617187v-116.835937zm0 0" fill="#ffd861"/><path d="m159.785156 181.609375h-113.734375c-7.613281 0-13.785156-6.171875-13.785156-13.789063 0-7.613281 6.171875-13.785156 13.785156-13.785156h113.734375c7.613282 0 13.785156 6.171875 13.785156 13.785156 0 7.617188-6.171874 13.789063-13.785156 13.789063zm0 0" fill="#efa521"/><path d="m159.785156 216.074219h-113.734375c-7.613281 0-13.785156-6.171875-13.785156-13.789063 0-7.613281 6.171875-13.785156 13.785156-13.785156h113.734375c7.613282 0 13.785156 6.171875 13.785156 13.785156 0 7.617188-6.171874 13.789063-13.785156 13.789063zm0 0" fill="#efa521"/><path d="m409.078125 30.683594c-6.570313 0-11.898437 5.328125-11.898437 11.894531v93.535156h23.789062v-93.535156c.003906-6.566406-5.324219-11.894531-11.890625-11.894531zm0 0" fill="#e2e2e2"/><path d="m367.71875 94.757812h82.714844v41.355469h-82.714844zm0 0" fill="#fff"/><path d="m367.71875 94.757812h34.929688v41.355469h-34.929688zm0 0" fill="#e2e2e2"/><path d="m465.941406 123.929688v116.835937c0 25.902344-17.316406 47.753906-41.015625 54.617187-5.03125 1.460938-10.351562 2.246094-15.851562 2.246094-31.40625 0-56.867188-25.460937-56.867188-56.867187v-116.832031zm0 0" fill="#1bb78f"/><path d="m465.941406 123.929688v116.835937c0 25.902344-17.316406 47.753906-41.015625 54.617187-23.695312-6.863281-41.011719-28.714843-41.011719-54.617187v-116.835937zm0 0" fill="#66ccb5"/><path d="m465.941406 181.609375h-113.734375c-7.613281 0-13.785156-6.171875-13.785156-13.789063 0-7.613281 6.171875-13.785156 13.785156-13.785156h113.734375c7.613282 0 13.785156 6.171875 13.785156 13.785156 0 7.617188-6.171874 13.789063-13.785156 13.789063zm0 0" fill="#1bb78f"/><path d="m465.941406 216.074219h-113.734375c-7.613281 0-13.785156-6.171875-13.785156-13.789063 0-7.613281 6.171875-13.785156 13.785156-13.785156h113.734375c7.613282 0 13.785156 6.171875 13.785156 13.785156 0 7.617188-6.171874 13.789063-13.785156 13.789063zm0 0" fill="#1bb78f"/><path d="m256 30.683594c-6.570312 0-11.894531 5.328125-11.894531 11.894531v93.535156h23.789062v-93.535156c0-6.566406-5.328125-11.894531-11.894531-11.894531zm0 0" fill="#e2e2e2"/><path d="m214.640625 94.757812h82.714844v41.355469h-82.714844zm0 0" fill="#fff"/><path d="m214.640625 94.757812h34.929687v41.355469h-34.929687zm0 0" fill="#e2e2e2"/><path d="m312.863281 123.929688v116.835937c0 25.902344-17.316406 47.753906-41.011719 54.617187-5.035156 1.460938-10.355468 2.246094-15.855468 2.246094-31.40625 0-56.867188-25.460937-56.867188-56.867187v-116.832031zm0 0" fill="#e04f81"/><path d="m312.863281 123.929688v116.835937c0 25.902344-17.316406 47.753906-41.011719 54.617187-23.699218-6.863281-41.015624-28.714843-41.015624-54.617187v-116.835937zm0 0" fill="#ff7591"/><path d="m312.863281 181.609375h-113.734375c-7.613281 0-13.785156-6.171875-13.785156-13.789063 0-7.613281 6.171875-13.785156 13.785156-13.785156h113.734375c7.613281 0 13.785157 6.171875 13.785157 13.785156 0 7.617188-6.171876 13.789063-13.785157 13.789063zm0 0" fill="#e04f81"/><path d="m312.863281 216.074219h-113.734375c-7.613281 0-13.785156-6.171875-13.785156-13.789063 0-7.613281 6.171875-13.785156 13.785156-13.785156h113.734375c7.613281 0 13.785157 6.171875 13.785157 13.785156 0 7.617188-6.171876 13.789063-13.785157 13.789063zm0 0" fill="#e04f81"/></svg>