<svg height="512pt" viewBox="0 0 512 512" width="512pt" xmlns="http://www.w3.org/2000/svg"><path d="m512 261.621094c0 46.082031-12.449219 89.257812-34.167969 126.34375-10.113281 17.265625-23.898437 33.59375-37.710937 47.898437-15.851563 16.421875-32.257813 30.308594-52.074219 41.921875-37.105469 21.746094-80.308594 34.214844-126.425781 34.214844-62.066406 0-118.859375-22.585938-162.609375-59.984375-8.921875-7.625-17.0625-16.214844-24.835938-25.007813-8.042969-9.101562-15.667969-18.445312-22.335937-28.652343-24.996094-38.273438-39.804688-83.804688-40.566406-132.75-.023438-1.324219-.03125-2.652344-.03125-3.984375 0-7.222656.675781-14.054688 1.277343-21.121094.628907-7.414062 1.207031-15.0625 2.46875-22.277344 18.964844-108.519531 107.804688-193.015625 218.445313-205.414062 3.222656-.359375 6.210937-.46875 9.472656-.707032 3.082031-.222656 6.4375-.585937 9.546875-.695312 3.042969-.109375 6.101563-.164062 9.167969-.164062 34.167968 0 66.738281 6.84375 96.414062 19.238281 20.683594 8.636719 39.574219 20.824219 57.007813 34.414062 17.675781 13.777344 33.839843 29.023438 47.261719 46.984375 26.289062 35.171875 43.542968 77.480469 48.335937 123.5.332031 3.179688.382813 6.6875.59375 9.898438.226563 3.472656.605469 6.65625.691406 10.164062.050781 2.054688.074219 4.113282.074219 6.179688zm0 0" fill="#02c6dc"/><path d="m511.921875 255.441406c-.3125.027344-.625.046875-.945313.046875-5.644531 0-10.21875-4.574219-10.21875-10.21875 0-5.515625 4.375-10 9.839844-10.199219.707032 6.714844 1.15625 13.507813 1.324219 20.371094zm-267.234375-194.125c14.109375 0 25.550781-11.4375 25.550781-25.546875 0-11.402343-7.472656-21.054687-17.78125-24.34375-6.40625.230469-12.75.703125-19.023437 1.40625-8.464844 4.160157-14.292969 12.867188-14.292969 22.9375 0 14.109375 11.4375 25.546875 25.546875 25.546875zm210.082031 154.316406c-14.109375 0-25.546875 11.4375-25.546875 25.546876 0 14.113281 11.4375 25.550781 25.546875 25.550781s25.550781-11.4375 25.550781-25.550781c0-14.109376-11.441406-25.546876-25.550781-25.546876zm-224.828125 167.601563c-19.753906 0-35.769531 16.011719-35.769531 35.769531 0 19.753906 16.015625 35.765625 35.769531 35.765625s35.765625-16.011719 35.765625-35.765625c0-19.757812-16.011719-35.769531-35.765625-35.769531zm-214.941406-165.011719c-2.464844 14.097656-3.757812 28.597656-3.757812 43.398438 0 1.332031.027343 2.660156.050781 3.984375 10.445312-3.203125 18.039062-12.925781 18.039062-24.425781 0-10.085938-5.84375-18.800782-14.332031-22.957032zm61.648438 170.121094c-9.632813 0-18.367188 3.8125-24.796876 10 13.109376 20.070312 29.015626 38.140625 47.171876 53.664062 8.164062-6.554687 13.390624-16.613281 13.390624-27.894531 0-19.757812-16.011718-35.769531-35.765624-35.769531zm38.761718-20.953125c-3.992187 3.992187-3.992187 10.460937 0 14.453125 3.988282 3.992188 10.460938 3.992188 14.449219 0 3.992187-3.992188 3.992187-10.460938 0-14.453125-3.988281-3.992187-10.460937-3.992187-14.449219 0zm28.902344-28.90625c-3.988281 3.992187-3.988281 10.460937 0 14.453125 3.992188 3.992188 10.460938 3.992188 14.453125 0s3.992187-10.460938 0-14.453125c-3.992187-3.988281-10.460937-3.988281-14.453125 0zm28.90625-28.902344c-3.992188 3.988281-3.992188 10.460938 0 14.449219 3.992188 3.992188 10.460938 3.992188 14.453125 0 3.988281-3.988281 3.988281-10.460938 0-14.449219-3.992187-3.992187-10.460937-3.992187-14.453125 0zm-40.578125-159.28125c3.992187 3.988281 10.460937 3.988281 14.453125 0 3.992188-3.992187 3.992188-10.460937 0-14.453125-3.992188-3.992187-10.460938-3.992187-14.453125 0-3.988281 3.992188-3.988281 10.460938 0 14.453125zm43.359375 28.90625c3.988281-3.992187 3.988281-10.464843 0-14.453125-3.992188-3.992187-10.460938-3.992187-14.453125 0-3.992187 3.988282-3.992187 10.460938 0 14.453125 3.992187 3.988281 10.460937 3.988281 14.453125 0zm181.683594 55.84375c-5.644532 0-10.21875 4.574219-10.21875 10.21875s4.574218 10.21875 10.21875 10.21875c5.644531 0 10.21875-4.574219 10.21875-10.21875s-4.574219-10.21875-10.21875-10.21875zm30.660156 10.21875c0 5.644531 4.574219 10.21875 10.21875 10.21875s10.21875-4.574219 10.21875-10.21875-4.574219-10.21875-10.21875-10.21875-10.21875 4.574219-10.21875 10.21875zm-33.652344-94.96875c3.992188-3.992187 3.992188-10.460937 0-14.453125-3.992187-3.992187-10.460937-3.992187-14.453125 0-3.988281 3.992188-3.988281 10.460938 0 14.453125 3.992188 3.988281 10.460938 3.988281 14.453125 0zm-109.421875-27.667969c-5.644531 0-10.21875 4.578126-10.21875 10.222657s4.574219 10.21875 10.21875 10.21875 10.21875-4.574219 10.21875-10.21875-4.574219-10.222657-10.21875-10.222657zm0-40.875c-5.644531 0-10.21875 4.574219-10.21875 10.21875 0 5.644532 4.574219 10.21875 10.21875 10.21875s10.21875-4.574218 10.21875-10.21875c0-5.644531-4.574219-10.21875-10.21875-10.21875zm66.0625 82.996094c-3.988281 3.988282-3.988281 10.460938 0 14.453125 3.992188 3.988281 10.464844 3.988281 14.453125 0 3.992188-3.992187 3.992188-10.464843 0-14.453125-3.988281-3.992187-10.460937-3.992187-14.453125 0zm-5.109375 144.675782c-3.988281 3.992187-3.988281 10.460937 0 14.453124 3.992188 3.992188 10.464844 3.992188 14.453125 0 3.992188-3.992187 3.992188-10.460937 0-14.453124-3.988281-3.992188-10.460937-3.992188-14.453125 0zm43.359375 28.90625c-3.992187-3.992188-10.460937-3.992188-14.453125 0-3.992187 3.988281-3.992187 10.460937 0 14.453124 3.992188 3.988282 10.460938 3.988282 14.453125 0 3.992188-3.992187 3.992188-10.464843 0-14.453124zm-267.824219-93.066407c0 5.644531 4.574219 10.21875 10.21875 10.21875 5.644532 0 10.21875-4.574219 10.21875-10.21875s-4.574218-10.21875-10.21875-10.21875c-5.644531 0-10.21875 4.574219-10.21875 10.21875zm-20.441406 0c0-5.644531-4.574218-10.21875-10.21875-10.21875-5.644531 0-10.21875 4.574219-10.21875 10.21875s4.574219 10.21875 10.21875 10.21875c5.644532 0 10.21875-4.574219 10.21875-10.21875zm71.539063-10.21875c-5.644531 0-10.222657 4.574219-10.222657 10.21875s4.578126 10.21875 10.222657 10.21875 10.21875-4.574219 10.21875-10.21875-4.574219-10.21875-10.21875-10.21875zm281.035156-102.195312c19.097656 0 36.300781-8.070313 48.417969-20.972657-26.660156-35.675781-62.617188-63.992187-104.269532-81.390624-6.683593 10.363281-10.574218 22.691406-10.574218 35.933593 0 36.6875 29.742187 66.429688 66.425781 66.429688zm5.113281 219.71875c-36.6875 0-66.429687 29.742187-66.429687 66.429687 0 25.5 14.378906 47.632813 35.464843 58.765625 37.046876-21.714843 68.015626-52.683593 89.730469-89.730469-11.132812-21.085937-33.265625-35.464843-58.765625-35.464843zm-173.734375-191.105469c-42.332031 0-76.648437 34.316406-76.648437 76.648438 0 42.328124 34.316406 76.644531 76.648437 76.644531s76.648438-34.316407 76.648438-76.644531c0-42.332032-34.316407-76.648438-76.648438-76.648438zm-178.84375-28.613281c36.6875 0 66.429688-29.742188 66.429688-66.429688 0-36.683593-29.742188-66.425781-66.429688-66.425781-36.683593 0-66.425781 29.742188-66.425781 66.425781 0 36.6875 29.742188 66.429688 66.425781 66.429688zm0 0" fill="#0573cd"/><path d="m254.90625 36.371094c0 5.644531-4.574219 10.21875-10.21875 10.21875s-10.21875-4.574219-10.21875-10.21875c0-5.644532 4.574219-10.21875 10.21875-10.21875s10.21875 4.574218 10.21875 10.21875zm-188.480469-7.757813c-20.882812 0-37.8125 16.929688-37.8125 37.8125 0 20.886719 16.929688 37.8125 37.8125 37.8125 20.886719 0 37.8125-16.925781 37.8125-37.8125 0-20.882812-16.925781-37.8125-37.8125-37.8125zm163.515625 380.167969c-5.644531 0-10.222656 4.578125-10.222656 10.222656 0 5.640625 4.578125 10.21875 10.222656 10.21875 5.644532 0 10.21875-4.578125 10.21875-10.21875 0-5.644531-4.574218-10.222656-10.21875-10.222656zm-158.40625-102.195312c0-5.644532-4.574218-10.21875-10.21875-10.21875-5.644531 0-10.21875 4.574218-10.21875 10.21875 0 5.644531 4.574219 10.21875 10.21875 10.21875 5.644532 0 10.21875-4.574219 10.21875-10.21875zm4.429688 98.960937c-5.765625 0-10.925782 2.558594-14.4375 6.589844 7.632812 10.128906 16.023437 19.65625 25.074218 28.507812 5.140626-3.4375 8.523438-9.289062 8.523438-15.9375 0-10.582031-8.578125-19.160156-19.160156-19.160156zm378.804687-174.585937c-5.644531 0-10.21875 4.578124-10.21875 10.21875 0 5.644531 4.574219 10.222656 10.21875 10.222656s10.21875-4.578125 10.21875-10.222656c0-5.640626-4.574219-10.21875-10.21875-10.21875zm-176.285156 129.277343c-5.644531 0-10.222656 4.578125-10.222656 10.222657 0 5.640624 4.578125 10.21875 10.222656 10.21875s10.21875-4.578126 10.21875-10.21875c0-5.644532-4.574219-10.222657-10.21875-10.222657zm140.519531 20.953125c-20.886718 0-37.8125 16.925782-37.8125 37.8125 0 20.691406 16.621094 37.492188 37.242188 37.796875 14.128906-11.367187 27-24.238281 38.367187-38.367187-.304687-20.621094-17.105469-37.242188-37.796875-37.242188zm-5.113281-276.953125c12.089844 0 22.847656-5.679687 29.769531-14.507812-17.335937-18.355469-37.421875-34.078125-59.589844-46.535157-5.003906 6.410157-7.992187 14.46875-7.992187 23.230469 0 20.886719 16.929687 37.8125 37.8125 37.8125zm-117.523437 355.640625c-5.644532 0-10.21875 4.578125-10.21875 10.222656 0 5.640626 4.574218 10.21875 10.21875 10.21875 5.644531 0 10.21875-4.578124 10.21875-10.21875 0-5.644531-4.574219-10.222656-10.21875-10.222656zm0 0" fill="#83e3ea"/><path d="m84.492188 70.039062c3.992187 3.992188 3.992187 10.464844 0 14.453126-3.988282 3.992187-10.460938 3.992187-14.453126 0-3.988281-3.988282-3.988281-10.460938 0-14.453126 3.992188-3.988281 10.460938-3.988281 14.453126 0zm325.789062-9.890624c-5.21875-3.855469-10.59375-7.511719-16.109375-10.960938-.3125.246094-.617187.507812-.90625.796875-3.992187 3.992187-3.992187 10.460937 0 14.453125s10.460937 3.992188 14.453125 0c1.238281-1.238281 2.09375-2.71875 2.5625-4.289062zm-361.921875-11.789063c-3.988281 3.992187-3.988281 10.464844 0 14.453125 3.992187 3.992188 10.464844 3.992188 14.453125 0 3.992188-3.988281 3.992188-10.460938 0-14.453125-3.988281-3.988281-10.460938-3.988281-14.453125 0zm372.878906 20.355469c-2.296875.210937-4.535156 1.191406-6.292969 2.949218-3.992187 3.992188-3.992187 10.460938 0 14.453126 3.992188 3.988281 10.460938 3.988281 14.453126 0 2.085937-2.089844 3.074218-4.859376 2.976562-7.59375-3.617188-3.375-7.324219-6.652344-11.136719-9.808594zm-3.773437 324.738281c-5.644532 0-10.21875 4.574219-10.21875 10.21875s4.574218 10.21875 10.21875 10.21875c5.644531 0 10.21875-4.574219 10.21875-10.21875s-4.574219-10.21875-10.21875-10.21875zm0 30.660156c-5.644532 0-10.21875 4.574219-10.21875 10.21875s4.574218 10.21875 10.21875 10.21875c5.644531 0 10.21875-4.574219 10.21875-10.21875s-4.574219-10.21875-10.21875-10.21875zm0 0" fill="#aef7ff"/><path d="m293.300781 238.117188c0 26.527343-21.503906 48.03125-48.03125 48.03125-26.527343 0-48.03125-21.503907-48.03125-48.03125 0-26.527344 21.503907-48.035157 48.03125-48.035157 26.527344 0 48.03125 21.507813 48.03125 48.035157zm0 0" fill="#83e3ea"/><path d="m272.351562 238.117188c0 5.644531-4.574218 10.21875-10.21875 10.21875-5.644531 0-10.21875-4.574219-10.21875-10.21875 0-5.644532 4.574219-10.222657 10.21875-10.222657 5.644532 0 10.21875 4.578125 10.21875 10.222657zm-35.769531 5.109374c-5.644531 0-10.21875 4.574219-10.21875 10.21875 0 5.644532 4.574219 10.21875 10.21875 10.21875s10.21875-4.574218 10.21875-10.21875c0-5.644531-4.574219-10.21875-10.21875-10.21875zm0-30.660156c-5.644531 0-10.21875 4.574219-10.21875 10.21875 0 5.644532 4.574219 10.222656 10.21875 10.222656s10.21875-4.578124 10.21875-10.222656c0-5.644531-4.574219-10.21875-10.21875-10.21875zm0 0" fill="#fff5f5"/></svg>