<svg height="100%" viewBox="0 -7 512.00046 512" width="100%" xmlns="http://www.w3.org/2000/svg"><path d="m497.769531 248.882812c0 137.457032-111.429687 248.886719-248.886719 248.886719-137.453124 0-248.882812-111.429687-248.882812-248.886719 0-137.453124 111.429688-248.882812 248.882812-248.882812 137.457032 0 248.886719 111.429688 248.886719 248.882812zm0 0" fill="#6392e3"/><path d="m415.601562 160.929688h20.636719v195.089843h-20.636719zm0 0" fill="#414141"/><path d="m427.261719 160.929688h8.976562v195.085937h-8.976562zm0 0" fill="#363636"/><path d="m447.238281 411.972656h-40.347656c-1.742187 0-3.15625-1.414062-3.15625-3.15625v-55.414062c0-11.082032 8.984375-20.066406 20.066406-20.066406h4.234375c11.085938 0 20.070313 8.984374 20.070313 20.066406v57.703125c0 .480469-.390625.867187-.867188.867187zm0 0" fill="#fdbc4a"/><path d="m448.109375 353.40625v57.699219c0 .476562-.398437.863281-.875.863281h-8.125c.476563 0 .871094-.386719.871094-.863281v-57.699219c0-10.421875-7.953125-18.996094-18.121094-19.984375.640625-.058594 1.289063-.089844 1.941406-.089844h4.234375c11.082032 0 20.074219 8.992188 20.074219 20.074219zm0 0" fill="#d1952e"/><path d="m361.285156 175.855469c0 2.132812.003906 202.078125 0 206.226562-.007812 4.742188-.941406 9.277344-3.820312 13.132813-2.339844 3.136718-5.554688 5.472656-9.265625 6.707031l-165.097657 63.753906c-8.613281 3.324219-18.132812 3.324219-26.746093 0l-67.207031-25.953125c-54.480469-45.652344-89.1210942-114.203125-89.1210942-190.839844 0-9.609374.5390622-19.097656 1.6132812-28.421874.539063-4.816407 1.230469-9.589844 2.054687-14.324219 1.777344-10.332031 4.203126-20.4375 7.222657-30.28125zm0 0" fill="#414141"/><path d="m361.285156 175.855469h-56.890625c.003907 56.621093.003907 222.261719 0 226.367187-.003906 5.640625-1.117187 11.027344-4.539062 15.613282-1.265625 1.703124-2.761719 3.195312-4.425781 4.464843l52.769531-20.378906c3.710937-1.234375 6.925781-3.570313 9.265625-6.703125 2.878906-3.859375 3.816406-8.394531 3.820312-13.136719.003906-4.148437 0-204.09375 0-206.226562zm0 0" fill="#363636"/><path d="m511.941406 151.722656c-.425781 3.929688-3.226562 7.921875-7.222656 9.816406-6.371094 3.023438-242.34375 92.246094-263.441406 100.277344-22.71875 8.648438-45.917969 20.5-70.890625 19.308594-11.964844-.570312-22.722657-5.074219-33.726563-9.265625-24.730468-9.414063-49.460937-18.828125-74.191406-28.242187-19.695312-7.5-39.390625-14.996094-59.085938-22.492188-.578124-.222656-1.160156-.441406-1.738281-.664062.535157-4.8125 1.226563-9.589844 2.050781-14.324219 1.777344-10.328125 4.203126-20.4375 7.222657-30.28125 4.5625-14.890625 10.484375-29.195313 17.625-42.757813 18.476562-35.097656 45.101562-65.238281 77.355469-87.910156 14.695312-5.492188 29.292968-11.273438 44.152343-16.308594 14.0625-4.761718 29.355469-4.328125 43.527344-.21875.386719.109375.773437.230469 1.148437.363282 2.734376.964843 310.96875 113.511718 311.054688 113.542968 4.847656 1.769532 6.566406 5.433594 6.160156 9.15625zm0 0" fill="#666"/><path d="m505.777344 142.566406c-.085938-.03125-308.316406-112.582031-311.050782-113.542968-.378906-.132813-.765624-.253907-1.148437-.367188-14.171875-4.105469-29.46875-4.539062-43.527344.222656-.503906.167969-1 .347656-1.5.519532 19.632813 7.136718 309.933594 113.136718 310.019531 113.164062 4.847657 1.773438 6.570313 5.4375 6.164063 9.160156-.429687 3.925782-3.226563 7.917969-7.222656 9.816406-6.371094 3.023438-242.347657 92.242188-263.441407 100.273438-13.777343 5.246094-27.730468 11.664062-42.144531 15.640625 5.953125 1.917969 12.03125 3.367187 18.460938 3.671875 24.972656 1.191406 48.171875-10.660156 70.890625-19.3125 21.097656-8.03125 257.070312-97.25 263.441406-100.273438 3.996094-1.894531 6.796875-5.890624 7.222656-9.816406.40625-3.722656-1.3125-7.386718-6.164062-9.15625zm0 0" fill="#5c5c5c"/><path d="m201.835938 139.65625c0-7.738281-11.667969-14.011719-26.058594-14.011719-14.386719 0-26.054688 6.273438-26.054688 14.011719 0 7.742188 11.667969 14.015625 26.054688 14.015625 14.390625 0 26.058594-6.273437 26.058594-14.015625zm0 0" fill="#414141"/><path d="m201.835938 139.660156c0 7.742188-11.671876 14.007813-26.054688 14.007813-3.027344 0-5.933594-.273438-8.636719-.792969 10.148438-1.910156 17.421875-7.101562 17.421875-13.214844 0-6.117187-7.273437-11.316406-17.421875-13.226562 2.703125-.519532 5.609375-.792969 8.636719-.792969 14.382812 0 26.054688 6.277344 26.054688 14.019531zm0 0" fill="#363636"/><path d="m403.734375 356.015625h44.355469v8.675781h-44.355469zm0 0" fill="#bf882a"/><g fill="#d1952e"><path d="m405.929688 364.691406h4.742187v47.277344h-4.742187zm0 0"/><path d="m414.226562 364.691406h4.742188v47.277344h-4.742188zm0 0"/><path d="m422.523438 364.691406h4.738281v47.277344h-4.738281zm0 0"/><path d="m430.820312 364.691406h4.738282v47.277344h-4.738282zm0 0"/></g></svg>